<ttFont>
    <TTGlyph name=".notdef" xMin="193" yMin="0" xMax="1034" yMax="1462">
      <contour>
        <pt x="193" y="1462" on="1"/>
        <pt x="1034" y="1462" on="1"/>
        <pt x="1034" y="0" on="1"/>
        <pt x="193" y="0" on="1"/>
      </contour>
      <contour>
        <pt x="297" y="104" on="1"/>
        <pt x="930" y="104" on="1"/>
        <pt x="930" y="1358" on="1"/>
        <pt x="297" y="1358" on="1"/>
      </contour>
    </TTGlyph>
    <TTGlyph name="afii301" xMin="-299" yMin="-338" xMax="299" yMax="1613">
      <contour>
        <pt x="74" y="1323" on="1"/>
        <pt x="299" y="1103" on="1"/>
        <pt x="224" y="1030" on="1"/>
        <pt x="54" y="1199" on="1"/>
        <pt x="54" y="-338" on="1"/>
        <pt x="-54" y="-338" on="1"/>
        <pt x="-54" y="1199" on="1"/>
        <pt x="-224" y="1030" on="1"/>
        <pt x="-299" y="1103" on="1"/>
        <pt x="-74" y="1323" on="1"/>
        <pt x="-299" y="1540" on="1"/>
        <pt x="-224" y="1613" on="1"/>
        <pt x="0" y="1393" on="1"/>
        <pt x="224" y="1613" on="1"/>
        <pt x="299" y="1539" on="1"/>
      </contour>
    </TTGlyph>
    <TTGlyph name="afii61664" xMin="-54" yMin="-339" xMax="54" yMax="1613">
      <contour>
        <pt x="-54" y="-339" on="1"/>
        <pt x="-54" y="1613" on="1"/>
        <pt x="54" y="1613" on="1"/>
        <pt x="54" y="-339" on="1"/>
      </contour>
    </TTGlyph>
    <TTGlyph name="asciicircum" xMin="97" yMin="520" xMax="1174" yMax="1470">
      <contour>
        <pt x="97" y="520" on="1"/>
        <pt x="535" y="1470" on="1"/>
        <pt x="679" y="1470" on="1"/>
        <pt x="1174" y="520" on="1"/>
        <pt x="935" y="520" on="1"/>
        <pt x="613" y="1163" on="1"/>
        <pt x="333" y="520" on="1"/>
      </contour>
    </TTGlyph>
    <TTGlyph name="asciitilde" xMin="160" yMin="491" xMax="1112" yMax="833">
      <contour>
        <pt x="160" y="491" on="1"/>
        <pt x="160" y="722" on="1"/>
        <pt x="263" y="831" on="0"/>
        <pt x="416" y="831" on="1"/>
        <pt x="475" y="831" on="0"/>
        <pt x="576" y="807" on="0"/>
        <pt x="672" y="767" on="1"/>
        <pt x="744" y="737" on="0"/>
        <pt x="831" y="712" on="0"/>
        <pt x="879" y="712" on="1"/>
        <pt x="929" y="712" on="0"/>
        <pt x="1050" y="771" on="0"/>
        <pt x="1112" y="833" on="1"/>
        <pt x="1112" y="602" on="1"/>
        <pt x="1011" y="493" on="0"/>
        <pt x="856" y="493" on="1"/>
        <pt x="785" y="493" on="0"/>
        <pt x="674" y="525" on="0"/>
        <pt x="600" y="556" on="1"/>
        <pt x="521" y="590" on="0"/>
        <pt x="442" y="612" on="0"/>
        <pt x="394" y="612" on="1"/>
        <pt x="287" y="612" on="0"/>
      </contour>
    </TTGlyph>
    <TTGlyph name="asterisk" xMin="136" yMin="567" xMax="1126" yMax="1525">
      <contour>
        <pt x="761" y="1525" on="1"/>
        <pt x="720" y="1157" on="1"/>
        <pt x="1093" y="1261" on="1"/>
        <pt x="1126" y="1009" on="1"/>
        <pt x="786" y="985" on="1"/>
        <pt x="1009" y="688" on="1"/>
        <pt x="782" y="567" on="1"/>
        <pt x="626" y="880" on="1"/>
        <pt x="489" y="569" on="1"/>
        <pt x="253" y="688" on="1"/>
        <pt x="474" y="985" on="1"/>
        <pt x="136" y="1011" on="1"/>
        <pt x="175" y="1261" on="1"/>
        <pt x="540" y="1157" on="1"/>
        <pt x="499" y="1525" on="1"/>
      </contour>
    </TTGlyph>
    <TTGlyph name="backslash" xMin="72" yMin="-339" xMax="894" yMax="1705">
      <contour>
        <pt x="334" y="1705" on="1"/>
        <pt x="894" y="-339" on="1"/>
        <pt x="632" y="-339" on="1"/>
        <pt x="72" y="1705" on="1"/>
      </contour>
    </TTGlyph>
    <TTGlyph name="bar" xMin="443" yMin="-339" xMax="662" yMax="1703">
      <contour>
        <pt x="443" y="1703" on="1"/>
        <pt x="662" y="1703" on="1"/>
        <pt x="662" y="-339" on="1"/>
        <pt x="443" y="-339" on="1"/>
      </contour>
    </TTGlyph>
    <TTGlyph name="braceleft" xMin="78" yMin="-339" xMax="772" yMax="1703">
      <contour>
        <pt x="78" y="562" on="1"/>
        <pt x="78" y="801" on="1"/>
        <pt x="211" y="801" on="0"/>
        <pt x="334" y="899" on="0"/>
        <pt x="334" y="996" on="1"/>
        <pt x="334" y="1379" on="1"/>
        <pt x="334" y="1504" on="0"/>
        <pt x="411" y="1638" on="0"/>
        <pt x="599" y="1703" on="0"/>
        <pt x="772" y="1703" on="1"/>
        <pt x="772" y="1478" on="1"/>
        <pt x="676" y="1476" on="0"/>
        <pt x="598" y="1398" on="0"/>
        <pt x="598" y="1310" on="1"/>
        <pt x="598" y="953" on="1"/>
        <pt x="598" y="855" on="0"/>
        <pt x="489" y="712" on="0"/>
        <pt x="364" y="688" on="1"/>
        <pt x="364" y="676" on="1"/>
        <pt x="598" y="634" on="0"/>
        <pt x="598" y="422" on="1"/>
        <pt x="598" y="55" on="1"/>
        <pt x="598" y="-33" on="0"/>
        <pt x="676" y="-111" on="0"/>
        <pt x="772" y="-113" on="1"/>
        <pt x="772" y="-339" on="1"/>
        <pt x="598" y="-339" on="0"/>
        <pt x="409" y="-273" on="0"/>
        <pt x="334" y="-138" on="0"/>
        <pt x="334" y="-14" on="1"/>
        <pt x="334" y="353" on="1"/>
        <pt x="334" y="466" on="0"/>
        <pt x="203" y="562" on="0"/>
      </contour>
    </TTGlyph>
    <TTGlyph name="braceright" xMin="100" yMin="-339" xMax="794" yMax="1703">
      <contour>
        <pt x="794" y="563" on="1"/>
        <pt x="661" y="563" on="0"/>
        <pt x="538" y="465" on="0"/>
        <pt x="538" y="368" on="1"/>
        <pt x="538" y="-15" on="1"/>
        <pt x="538" y="-140" on="0"/>
        <pt x="461" y="-274" on="0"/>
        <pt x="273" y="-339" on="0"/>
        <pt x="100" y="-339" on="1"/>
        <pt x="100" y="-114" on="1"/>
        <pt x="196" y="-112" on="0"/>
        <pt x="274" y="-34" on="0"/>
        <pt x="274" y="54" on="1"/>
        <pt x="274" y="411" on="1"/>
        <pt x="274" y="509" on="0"/>
        <pt x="383" y="652" on="0"/>
        <pt x="508" y="676" on="1"/>
        <pt x="508" y="688" on="1"/>
        <pt x="274" y="730" on="0"/>
        <pt x="274" y="942" on="1"/>
        <pt x="274" y="1309" on="1"/>
        <pt x="274" y="1397" on="0"/>
        <pt x="196" y="1475" on="0"/>
        <pt x="100" y="1477" on="1"/>
        <pt x="100" y="1703" on="1"/>
        <pt x="274" y="1703" on="0"/>
        <pt x="463" y="1637" on="0"/>
        <pt x="538" y="1502" on="0"/>
        <pt x="538" y="1378" on="1"/>
        <pt x="538" y="1011" on="1"/>
        <pt x="538" y="898" on="0"/>
        <pt x="669" y="802" on="0"/>
        <pt x="794" y="802" on="1"/>
      </contour>
    </TTGlyph>
    <TTGlyph name="bracketleft" xMin="214" yMin="-339" xMax="698" yMax="1704">
      <contour>
        <pt x="698" y="-339" on="1"/>
        <pt x="214" y="-339" on="1"/>
        <pt x="214" y="1704" on="1"/>
        <pt x="698" y="1704" on="1"/>
        <pt x="698" y="1493" on="1"/>
        <pt x="474" y="1493" on="1"/>
        <pt x="474" y="-128" on="1"/>
        <pt x="698" y="-128" on="1"/>
      </contour>
    </TTGlyph>
    <TTGlyph name="bracketright" xMin="100" yMin="-339" xMax="584" yMax="1704">
      <contour>
        <pt x="100" y="1704" on="1"/>
        <pt x="584" y="1704" on="1"/>
        <pt x="584" y="-339" on="1"/>
        <pt x="100" y="-339" on="1"/>
        <pt x="100" y="-128" on="1"/>
        <pt x="324" y="-128" on="1"/>
        <pt x="324" y="1493" on="1"/>
        <pt x="100" y="1493" on="1"/>
      </contour>
    </TTGlyph>
    <TTGlyph name="colon" xMin="156" yMin="-27" xMax="506" yMax="1139">
      <contour>
        <pt x="332" y="1139" on="1"/>
        <pt x="413" y="1139" on="0"/>
        <pt x="506" y="1053" on="0"/>
        <pt x="506" y="969" on="1"/>
        <pt x="506" y="887" on="0"/>
        <pt x="412" y="799" on="0"/>
        <pt x="332" y="799" on="1"/>
        <pt x="249" y="799" on="0"/>
        <pt x="156" y="886" on="0"/>
        <pt x="156" y="969" on="1"/>
        <pt x="156" y="1054" on="0"/>
        <pt x="248" y="1139" on="0"/>
      </contour>
      <contour>
        <pt x="332" y="313" on="1"/>
        <pt x="413" y="313" on="0"/>
        <pt x="506" y="227" on="0"/>
        <pt x="506" y="143" on="1"/>
        <pt x="506" y="63" on="0"/>
        <pt x="412" y="-27" on="0"/>
        <pt x="332" y="-27" on="1"/>
        <pt x="249" y="-27" on="0"/>
        <pt x="156" y="62" on="0"/>
        <pt x="156" y="143" on="1"/>
        <pt x="156" y="228" on="0"/>
        <pt x="248" y="313" on="0"/>
      </contour>
    </TTGlyph>
    <TTGlyph name="comma" xMin="63" yMin="-244" xMax="459" yMax="288">
      <contour>
        <pt x="444" y="288" on="1"/>
        <pt x="459" y="264" on="1"/>
        <pt x="410" y="58" on="0"/>
        <pt x="283" y="-244" on="1"/>
        <pt x="63" y="-244" on="1"/>
        <pt x="138" y="88" on="0"/>
        <pt x="163" y="288" on="1"/>
      </contour>
    </TTGlyph>
    <TTGlyph name="divide" xMin="160" yMin="161" xMax="1112" yMax="1163">
      <contour>
        <pt x="635" y="1163" on="1"/>
        <pt x="701" y="1163" on="0"/>
        <pt x="774" y="1084" on="0"/>
        <pt x="774" y="1011" on="1"/>
        <pt x="774" y="941" on="0"/>
        <pt x="699" y="860" on="0"/>
        <pt x="635" y="860" on="1"/>
        <pt x="571" y="860" on="0"/>
        <pt x="496" y="939" on="0"/>
        <pt x="496" y="1011" on="1"/>
        <pt x="496" y="1086" on="0"/>
        <pt x="569" y="1163" on="0"/>
      </contour>
      <contour>
        <pt x="160" y="552" on="1"/>
        <pt x="160" y="771" on="1"/>
        <pt x="1112" y="771" on="1"/>
        <pt x="1112" y="552" on="1"/>
      </contour>
      <contour>
        <pt x="635" y="464" on="1"/>
        <pt x="700" y="464" on="0"/>
        <pt x="774" y="387" on="0"/>
        <pt x="774" y="313" on="1"/>
        <pt x="774" y="242" on="0"/>
        <pt x="700" y="161" on="0"/>
        <pt x="635" y="161" on="1"/>
        <pt x="570" y="161" on="0"/>
        <pt x="496" y="240" on="0"/>
        <pt x="496" y="313" on="1"/>
        <pt x="496" y="389" on="0"/>
        <pt x="570" y="464" on="0"/>
      </contour>
    </TTGlyph>
    <TTGlyph name="eight" xMin="72" yMin="-20" xMax="1057" yMax="1481">
      <contour>
        <pt x="750" y="772" on="1"/>
        <pt x="913" y="685" on="0"/>
        <pt x="1057" y="495" on="0"/>
        <pt x="1057" y="379" on="1"/>
        <pt x="1057" y="200" on="0"/>
        <pt x="787" y="-20" on="0"/>
        <pt x="565" y="-20" on="1"/>
        <pt x="333" y="-20" on="0"/>
        <pt x="72" y="185" on="0"/>
        <pt x="72" y="371" on="1"/>
        <pt x="72" y="499" on="0"/>
        <pt x="212" y="696" on="0"/>
        <pt x="352" y="764" on="1"/>
        <pt x="227" y="843" on="0"/>
        <pt x="117" y="1023" on="0"/>
        <pt x="117" y="1130" on="1"/>
        <pt x="117" y="1290" on="0"/>
        <pt x="369" y="1481" on="0"/>
        <pt x="565" y="1481" on="1"/>
        <pt x="763" y="1481" on="0"/>
        <pt x="1012" y="1291" on="0"/>
        <pt x="1012" y="1128" on="1"/>
        <pt x="1012" y="1017" on="0"/>
        <pt x="888" y="841" on="0"/>
      </contour>
      <contour>
        <pt x="565" y="901" on="1"/>
        <pt x="648" y="944" on="0"/>
        <pt x="721" y="1043" on="0"/>
        <pt x="721" y="1106" on="1"/>
        <pt x="721" y="1174" on="0"/>
        <pt x="634" y="1255" on="0"/>
        <pt x="563" y="1255" on="1"/>
        <pt x="493" y="1255" on="0"/>
        <pt x="408" y="1173" on="0"/>
        <pt x="408" y="1106" on="1"/>
        <pt x="408" y="1044" on="0"/>
        <pt x="470" y="953" on="0"/>
      </contour>
      <contour>
        <pt x="553" y="637" on="1"/>
        <pt x="358" y="541" on="0"/>
        <pt x="358" y="389" on="1"/>
        <pt x="358" y="305" on="0"/>
        <pt x="466" y="207" on="0"/>
        <pt x="561" y="207" on="1"/>
        <pt x="666" y="207" on="0"/>
        <pt x="770" y="306" on="0"/>
        <pt x="770" y="387" on="1"/>
        <pt x="770" y="431" on="0"/>
        <pt x="728" y="508" on="0"/>
        <pt x="655" y="573" on="0"/>
        <pt x="575" y="623" on="1"/>
      </contour>
    </TTGlyph>
    <TTGlyph name="ellipsis" xMin="117" yMin="-27" xMax="1634" yMax="313">
      <contour>
        <pt x="293" y="313" on="1"/>
        <pt x="374" y="313" on="0"/>
        <pt x="467" y="227" on="0"/>
        <pt x="467" y="143" on="1"/>
        <pt x="467" y="63" on="0"/>
        <pt x="373" y="-27" on="0"/>
        <pt x="293" y="-27" on="1"/>
        <pt x="210" y="-27" on="0"/>
        <pt x="117" y="62" on="0"/>
        <pt x="117" y="143" on="1"/>
        <pt x="117" y="228" on="0"/>
        <pt x="209" y="313" on="0"/>
      </contour>
      <contour>
        <pt x="877" y="313" on="1"/>
        <pt x="958" y="313" on="0"/>
        <pt x="1051" y="227" on="0"/>
        <pt x="1051" y="143" on="1"/>
        <pt x="1051" y="63" on="0"/>
        <pt x="957" y="-27" on="0"/>
        <pt x="877" y="-27" on="1"/>
        <pt x="793" y="-27" on="0"/>
        <pt x="700" y="61" on="0"/>
        <pt x="700" y="143" on="1"/>
        <pt x="700" y="228" on="0"/>
        <pt x="792" y="313" on="0"/>
      </contour>
      <contour>
        <pt x="1460" y="313" on="1"/>
        <pt x="1541" y="313" on="0"/>
        <pt x="1634" y="227" on="0"/>
        <pt x="1634" y="143" on="1"/>
        <pt x="1634" y="63" on="0"/>
        <pt x="1540" y="-27" on="0"/>
        <pt x="1460" y="-27" on="1"/>
        <pt x="1377" y="-27" on="0"/>
        <pt x="1284" y="62" on="0"/>
        <pt x="1284" y="143" on="1"/>
        <pt x="1284" y="228" on="0"/>
        <pt x="1376" y="313" on="0"/>
      </contour>
    </TTGlyph>
    <TTGlyph name="emdash" xMin="82" yMin="496" xMax="1966" yMax="726">
      <contour>
        <pt x="82" y="496" on="1"/>
        <pt x="82" y="726" on="1"/>
        <pt x="1966" y="726" on="1"/>
        <pt x="1966" y="496" on="1"/>
      </contour>
    </TTGlyph>
    <TTGlyph name="endash" xMin="82" yMin="496" xMax="942" yMax="726">
      <contour>
        <pt x="82" y="496" on="1"/>
        <pt x="82" y="726" on="1"/>
        <pt x="942" y="726" on="1"/>
        <pt x="942" y="496" on="1"/>
      </contour>
    </TTGlyph>
    <TTGlyph name="equal" xMin="160" yMin="358" xMax="1112" yMax="964">
      <contour>
        <pt x="160" y="747" on="1"/>
        <pt x="160" y="964" on="1"/>
        <pt x="1112" y="964" on="1"/>
        <pt x="1112" y="747" on="1"/>
      </contour>
      <contour>
        <pt x="160" y="358" on="1"/>
        <pt x="160" y="577" on="1"/>
        <pt x="1112" y="577" on="1"/>
        <pt x="1112" y="358" on="1"/>
      </contour>
    </TTGlyph>
    <TTGlyph name="exclam" xMin="271" yMin="-27" xMax="621" yMax="1462">
      <contour>
        <pt x="570" y="485" on="1"/>
        <pt x="326" y="485" on="1"/>
        <pt x="275" y="1462" on="1"/>
        <pt x="621" y="1462" on="1"/>
      </contour>
      <contour>
        <pt x="447" y="313" on="1"/>
        <pt x="528" y="313" on="0"/>
        <pt x="621" y="227" on="0"/>
        <pt x="621" y="143" on="1"/>
        <pt x="621" y="63" on="0"/>
        <pt x="527" y="-27" on="0"/>
        <pt x="447" y="-27" on="1"/>
        <pt x="364" y="-27" on="0"/>
        <pt x="271" y="62" on="0"/>
        <pt x="271" y="143" on="1"/>
        <pt x="271" y="228" on="0"/>
        <pt x="363" y="313" on="0"/>
      </contour>
    </TTGlyph>
    <TTGlyph name="five" xMin="86" yMin="-20" xMax="1042" yMax="1462">
      <contour>
        <pt x="86" y="59" on="1"/>
        <pt x="86" y="326" on="1"/>
        <pt x="161" y="284" on="0"/>
        <pt x="373" y="231" on="0"/>
        <pt x="457" y="231" on="1"/>
        <pt x="591" y="231" on="0"/>
        <pt x="731" y="342" on="0"/>
        <pt x="731" y="463" on="1"/>
        <pt x="731" y="684" on="0"/>
        <pt x="451" y="684" on="1"/>
        <pt x="400" y="684" on="0"/>
        <pt x="269" y="661" on="0"/>
        <pt x="238" y="651" on="1"/>
        <pt x="115" y="717" on="1"/>
        <pt x="170" y="1462" on="1"/>
        <pt x="942" y="1462" on="1"/>
        <pt x="942" y="1200" on="1"/>
        <pt x="438" y="1200" on="1"/>
        <pt x="414" y="913" on="1"/>
        <pt x="447" y="920" on="0"/>
        <pt x="531" y="934" on="0"/>
        <pt x="598" y="934" on="1"/>
        <pt x="795" y="934" on="0"/>
        <pt x="1042" y="696" on="0"/>
        <pt x="1042" y="489" on="1"/>
        <pt x="1042" y="247" on="0"/>
        <pt x="744" y="-20" on="0"/>
        <pt x="473" y="-20" on="1"/>
        <pt x="362" y="-20" on="0"/>
        <pt x="158" y="19" on="0"/>
      </contour>
    </TTGlyph>
    <TTGlyph name="four" xMin="4" yMin="0" xMax="1085" yMax="1462">
      <contour>
        <pt x="1085" y="303" on="1"/>
        <pt x="909" y="303" on="1"/>
        <pt x="909" y="0" on="1"/>
        <pt x="608" y="0" on="1"/>
        <pt x="608" y="303" on="1"/>
        <pt x="4" y="303" on="1"/>
        <pt x="4" y="518" on="1"/>
        <pt x="625" y="1462" on="1"/>
        <pt x="909" y="1462" on="1"/>
        <pt x="909" y="543" on="1"/>
        <pt x="1085" y="543" on="1"/>
      </contour>
      <contour>
        <pt x="608" y="543" on="1"/>
        <pt x="608" y="791" on="1"/>
        <pt x="608" y="843" on="0"/>
        <pt x="617" y="1053" on="0"/>
        <pt x="621" y="1096" on="1"/>
        <pt x="612" y="1096" on="1"/>
        <pt x="564" y="985" on="0"/>
        <pt x="520" y="913" on="1"/>
        <pt x="276" y="543" on="1"/>
      </contour>
    </TTGlyph>
    <TTGlyph name="glyph00096" xMin="-21" yMin="-24" xMax="1777" yMax="1274">
      <component glyphName="uni0995" x="0" y="0" flags="0x204"/>
      <component glyphName="uni09BC" x="1009" y="397" flags="0x4"/>
    </TTGlyph>
    <TTGlyph name="glyph00097" xMin="90" yMin="-24" xMax="1554" yMax="1409">
      <component glyphName="uni0996" x="0" y="0" flags="0x204"/>
      <component glyphName="uni09BC" x="1209" y="397" flags="0x4"/>
    </TTGlyph>
    <TTGlyph name="glyph00098" xMin="31" yMin="-94" xMax="1454" yMax="1409">
      <component glyphName="uni0997" x="0" y="0" flags="0x204"/>
      <component glyphName="uni09BC" x="1176" y="327" flags="0x4"/>
    </TTGlyph>
    <TTGlyph name="glyph00099" xMin="-21" yMin="-54" xMax="1376" yMax="1274">
      <component glyphName="uni0998" x="0" y="0" flags="0x204"/>
      <component glyphName="uni09BC" x="1009" y="367" flags="0x4"/>
    </TTGlyph>
    <TTGlyph name="glyph00100" xMin="32" yMin="-421" xMax="1464" yMax="1287">
      <component glyphName="uni0999" x="0" y="0" flags="0x204"/>
      <component glyphName="uni09BC" x="1429" y="0" flags="0x4"/>
    </TTGlyph>
    <TTGlyph name="glyph00101" xMin="-21" yMin="-421" xMax="1235" yMax="1274">
      <component glyphName="uni099A" x="0" y="0" flags="0x204"/>
      <component glyphName="uni09BC" x="1259" y="0" flags="0x4"/>
    </TTGlyph>
    <TTGlyph name="glyph00102" xMin="-21" yMin="-361" xMax="1522" yMax="1274">
      <component glyphName="uni099B" x="0" y="0" flags="0x204"/>
      <component glyphName="uni09BC" x="1403" y="60" flags="0x4"/>
    </TTGlyph>
    <TTGlyph name="glyph00103" xMin="-21" yMin="-344" xMax="2072" yMax="1274">
      <component glyphName="uni099C" x="0" y="0" flags="0x204"/>
      <component glyphName="uni09BC" x="1661" y="77" flags="0x4"/>
    </TTGlyph>
    <TTGlyph name="glyph00104" xMin="-21" yMin="-24" xMax="1769" yMax="1409">
      <component glyphName="uni099D" x="0" y="0" flags="0x204"/>
      <component glyphName="uni09BC" x="1009" y="397" flags="0x4"/>
    </TTGlyph>
    <TTGlyph name="glyph00105" xMin="64" yMin="-341" xMax="2102" yMax="1286">
      <component glyphName="uni099E" x="0" y="0" flags="0x204"/>
      <component glyphName="uni09BC" x="1509" y="80" flags="0x4"/>
    </TTGlyph>
    <TTGlyph name="glyph00106" xMin="-21" yMin="-421" xMax="1235" yMax="1868">
      <component glyphName="uni099F" x="0" y="0" flags="0x204"/>
      <component glyphName="uni09BC" x="1259" y="0" flags="0x4"/>
    </TTGlyph>
    <TTGlyph name="glyph00107" xMin="-21" yMin="-421" xMax="1319" yMax="1878">
      <component glyphName="uni09A0" x="0" y="0" flags="0x204"/>
      <component glyphName="uni09BC" x="1305" y="0" flags="0x4"/>
    </TTGlyph>
    <TTGlyph name="glyph00108" xMin="75" yMin="-24" xMax="1335" yMax="1409">
      <component glyphName="uni09A3" x="0" y="0" flags="0x204"/>
      <component glyphName="uni09BC" x="1146" y="397" flags="0x4"/>
    </TTGlyph>
    <TTGlyph name="glyph00109" xMin="-21" yMin="-371" xMax="1521" yMax="1274">
      <component glyphName="uni09A4" x="0" y="0" flags="0x204"/>
      <component glyphName="uni09BC" x="1416" y="50" flags="0x4"/>
    </TTGlyph>
    <TTGlyph name="glyph00110" xMin="75" yMin="-24" xMax="1492" yMax="1409">
      <component glyphName="uni09A5" x="0" y="0" flags="0x204"/>
      <component glyphName="uni09BC" x="1137" y="397" flags="0x4"/>
    </TTGlyph>
    <TTGlyph name="glyph00111" xMin="-21" yMin="-276" xMax="1330" yMax="1274">
      <component glyphName="uni09A6" x="0" y="0" flags="0x204"/>
      <component glyphName="uni09BC" x="1252" y="145" flags="0x4"/>
    </TTGlyph>
    <TTGlyph name="glyph00112" xMin="33" yMin="-24" xMax="1309" yMax="1288">
      <component glyphName="uni09A7" x="0" y="0" flags="0x204"/>
      <component glyphName="uni09BC" x="1009" y="397" flags="0x4"/>
    </TTGlyph>
    <TTGlyph name="glyph00113" xMin="-21" yMin="-249" xMax="1319" yMax="1274">
      <component glyphName="uni09A8" x="0" y="0" flags="0x204"/>
      <component glyphName="uni09BC" x="1139" y="172" flags="0x4"/>
    </TTGlyph>
    <TTGlyph name="glyph00114" xMin="27" yMin="-64" xMax="1588" yMax="1409">
      <component glyphName="uni09AA" x="0" y="0" flags="0x204"/>
      <component glyphName="uni09BC" x="1176" y="357" flags="0x4"/>
    </TTGlyph>
    <TTGlyph name="glyph00115" xMin="-21" yMin="-54" xMax="1834" yMax="1274">
      <component glyphName="uni09AB" x="0" y="0" flags="0x204"/>
      <component glyphName="uni09BC" x="1014" y="367" flags="0x4"/>
    </TTGlyph>
    <TTGlyph name="glyph00116" xMin="-21" yMin="-371" xMax="1558" yMax="1274">
      <component glyphName="uni09AD" x="0" y="0" flags="0x204"/>
      <component glyphName="uni09BC" x="1439" y="50" flags="0x4"/>
    </TTGlyph>
    <TTGlyph name="glyph00117" xMin="-21" yMin="-279" xMax="1342" yMax="1274">
      <component glyphName="uni09AE" x="0" y="0" flags="0x204"/>
      <component glyphName="uni09BC" x="1156" y="142" flags="0x4"/>
    </TTGlyph>
    <TTGlyph name="glyph00118" xMin="-21" yMin="-100" xMax="1611" yMax="1274">
      <component glyphName="uni09B2" x="0" y="0" flags="0x204"/>
      <component glyphName="uni09BC" x="1401" y="321" flags="0x4"/>
    </TTGlyph>
    <TTGlyph name="glyph00119" xMin="-24" yMin="-24" xMax="1484" yMax="1409">
      <component glyphName="uni09B6" x="0" y="0" flags="0x204"/>
      <component glyphName="uni09BC" x="1186" y="397" flags="0x4"/>
    </TTGlyph>
    <TTGlyph name="glyph00120" xMin="-21" yMin="-54" xMax="1397" yMax="1274">
      <component glyphName="uni09B7" x="0" y="0" flags="0x204"/>
      <component glyphName="uni09BC" x="1014" y="367" flags="0x4"/>
    </TTGlyph>
    <TTGlyph name="glyph00121" xMin="-21" yMin="-180" xMax="1470" yMax="1274">
      <component glyphName="uni09B8" x="0" y="0" flags="0x204"/>
      <component glyphName="uni09BC" x="1130" y="241" flags="0x4"/>
    </TTGlyph>
    <TTGlyph name="glyph00122" xMin="-21" yMin="-269" xMax="1196" yMax="1274">
      <component glyphName="uni09B9" x="0" y="0" flags="0x204"/>
      <component glyphName="uni09BC" x="1124" y="152" flags="0x4"/>
    </TTGlyph>
    <TTGlyph name="glyph00123" xMin="-21" yMin="-24" xMax="1323" yMax="1274">
      <component glyphName="uni09F0" x="0" y="0" flags="0x204"/>
      <component glyphName="uni09BC" x="1009" y="397" flags="0x4"/>
    </TTGlyph>
    <TTGlyph name="glyph00124" xMin="-21" yMin="-282" xMax="1309" yMax="1274">
      <component glyphName="uni09F1" x="0" y="0" flags="0x204"/>
      <component glyphName="uni09BC" x="948" y="139" flags="0x4"/>
    </TTGlyph>
    <TTGlyph name="glyph00125" xMin="-21" yMin="0" xMax="2074" yMax="1274">
      <contour>
        <pt x="1164" y="0" on="1"/>
        <pt x="1164" y="132" on="1"/>
        <pt x="1070" y="255" on="0"/>
        <pt x="914" y="364" on="0"/>
        <pt x="839" y="364" on="1"/>
        <pt x="782" y="364" on="0"/>
        <pt x="727" y="318" on="0"/>
        <pt x="727" y="279" on="1"/>
        <pt x="727" y="237" on="0"/>
        <pt x="758" y="188" on="1"/>
        <pt x="515" y="100" on="1"/>
        <pt x="451" y="210" on="0"/>
        <pt x="451" y="333" on="1"/>
        <pt x="451" y="416" on="0"/>
        <pt x="559" y="540" on="0"/>
        <pt x="657" y="570" on="1"/>
        <pt x="622" y="642" on="0"/>
        <pt x="507" y="720" on="0"/>
        <pt x="439" y="720" on="1"/>
        <pt x="386" y="720" on="0"/>
        <pt x="331" y="674" on="0"/>
        <pt x="331" y="635" on="1"/>
        <pt x="331" y="590" on="0"/>
        <pt x="362" y="544" on="1"/>
        <pt x="119" y="456" on="1"/>
        <pt x="55" y="566" on="0"/>
        <pt x="55" y="689" on="1"/>
        <pt x="55" y="783" on="0"/>
        <pt x="181" y="908" on="0"/>
        <pt x="297" y="932" on="1"/>
        <pt x="272" y="997" on="0"/>
        <pt x="219" y="1048" on="1"/>
        <pt x="-21" y="1048" on="1"/>
        <pt x="-21" y="1274" on="1"/>
        <pt x="2074" y="1274" on="1"/>
        <pt x="2074" y="1048" on="1"/>
        <pt x="1434" y="1048" on="1"/>
        <pt x="1434" y="862" on="1"/>
        <pt x="1732" y="859" on="0"/>
        <pt x="1992" y="661" on="0"/>
        <pt x="1992" y="495" on="1"/>
        <pt x="1992" y="373" on="0"/>
        <pt x="1829" y="214" on="0"/>
        <pt x="1681" y="214" on="1"/>
        <pt x="1618" y="214" on="0"/>
        <pt x="1555" y="225" on="1"/>
        <pt x="1565" y="451" on="1"/>
        <pt x="1590" y="447" on="0"/>
        <pt x="1623" y="447" on="1"/>
        <pt x="1671" y="447" on="0"/>
        <pt x="1722" y="480" on="0"/>
        <pt x="1722" y="519" on="1"/>
        <pt x="1722" y="579" on="0"/>
        <pt x="1578" y="640" on="0"/>
        <pt x="1434" y="640" on="1"/>
        <pt x="1434" y="0" on="1"/>
      </contour>
      <contour>
        <pt x="1168" y="404" on="1"/>
        <pt x="1164" y="436" on="0"/>
        <pt x="1164" y="545" on="1"/>
        <pt x="1164" y="645" on="1"/>
        <pt x="969" y="663" on="0"/>
        <pt x="784" y="859" on="0"/>
        <pt x="784" y="1026" on="1"/>
        <pt x="784" y="1048" on="1"/>
        <pt x="504" y="1048" on="1"/>
        <pt x="546" y="984" on="0"/>
        <pt x="555" y="923" on="1"/>
        <pt x="688" y="883" on="0"/>
        <pt x="879" y="691" on="0"/>
        <pt x="900" y="574" on="1"/>
        <pt x="1047" y="540" on="0"/>
      </contour>
      <contour>
        <pt x="1031" y="1048" on="1"/>
        <pt x="1031" y="1034" on="1"/>
        <pt x="1031" y="958" on="0"/>
        <pt x="1097" y="876" on="0"/>
        <pt x="1169" y="867" on="1"/>
        <pt x="1169" y="1048" on="1"/>
      </contour>
      <contour>
        <pt x="1164" y="1274" on="1"/>
      </contour>
    </TTGlyph>
    <TTGlyph name="glyph00126" xMin="-21" yMin="0" xMax="2173" yMax="1274">
      <contour>
        <pt x="1227" y="1048" on="1"/>
        <pt x="1238" y="923" on="0"/>
        <pt x="1330" y="804" on="1"/>
        <pt x="1420" y="908" on="0"/>
        <pt x="1607" y="1007" on="0"/>
        <pt x="1737" y="1007" on="1"/>
        <pt x="1877" y="1007" on="0"/>
        <pt x="2044" y="867" on="0"/>
        <pt x="2044" y="754" on="1"/>
        <pt x="2044" y="633" on="0"/>
        <pt x="1950" y="547" on="1"/>
        <pt x="2055" y="468" on="0"/>
        <pt x="2055" y="340" on="1"/>
        <pt x="2055" y="222" on="0"/>
        <pt x="1879" y="77" on="0"/>
        <pt x="1719" y="77" on="1"/>
        <pt x="1602" y="77" on="0"/>
        <pt x="1423" y="172" on="0"/>
        <pt x="1356" y="273" on="1"/>
        <pt x="1297" y="162" on="0"/>
        <pt x="1077" y="51" on="0"/>
        <pt x="915" y="51" on="1"/>
        <pt x="562" y="51" on="0"/>
        <pt x="146" y="465" on="0"/>
        <pt x="32" y="877" on="1"/>
        <pt x="289" y="948" on="1"/>
        <pt x="384" y="614" on="0"/>
        <pt x="667" y="286" on="0"/>
        <pt x="879" y="286" on="1"/>
        <pt x="1013" y="286" on="0"/>
        <pt x="1154" y="399" on="0"/>
        <pt x="1154" y="504" on="1"/>
        <pt x="1154" y="543" on="0"/>
        <pt x="1146" y="575" on="1"/>
        <pt x="1074" y="518" on="0"/>
        <pt x="924" y="468" on="0"/>
        <pt x="827" y="468" on="1"/>
        <pt x="698" y="468" on="0"/>
        <pt x="549" y="616" on="0"/>
        <pt x="549" y="742" on="1"/>
        <pt x="549" y="830" on="0"/>
        <pt x="664" y="988" on="0"/>
        <pt x="773" y="1051" on="1"/>
        <pt x="698" y="1048" on="0"/>
        <pt x="596" y="1048" on="1"/>
        <pt x="-21" y="1048" on="1"/>
        <pt x="-21" y="1274" on="1"/>
        <pt x="2173" y="1274" on="1"/>
        <pt x="2173" y="1048" on="1"/>
      </contour>
      <contour>
        <pt x="1060" y="766" on="1"/>
        <pt x="1001" y="861" on="0"/>
        <pt x="978" y="955" on="1"/>
        <pt x="893" y="909" on="0"/>
        <pt x="809" y="823" on="0"/>
        <pt x="809" y="775" on="1"/>
        <pt x="809" y="694" on="0"/>
        <pt x="891" y="694" on="1"/>
        <pt x="937" y="694" on="0"/>
        <pt x="1018" y="733" on="0"/>
      </contour>
      <contour>
        <pt x="1617" y="621" on="1"/>
        <pt x="1789" y="649" on="0"/>
        <pt x="1789" y="732" on="1"/>
        <pt x="1789" y="800" on="0"/>
        <pt x="1699" y="800" on="1"/>
        <pt x="1615" y="800" on="0"/>
        <pt x="1462" y="678" on="0"/>
        <pt x="1404" y="571" on="1"/>
        <pt x="1443" y="433" on="0"/>
        <pt x="1594" y="284" on="0"/>
        <pt x="1688" y="284" on="1"/>
        <pt x="1800" y="284" on="0"/>
        <pt x="1800" y="370" on="1"/>
        <pt x="1800" y="413" on="0"/>
        <pt x="1765" y="448" on="1"/>
        <pt x="1718" y="433" on="0"/>
        <pt x="1665" y="423" on="1"/>
      </contour>
      <contour>
        <pt x="1225" y="1274" on="1"/>
      </contour>
      <contour>
        <pt x="1483" y="0" on="1"/>
      </contour>
    </TTGlyph>
    <TTGlyph name="glyph00127" xMin="-599" yMin="1274" xMax="227" yMax="1878">
      <contour>
        <pt x="-599" y="1524" on="1"/>
        <pt x="118" y="1878" on="1"/>
        <pt x="227" y="1688" on="1"/>
        <pt x="-483" y="1318" on="1"/>
      </contour>
      <contour>
        <pt x="-447" y="1274" on="1"/>
      </contour>
    </TTGlyph>
    <TTGlyph name="glyph00128" xMin="-1519" yMin="-478" xMax="-177" yMax="376">
      <contour>
        <pt x="-177" y="-478" on="1"/>
        <pt x="-443" y="-478" on="1"/>
        <pt x="-468" y="-418" on="0"/>
        <pt x="-577" y="-360" on="0"/>
        <pt x="-668" y="-360" on="1"/>
        <pt x="-744" y="-360" on="0"/>
        <pt x="-868" y="-377" on="1"/>
        <pt x="-991" y="-395" on="0"/>
        <pt x="-1082" y="-395" on="1"/>
        <pt x="-1295" y="-395" on="0"/>
        <pt x="-1519" y="-208" on="0"/>
        <pt x="-1519" y="-24" on="1"/>
        <pt x="-1519" y="58" on="0"/>
        <pt x="-1500" y="118" on="1"/>
        <pt x="-1240" y="85" on="1"/>
        <pt x="-1256" y="38" on="0"/>
        <pt x="-1256" y="-9" on="1"/>
        <pt x="-1256" y="-91" on="0"/>
        <pt x="-1145" y="-168" on="0"/>
        <pt x="-1026" y="-168" on="1"/>
        <pt x="-962" y="-168" on="0"/>
        <pt x="-857" y="-150" on="1"/>
        <pt x="-752" y="-133" on="0"/>
        <pt x="-692" y="-133" on="1"/>
        <pt x="-529" y="-133" on="0"/>
        <pt x="-447" y="-244" on="1"/>
        <pt x="-447" y="247" on="1"/>
        <pt x="-177" y="376" on="1"/>
      </contour>
    </TTGlyph>
    <TTGlyph name="glyph00129" xMin="-1020" yMin="-548" xMax="-177" yMax="148">
      <contour>
        <pt x="-177" y="148" on="1"/>
        <pt x="-177" y="-548" on="1"/>
        <pt x="-447" y="-548" on="1"/>
        <pt x="-568" y="-446" on="0"/>
        <pt x="-771" y="-355" on="0"/>
        <pt x="-924" y="-327" on="1"/>
        <pt x="-1020" y="-108" on="1"/>
        <pt x="-748" y="44" on="0"/>
        <pt x="-447" y="148" on="1"/>
      </contour>
      <contour>
        <pt x="-447" y="-73" on="1"/>
        <pt x="-577" y="-111" on="0"/>
        <pt x="-740" y="-188" on="1"/>
        <pt x="-550" y="-232" on="0"/>
        <pt x="-440" y="-330" on="1"/>
        <pt x="-447" y="-246" on="0"/>
        <pt x="-447" y="-178" on="1"/>
      </contour>
    </TTGlyph>
    <TTGlyph name="glyph00130" xMin="-21" yMin="245" xMax="1516" yMax="1274">
      <contour>
        <pt x="983" y="1048" on="1"/>
        <pt x="983" y="1025" on="1"/>
        <pt x="1227" y="987" on="0"/>
        <pt x="1486" y="776" on="0"/>
        <pt x="1486" y="619" on="1"/>
        <pt x="1486" y="509" on="0"/>
        <pt x="1336" y="379" on="0"/>
        <pt x="1200" y="379" on="1"/>
        <pt x="1125" y="379" on="0"/>
        <pt x="1074" y="390" on="1"/>
        <pt x="1084" y="596" on="1"/>
        <pt x="1112" y="592" on="0"/>
        <pt x="1135" y="592" on="1"/>
        <pt x="1226" y="592" on="0"/>
        <pt x="1226" y="656" on="1"/>
        <pt x="1226" y="710" on="0"/>
        <pt x="1101" y="797" on="0"/>
        <pt x="986" y="817" on="1"/>
        <pt x="986" y="245" on="1"/>
        <pt x="716" y="245" on="1"/>
        <pt x="591" y="364" on="0"/>
        <pt x="332" y="488" on="0"/>
        <pt x="130" y="521" on="1"/>
        <pt x="33" y="752" on="1"/>
        <pt x="420" y="945" on="0"/>
        <pt x="720" y="1026" on="1"/>
        <pt x="720" y="1048" on="1"/>
        <pt x="-21" y="1048" on="1"/>
        <pt x="-21" y="1274" on="1"/>
        <pt x="1516" y="1274" on="1"/>
        <pt x="1516" y="1048" on="1"/>
      </contour>
      <contour>
        <pt x="716" y="811" on="1"/>
        <pt x="518" y="751" on="0"/>
        <pt x="341" y="671" on="1"/>
        <pt x="570" y="619" on="0"/>
        <pt x="722" y="483" on="1"/>
        <pt x="720" y="520" on="1"/>
        <pt x="716" y="573" on="0"/>
        <pt x="716" y="621" on="1"/>
      </contour>
    </TTGlyph>
    <TTGlyph name="glyph00131" xMin="90" yMin="-555" xMax="1796" yMax="1409">
      <component glyphName="uni0996" x="0" y="0" flags="0x204"/>
      <component glyphName="uni09CD" x="1533" y="0" flags="0x4"/>
    </TTGlyph>
    <TTGlyph name="glyph00132" xMin="31" yMin="403" xMax="1185" yMax="1288">
      <contour>
        <pt x="1028" y="801" on="1"/>
        <pt x="911" y="939" on="0"/>
        <pt x="702" y="1062" on="0"/>
        <pt x="596" y="1062" on="1"/>
        <pt x="519" y="1062" on="0"/>
        <pt x="393" y="1021" on="0"/>
        <pt x="329" y="967" on="1"/>
        <pt x="407" y="995" on="0"/>
        <pt x="510" y="995" on="1"/>
        <pt x="626" y="995" on="0"/>
        <pt x="776" y="869" on="0"/>
        <pt x="776" y="776" on="1"/>
        <pt x="776" y="666" on="0"/>
        <pt x="612" y="488" on="0"/>
        <pt x="433" y="403" on="1"/>
        <pt x="293" y="605" on="1"/>
        <pt x="393" y="641" on="0"/>
        <pt x="521" y="720" on="0"/>
        <pt x="521" y="770" on="1"/>
        <pt x="521" y="799" on="0"/>
        <pt x="477" y="831" on="0"/>
        <pt x="438" y="831" on="1"/>
        <pt x="346" y="831" on="0"/>
        <pt x="234" y="775" on="1"/>
        <pt x="31" y="938" on="1"/>
        <pt x="171" y="1124" on="0"/>
        <pt x="431" y="1288" on="0"/>
        <pt x="584" y="1288" on="1"/>
        <pt x="723" y="1288" on="0"/>
        <pt x="978" y="1157" on="0"/>
        <pt x="1185" y="955" on="1"/>
      </contour>
    </TTGlyph>
    <TTGlyph name="glyph00133" xMin="-21" yMin="-555" xMax="1618" yMax="1274">
      <component glyphName="uni0998" x="0" y="0" flags="0x204"/>
      <component glyphName="uni09CD" x="1355" y="0" flags="0x4"/>
    </TTGlyph>
    <TTGlyph name="glyph00134" xMin="-21" yMin="245" xMax="1413" yMax="1274">
      <contour>
        <pt x="1138" y="1048" on="1"/>
        <pt x="1140" y="1033" on="0"/>
        <pt x="1140" y="1019" on="1"/>
        <pt x="1140" y="912" on="0"/>
        <pt x="974" y="811" on="0"/>
        <pt x="801" y="811" on="1"/>
        <pt x="748" y="811" on="0"/>
        <pt x="689" y="822" on="1"/>
        <pt x="691" y="776" on="0"/>
        <pt x="741" y="730" on="0"/>
        <pt x="798" y="730" on="1"/>
        <pt x="878" y="730" on="0"/>
        <pt x="1019" y="792" on="0"/>
        <pt x="1098" y="854" on="1"/>
        <pt x="1284" y="841" on="1"/>
        <pt x="1309" y="796" on="0"/>
        <pt x="1339" y="676" on="0"/>
        <pt x="1339" y="623" on="1"/>
        <pt x="1339" y="445" on="0"/>
        <pt x="1057" y="245" on="0"/>
        <pt x="809" y="245" on="1"/>
        <pt x="504" y="245" on="0"/>
        <pt x="134" y="550" on="0"/>
        <pt x="32" y="858" on="1"/>
        <pt x="285" y="931" on="1"/>
        <pt x="354" y="686" on="0"/>
        <pt x="586" y="461" on="0"/>
        <pt x="786" y="461" on="1"/>
        <pt x="927" y="461" on="0"/>
        <pt x="1086" y="555" on="0"/>
        <pt x="1089" y="642" on="1"/>
        <pt x="954" y="548" on="0"/>
        <pt x="788" y="548" on="1"/>
        <pt x="638" y="548" on="0"/>
        <pt x="473" y="695" on="0"/>
        <pt x="473" y="820" on="1"/>
        <pt x="473" y="946" on="0"/>
        <pt x="544" y="1050" on="1"/>
        <pt x="516" y="1048" on="0"/>
        <pt x="447" y="1048" on="1"/>
        <pt x="-21" y="1048" on="1"/>
        <pt x="-21" y="1274" on="1"/>
        <pt x="1413" y="1274" on="1"/>
        <pt x="1413" y="1048" on="1"/>
      </contour>
      <contour>
        <pt x="722" y="976" on="1"/>
        <pt x="763" y="965" on="0"/>
        <pt x="809" y="965" on="1"/>
        <pt x="873" y="965" on="0"/>
        <pt x="934" y="999" on="0"/>
        <pt x="934" y="1037" on="1"/>
        <pt x="934" y="1087" on="0"/>
        <pt x="866" y="1087" on="1"/>
        <pt x="825" y="1087" on="0"/>
        <pt x="749" y="1028" on="0"/>
      </contour>
    </TTGlyph>
    <TTGlyph name="glyph00135" xMin="-21" yMin="245" xMax="1093" yMax="1274">
      <contour>
        <pt x="420" y="1032" on="1"/>
        <pt x="478" y="968" on="0"/>
        <pt x="619" y="913" on="0"/>
        <pt x="713" y="913" on="1"/>
        <pt x="775" y="913" on="1"/>
        <pt x="846" y="913" on="0"/>
        <pt x="927" y="898" on="0"/>
        <pt x="995" y="852" on="0"/>
        <pt x="1036" y="768" on="0"/>
        <pt x="1036" y="702" on="1"/>
        <pt x="1036" y="507" on="0"/>
        <pt x="693" y="245" on="0"/>
        <pt x="466" y="245" on="1"/>
        <pt x="352" y="245" on="0"/>
        <pt x="214" y="323" on="0"/>
        <pt x="151" y="452" on="0"/>
        <pt x="151" y="587" on="1"/>
        <pt x="151" y="1048" on="1"/>
        <pt x="-21" y="1048" on="1"/>
        <pt x="-21" y="1274" on="1"/>
        <pt x="1093" y="1274" on="1"/>
        <pt x="1093" y="1048" on="1"/>
        <pt x="420" y="1048" on="1"/>
      </contour>
      <contour>
        <pt x="418" y="812" on="1"/>
        <pt x="421" y="773" on="0"/>
        <pt x="421" y="722" on="1"/>
        <pt x="421" y="581" on="1"/>
        <pt x="421" y="540" on="0"/>
        <pt x="434" y="494" on="0"/>
        <pt x="478" y="468" on="0"/>
        <pt x="512" y="468" on="1"/>
        <pt x="609" y="468" on="0"/>
        <pt x="763" y="585" on="0"/>
        <pt x="763" y="639" on="1"/>
        <pt x="763" y="662" on="0"/>
        <pt x="735" y="687" on="0"/>
        <pt x="697" y="687" on="1"/>
        <pt x="678" y="687" on="1"/>
        <pt x="523" y="687" on="0"/>
      </contour>
    </TTGlyph>
    <TTGlyph name="glyph00136" xMin="-21" yMin="-555" xMax="1522" yMax="1274">
      <component glyphName="uni099B" x="0" y="0" flags="0x204"/>
      <component glyphName="uni09CD" x="1213" y="0" flags="0x4"/>
    </TTGlyph>
    <TTGlyph name="glyph00137" xMin="-21" yMin="-555" xMax="2072" yMax="1274">
      <component glyphName="uni099C" x="0" y="0" flags="0x204"/>
      <component glyphName="uni09CD" x="1571" y="0" flags="0x4"/>
    </TTGlyph>
    <TTGlyph name="glyph00138" xMin="-21" yMin="-555" xMax="1769" yMax="1409">
      <component glyphName="uni099D" x="0" y="0" flags="0x204"/>
      <component glyphName="uni09CD" x="1288" y="0" flags="0x4"/>
    </TTGlyph>
    <TTGlyph name="glyph00139" xMin="64" yMin="-555" xMax="2102" yMax="1286">
      <component glyphName="uni099E" x="0" y="0" flags="0x204"/>
      <component glyphName="uni09CD" x="1625" y="0" flags="0x4"/>
    </TTGlyph>
    <TTGlyph name="glyph00140" xMin="-21" yMin="245" xMax="1093" yMax="1868">
      <contour>
        <pt x="1093" y="1274" on="1"/>
        <pt x="1093" y="1048" on="1"/>
        <pt x="421" y="1048" on="1"/>
        <pt x="421" y="581" on="1"/>
        <pt x="421" y="509" on="0"/>
        <pt x="469" y="468" on="0"/>
        <pt x="512" y="468" on="1"/>
        <pt x="610" y="468" on="0"/>
        <pt x="769" y="590" on="0"/>
        <pt x="769" y="652" on="1"/>
        <pt x="769" y="679" on="0"/>
        <pt x="727" y="707" on="0"/>
        <pt x="689" y="707" on="1"/>
        <pt x="652" y="707" on="0"/>
        <pt x="623" y="702" on="1"/>
        <pt x="590" y="911" on="1"/>
        <pt x="670" y="929" on="0"/>
        <pt x="767" y="929" on="1"/>
        <pt x="895" y="929" on="0"/>
        <pt x="1036" y="812" on="0"/>
        <pt x="1036" y="702" on="1"/>
        <pt x="1036" y="567" on="0"/>
        <pt x="880" y="370" on="0"/>
        <pt x="626" y="245" on="0"/>
        <pt x="466" y="245" on="1"/>
        <pt x="348" y="245" on="0"/>
        <pt x="206" y="330" on="0"/>
        <pt x="151" y="461" on="0"/>
        <pt x="151" y="587" on="1"/>
        <pt x="151" y="1048" on="1"/>
        <pt x="-21" y="1048" on="1"/>
        <pt x="-21" y="1274" on="1"/>
        <pt x="726" y="1274" on="1"/>
        <pt x="722" y="1339" on="0"/>
        <pt x="658" y="1392" on="0"/>
        <pt x="583" y="1392" on="1"/>
        <pt x="489" y="1392" on="1"/>
        <pt x="236" y="1392" on="0"/>
        <pt x="10" y="1563" on="0"/>
        <pt x="10" y="1748" on="1"/>
        <pt x="10" y="1801" on="0"/>
        <pt x="21" y="1868" on="1"/>
        <pt x="277" y="1852" on="1"/>
        <pt x="273" y="1823" on="0"/>
        <pt x="273" y="1791" on="1"/>
        <pt x="273" y="1719" on="0"/>
        <pt x="315" y="1647" on="0"/>
        <pt x="398" y="1618" on="0"/>
        <pt x="483" y="1618" on="1"/>
        <pt x="586" y="1618" on="1"/>
        <pt x="706" y="1618" on="0"/>
        <pt x="838" y="1584" on="0"/>
        <pt x="931" y="1506" on="0"/>
        <pt x="978" y="1372" on="0"/>
        <pt x="982" y="1274" on="1"/>
      </contour>
    </TTGlyph>
    <TTGlyph name="glyph00141" xMin="-21" yMin="-555" xMax="1319" yMax="1878">
      <component glyphName="uni09A0" x="0" y="0" flags="0x204"/>
      <component glyphName="uni09CD" x="1022" y="0" flags="0x4"/>
    </TTGlyph>
    <TTGlyph name="glyph00142" xMin="-21" yMin="264" xMax="1376" yMax="1274">
      <contour>
        <pt x="758" y="876" on="1"/>
        <pt x="758" y="839" on="0"/>
        <pt x="780" y="813" on="0"/>
        <pt x="802" y="813" on="1"/>
        <pt x="845" y="813" on="0"/>
        <pt x="920" y="868" on="0"/>
        <pt x="961" y="920" on="1"/>
        <pt x="1187" y="958" on="1"/>
        <pt x="1243" y="880" on="0"/>
        <pt x="1292" y="728" on="0"/>
        <pt x="1292" y="636" on="1"/>
        <pt x="1292" y="470" on="0"/>
        <pt x="1016" y="264" on="0"/>
        <pt x="783" y="264" on="1"/>
        <pt x="483" y="264" on="0"/>
        <pt x="130" y="584" on="0"/>
        <pt x="32" y="893" on="1"/>
        <pt x="283" y="966" on="1"/>
        <pt x="327" y="806" on="0"/>
        <pt x="451" y="589" on="0"/>
        <pt x="628" y="480" on="0"/>
        <pt x="765" y="480" on="1"/>
        <pt x="901" y="480" on="0"/>
        <pt x="1048" y="587" on="0"/>
        <pt x="1048" y="680" on="1"/>
        <pt x="1048" y="702" on="0"/>
        <pt x="1042" y="725" on="1"/>
        <pt x="905" y="602" on="0"/>
        <pt x="729" y="602" on="1"/>
        <pt x="646" y="602" on="0"/>
        <pt x="535" y="678" on="0"/>
        <pt x="488" y="797" on="0"/>
        <pt x="488" y="895" on="1"/>
        <pt x="488" y="1048" on="1"/>
        <pt x="-21" y="1048" on="1"/>
        <pt x="-21" y="1274" on="1"/>
        <pt x="1376" y="1274" on="1"/>
        <pt x="1376" y="1048" on="1"/>
        <pt x="758" y="1048" on="1"/>
      </contour>
    </TTGlyph>
    <TTGlyph name="glyph00143" xMin="-21" yMin="245" xMax="1093" yMax="1274">
      <contour>
        <pt x="623" y="702" on="1"/>
        <pt x="590" y="911" on="1"/>
        <pt x="670" y="929" on="0"/>
        <pt x="767" y="929" on="1"/>
        <pt x="895" y="929" on="0"/>
        <pt x="1036" y="812" on="0"/>
        <pt x="1036" y="702" on="1"/>
        <pt x="1036" y="567" on="0"/>
        <pt x="880" y="370" on="0"/>
        <pt x="626" y="245" on="0"/>
        <pt x="466" y="245" on="1"/>
        <pt x="348" y="245" on="0"/>
        <pt x="206" y="330" on="0"/>
        <pt x="151" y="461" on="0"/>
        <pt x="151" y="587" on="1"/>
        <pt x="151" y="1048" on="1"/>
        <pt x="-21" y="1048" on="1"/>
        <pt x="-21" y="1274" on="1"/>
        <pt x="1093" y="1274" on="1"/>
        <pt x="1093" y="1048" on="1"/>
        <pt x="421" y="1048" on="1"/>
        <pt x="421" y="581" on="1"/>
        <pt x="421" y="509" on="0"/>
        <pt x="469" y="468" on="0"/>
        <pt x="512" y="468" on="1"/>
        <pt x="610" y="468" on="0"/>
        <pt x="769" y="590" on="0"/>
        <pt x="769" y="652" on="1"/>
        <pt x="769" y="679" on="0"/>
        <pt x="727" y="707" on="0"/>
        <pt x="689" y="707" on="1"/>
        <pt x="652" y="707" on="0"/>
      </contour>
    </TTGlyph>
    <TTGlyph name="glyph00144" xMin="75" yMin="636" xMax="984" yMax="1288">
      <contour>
        <pt x="984" y="981" on="1"/>
        <pt x="827" y="827" on="1"/>
        <pt x="619" y="1056" on="0"/>
        <pt x="454" y="1056" on="1"/>
        <pt x="407" y="1056" on="0"/>
        <pt x="354" y="1016" on="0"/>
        <pt x="354" y="978" on="1"/>
        <pt x="354" y="937" on="0"/>
        <pt x="412" y="881" on="0"/>
        <pt x="470" y="860" on="1"/>
        <pt x="351" y="636" on="1"/>
        <pt x="220" y="689" on="0"/>
        <pt x="75" y="877" on="0"/>
        <pt x="75" y="987" on="1"/>
        <pt x="75" y="1125" on="0"/>
        <pt x="264" y="1288" on="0"/>
        <pt x="406" y="1288" on="1"/>
        <pt x="543" y="1288" on="0"/>
        <pt x="784" y="1168" on="0"/>
      </contour>
    </TTGlyph>
    <TTGlyph name="glyph00145" xMin="-21" yMin="-555" xMax="1521" yMax="1274">
      <component glyphName="uni09A4" x="0" y="0" flags="0x200"/>
      <component glyphName="uni09CD" x="1251" y="0" flags="0x4"/>
    </TTGlyph>
    <TTGlyph name="glyph00146" xMin="75" yMin="-555" xMax="1734" yMax="1409">
      <component glyphName="uni09A5" x="0" y="0" flags="0x204"/>
      <component glyphName="uni09CD" x="1471" y="0" flags="0x4"/>
    </TTGlyph>
    <TTGlyph name="glyph00147" xMin="-21" yMin="222" xMax="1176" yMax="1274">
      <contour>
        <pt x="-21" y="1048" on="1"/>
        <pt x="-21" y="1274" on="1"/>
        <pt x="1176" y="1274" on="1"/>
        <pt x="1176" y="1048" on="1"/>
        <pt x="413" y="1048" on="1"/>
        <pt x="413" y="754" on="1"/>
        <pt x="625" y="887" on="0"/>
        <pt x="915" y="978" on="1"/>
        <pt x="1100" y="822" on="1"/>
        <pt x="1035" y="703" on="0"/>
        <pt x="1035" y="567" on="1"/>
        <pt x="1035" y="424" on="0"/>
        <pt x="1082" y="272" on="1"/>
        <pt x="818" y="222" on="1"/>
        <pt x="763" y="392" on="0"/>
        <pt x="763" y="535" on="1"/>
        <pt x="763" y="615" on="0"/>
        <pt x="783" y="689" on="1"/>
        <pt x="537" y="591" on="0"/>
        <pt x="366" y="463" on="1"/>
        <pt x="143" y="610" on="1"/>
        <pt x="143" y="1048" on="1"/>
      </contour>
    </TTGlyph>
    <TTGlyph name="glyph00148" xMin="33" yMin="-555" xMax="1551" yMax="1288">
      <component glyphName="uni09A7" x="0" y="0" flags="0x204"/>
      <component glyphName="uni09CD" x="1288" y="0" flags="0x4"/>
    </TTGlyph>
    <TTGlyph name="glyph00149" xMin="-21" yMin="308" xMax="898" yMax="1274">
      <contour>
        <pt x="-21" y="1048" on="1"/>
        <pt x="-21" y="1274" on="1"/>
        <pt x="786" y="1274" on="1"/>
        <pt x="786" y="1048" on="1"/>
      </contour>
      <contour>
        <pt x="898" y="724" on="1"/>
        <pt x="751" y="561" on="1"/>
        <pt x="579" y="728" on="0"/>
        <pt x="438" y="728" on="1"/>
        <pt x="391" y="728" on="0"/>
        <pt x="338" y="688" on="0"/>
        <pt x="338" y="650" on="1"/>
        <pt x="338" y="609" on="0"/>
        <pt x="396" y="553" on="0"/>
        <pt x="454" y="532" on="1"/>
        <pt x="335" y="308" on="1"/>
        <pt x="204" y="361" on="0"/>
        <pt x="59" y="549" on="0"/>
        <pt x="59" y="659" on="1"/>
        <pt x="59" y="797" on="0"/>
        <pt x="248" y="960" on="0"/>
        <pt x="390" y="960" on="1"/>
        <pt x="513" y="960" on="0"/>
        <pt x="724" y="870" on="0"/>
      </contour>
    </TTGlyph>
    <TTGlyph name="glyph00150" xMin="27" yMin="411" xMax="1279" yMax="1288">
      <contour>
        <pt x="1122" y="740" on="1"/>
        <pt x="1074" y="793" on="0"/>
        <pt x="1029" y="839" on="1"/>
        <pt x="508" y="411" on="1"/>
        <pt x="336" y="580" on="1"/>
        <pt x="396" y="629" on="1"/>
        <pt x="437" y="672" on="0"/>
        <pt x="437" y="718" on="1"/>
        <pt x="437" y="753" on="0"/>
        <pt x="387" y="793" on="0"/>
        <pt x="348" y="793" on="1"/>
        <pt x="292" y="793" on="0"/>
        <pt x="229" y="756" on="1"/>
        <pt x="27" y="935" on="1"/>
        <pt x="183" y="1128" on="0"/>
        <pt x="445" y="1288" on="0"/>
        <pt x="622" y="1288" on="1"/>
        <pt x="775" y="1288" on="0"/>
        <pt x="1066" y="1108" on="0"/>
        <pt x="1279" y="894" on="1"/>
      </contour>
      <contour>
        <pt x="623" y="789" on="1"/>
        <pt x="643" y="809" on="0"/>
        <pt x="687" y="844" on="1"/>
        <pt x="860" y="981" on="1"/>
        <pt x="736" y="1062" on="0"/>
        <pt x="609" y="1062" on="1"/>
        <pt x="527" y="1062" on="0"/>
        <pt x="396" y="1007" on="0"/>
        <pt x="322" y="942" on="1"/>
        <pt x="377" y="965" on="0"/>
        <pt x="445" y="965" on="1"/>
        <pt x="523" y="965" on="0"/>
        <pt x="623" y="874" on="0"/>
        <pt x="623" y="794" on="1"/>
      </contour>
    </TTGlyph>
    <TTGlyph name="glyph00151" xMin="-21" yMin="-555" xMax="1834" yMax="1274">
      <component glyphName="uni09AB" x="0" y="0" flags="0x204"/>
      <component glyphName="uni09CD" x="1346" y="0" flags="0x4"/>
    </TTGlyph>
    <TTGlyph name="glyph00152" xMin="-21" yMin="245" xMax="1121" yMax="1274">
      <contour>
        <pt x="1000" y="1048" on="1"/>
        <pt x="1000" y="245" on="1"/>
        <pt x="730" y="245" on="1"/>
        <pt x="592" y="368" on="0"/>
        <pt x="326" y="489" on="0"/>
        <pt x="130" y="521" on="1"/>
        <pt x="33" y="752" on="1"/>
        <pt x="438" y="954" on="0"/>
        <pt x="734" y="1026" on="1"/>
        <pt x="734" y="1048" on="1"/>
        <pt x="-21" y="1048" on="1"/>
        <pt x="-21" y="1274" on="1"/>
        <pt x="1121" y="1274" on="1"/>
        <pt x="1121" y="1048" on="1"/>
      </contour>
      <contour>
        <pt x="730" y="814" on="1"/>
        <pt x="536" y="759" on="0"/>
        <pt x="342" y="671" on="1"/>
        <pt x="560" y="623" on="0"/>
        <pt x="736" y="483" on="1"/>
        <pt x="730" y="548" on="0"/>
        <pt x="730" y="621" on="1"/>
      </contour>
    </TTGlyph>
    <TTGlyph name="glyph00153" xMin="-21" yMin="-555" xMax="1558" yMax="1274">
      <component glyphName="uni09AD" x="0" y="0" flags="0x204"/>
      <component glyphName="uni09CD" x="1099" y="0" flags="0x4"/>
    </TTGlyph>
    <TTGlyph name="glyph00154" xMin="-21" yMin="430" xMax="1288" yMax="1274">
      <contour>
        <pt x="1177" y="1048" on="1"/>
        <pt x="1235" y="946" on="0"/>
        <pt x="1235" y="840" on="1"/>
        <pt x="1235" y="700" on="0"/>
        <pt x="1060" y="544" on="0"/>
        <pt x="903" y="544" on="1"/>
        <pt x="818" y="544" on="0"/>
        <pt x="662" y="587" on="0"/>
        <pt x="526" y="665" on="1"/>
        <pt x="472" y="696" on="0"/>
        <pt x="402" y="727" on="0"/>
        <pt x="377" y="727" on="1"/>
        <pt x="316" y="727" on="0"/>
        <pt x="316" y="678" on="1"/>
        <pt x="316" y="635" on="0"/>
        <pt x="369" y="597" on="1"/>
        <pt x="207" y="430" on="1"/>
        <pt x="127" y="499" on="0"/>
        <pt x="56" y="630" on="0"/>
        <pt x="56" y="704" on="1"/>
        <pt x="56" y="803" on="0"/>
        <pt x="199" y="925" on="0"/>
        <pt x="315" y="932" on="1"/>
        <pt x="293" y="1004" on="0"/>
        <pt x="219" y="1048" on="1"/>
        <pt x="-21" y="1048" on="1"/>
        <pt x="-21" y="1274" on="1"/>
        <pt x="1288" y="1274" on="1"/>
        <pt x="1288" y="1048" on="1"/>
      </contour>
      <contour>
        <pt x="893" y="1048" on="1"/>
        <pt x="521" y="1048" on="1"/>
        <pt x="582" y="978" on="0"/>
        <pt x="584" y="878" on="1"/>
        <pt x="683" y="823" on="1"/>
        <pt x="718" y="803" on="0"/>
        <pt x="775" y="780" on="0"/>
        <pt x="823" y="770" on="0"/>
        <pt x="850" y="770" on="1"/>
        <pt x="961" y="770" on="0"/>
        <pt x="961" y="891" on="1"/>
        <pt x="961" y="968" on="0"/>
      </contour>
    </TTGlyph>
    <TTGlyph name="glyph00155" xMin="-21" yMin="-555" xMax="1624" yMax="1274">
      <component glyphName="uni09AF" x="0" y="0" flags="0x204"/>
      <component glyphName="uni09CD" x="1361" y="0" flags="0x4"/>
    </TTGlyph>
    <TTGlyph name="glyph00156" xMin="-21" yMin="253" xMax="1236" yMax="1274">
      <contour>
        <pt x="-21" y="1048" on="1"/>
        <pt x="-21" y="1274" on="1"/>
        <pt x="1124" y="1274" on="1"/>
        <pt x="1124" y="1048" on="1"/>
      </contour>
      <contour>
        <pt x="415" y="253" on="1"/>
        <pt x="238" y="308" on="0"/>
        <pt x="59" y="503" on="0"/>
        <pt x="59" y="638" on="1"/>
        <pt x="59" y="774" on="0"/>
        <pt x="255" y="944" on="0"/>
        <pt x="408" y="944" on="1"/>
        <pt x="508" y="944" on="0"/>
        <pt x="661" y="880" on="0"/>
        <pt x="738" y="804" on="1"/>
        <pt x="762" y="865" on="0"/>
        <pt x="868" y="933" on="0"/>
        <pt x="935" y="933" on="1"/>
        <pt x="1010" y="933" on="0"/>
        <pt x="1148" y="870" on="0"/>
        <pt x="1236" y="790" on="1"/>
        <pt x="1099" y="636" on="1"/>
        <pt x="1034" y="704" on="0"/>
        <pt x="980" y="704" on="1"/>
        <pt x="938" y="704" on="0"/>
        <pt x="882" y="647" on="0"/>
        <pt x="882" y="595" on="1"/>
        <pt x="882" y="565" on="0"/>
        <pt x="887" y="541" on="1"/>
        <pt x="657" y="526" on="1"/>
        <pt x="631" y="612" on="0"/>
        <pt x="514" y="712" on="0"/>
        <pt x="442" y="712" on="1"/>
        <pt x="394" y="712" on="0"/>
        <pt x="338" y="664" on="0"/>
        <pt x="338" y="624" on="1"/>
        <pt x="338" y="576" on="0"/>
        <pt x="413" y="508" on="0"/>
        <pt x="497" y="483" on="1"/>
      </contour>
    </TTGlyph>
    <TTGlyph name="glyph00157" xMin="-24" yMin="544" xMax="1188" yMax="1288">
      <contour>
        <pt x="-24" y="1269" on="1"/>
        <pt x="77" y="1288" on="0"/>
        <pt x="168" y="1288" on="1"/>
        <pt x="265" y="1288" on="0"/>
        <pt x="417" y="1212" on="0"/>
        <pt x="463" y="1139" on="1"/>
        <pt x="500" y="1211" on="0"/>
        <pt x="633" y="1288" on="0"/>
        <pt x="719" y="1288" on="1"/>
        <pt x="848" y="1288" on="0"/>
        <pt x="1054" y="1161" on="0"/>
        <pt x="1188" y="1002" on="1"/>
        <pt x="1016" y="869" on="1"/>
        <pt x="893" y="1063" on="0"/>
        <pt x="750" y="1063" on="1"/>
        <pt x="684" y="1063" on="0"/>
        <pt x="608" y="994" on="0"/>
        <pt x="608" y="931" on="1"/>
        <pt x="608" y="858" on="0"/>
        <pt x="728" y="787" on="0"/>
        <pt x="849" y="782" on="1"/>
        <pt x="821" y="544" on="1"/>
        <pt x="565" y="557" on="0"/>
        <pt x="471" y="717" on="1"/>
        <pt x="371" y="544" on="0"/>
        <pt x="113" y="544" on="1"/>
        <pt x="87" y="781" on="1"/>
        <pt x="204" y="786" on="0"/>
        <pt x="326" y="857" on="0"/>
        <pt x="326" y="930" on="1"/>
        <pt x="326" y="994" on="0"/>
        <pt x="238" y="1063" on="0"/>
        <pt x="158" y="1063" on="1"/>
        <pt x="73" y="1063" on="0"/>
        <pt x="0" y="1042" on="1"/>
      </contour>
    </TTGlyph>
    <TTGlyph name="glyph00158" xMin="-21" yMin="520" xMax="1131" yMax="1274">
      <contour>
        <pt x="1047" y="1048" on="1"/>
        <pt x="1083" y="983" on="0"/>
        <pt x="1083" y="908" on="1"/>
        <pt x="1083" y="793" on="0"/>
        <pt x="937" y="616" on="0"/>
        <pt x="677" y="520" on="0"/>
        <pt x="525" y="520" on="1"/>
        <pt x="319" y="520" on="0"/>
        <pt x="60" y="712" on="0"/>
        <pt x="60" y="873" on="1"/>
        <pt x="60" y="969" on="0"/>
        <pt x="119" y="1048" on="1"/>
        <pt x="-21" y="1048" on="1"/>
        <pt x="-21" y="1274" on="1"/>
        <pt x="1131" y="1274" on="1"/>
        <pt x="1131" y="1048" on="1"/>
      </contour>
      <contour>
        <pt x="490" y="1068" on="1"/>
        <pt x="656" y="966" on="0"/>
        <pt x="789" y="840" on="1"/>
        <pt x="816" y="881" on="0"/>
        <pt x="816" y="928" on="1"/>
        <pt x="816" y="1000" on="0"/>
        <pt x="705" y="1080" on="0"/>
        <pt x="596" y="1080" on="1"/>
        <pt x="538" y="1080" on="0"/>
      </contour>
      <contour>
        <pt x="652" y="750" on="1"/>
        <pt x="515" y="878" on="0"/>
        <pt x="350" y="978" on="1"/>
        <pt x="327" y="941" on="0"/>
        <pt x="327" y="895" on="1"/>
        <pt x="327" y="822" on="0"/>
        <pt x="446" y="736" on="0"/>
        <pt x="549" y="736" on="1"/>
        <pt x="604" y="736" on="0"/>
      </contour>
    </TTGlyph>
    <TTGlyph name="glyph00159" xMin="-21" yMin="544" xMax="1464" yMax="1274">
      <contour>
        <pt x="1353" y="1048" on="1"/>
        <pt x="1411" y="948" on="0"/>
        <pt x="1411" y="840" on="1"/>
        <pt x="1411" y="701" on="0"/>
        <pt x="1224" y="544" on="0"/>
        <pt x="1061" y="544" on="1"/>
        <pt x="931" y="544" on="0"/>
        <pt x="725" y="657" on="0"/>
        <pt x="665" y="759" on="1"/>
        <pt x="627" y="656" on="0"/>
        <pt x="478" y="544" on="0"/>
        <pt x="379" y="544" on="1"/>
        <pt x="307" y="544" on="0"/>
        <pt x="196" y="585" on="0"/>
        <pt x="86" y="692" on="0"/>
        <pt x="31" y="786" on="1"/>
        <pt x="219" y="904" on="1"/>
        <pt x="261" y="831" on="0"/>
        <pt x="325" y="783" on="0"/>
        <pt x="362" y="783" on="1"/>
        <pt x="440" y="783" on="0"/>
        <pt x="504" y="922" on="0"/>
        <pt x="507" y="1048" on="1"/>
        <pt x="-21" y="1048" on="1"/>
        <pt x="-21" y="1274" on="1"/>
        <pt x="1464" y="1274" on="1"/>
        <pt x="1464" y="1048" on="1"/>
      </contour>
      <contour>
        <pt x="1069" y="1048" on="1"/>
        <pt x="774" y="1048" on="1"/>
        <pt x="801" y="915" on="0"/>
        <pt x="931" y="770" on="0"/>
        <pt x="1023" y="770" on="1"/>
        <pt x="1079" y="770" on="0"/>
        <pt x="1137" y="833" on="0"/>
        <pt x="1137" y="891" on="1"/>
        <pt x="1137" y="968" on="0"/>
      </contour>
    </TTGlyph>
    <TTGlyph name="glyph00160" xMin="-21" yMin="-555" xMax="1255" yMax="1274">
      <component glyphName="uni09B9" x="0" y="0" flags="0x204"/>
      <component glyphName="uni09CD" x="992" y="0" flags="0x4"/>
    </TTGlyph>
    <TTGlyph name="glyph00161" xMin="-21" yMin="-555" xMax="1565" yMax="1274">
      <component glyphName="uni09F0" x="0" y="0" flags="0x204"/>
      <component glyphName="uni09CD" x="1302" y="0" flags="0x4"/>
    </TTGlyph>
    <TTGlyph name="glyph00162" xMin="-21" yMin="-555" xMax="1551" yMax="1274">
      <component glyphName="uni09F1" x="0" y="0" flags="0x204"/>
      <component glyphName="uni09CD" x="1288" y="0" flags="0x4"/>
    </TTGlyph>
    <TTGlyph name="glyph00163" xMin="-21" yMin="-555" xMax="2074" yMax="1274">
      <component glyphName="glyph00125" x="0" y="0" flags="0x200"/>
      <component glyphName="uni09CD" x="1609" y="0" flags="0x4"/>
    </TTGlyph>
    <TTGlyph name="glyph00164" xMin="-21" yMin="-555" xMax="2173" yMax="1274">
      <component glyphName="glyph00126" x="0" y="0" flags="0x204"/>
      <component glyphName="uni09CD" x="1415" y="0" flags="0x4"/>
    </TTGlyph>
    <TTGlyph name="glyph00165" xMin="-21" yMin="-555" xMax="1777" yMax="1274">
      <component glyphName="uni0995" x="0" y="0" flags="0x204"/>
      <component glyphName="uni09CD" x="1285" y="0" flags="0x4"/>
      <component glyphName="uni09BC" x="1009" y="397" flags="0x4"/>
    </TTGlyph>
    <TTGlyph name="glyph00166" xMin="90" yMin="-555" xMax="1796" yMax="1409">
      <component glyphName="uni0996" x="0" y="0" flags="0x204"/>
      <component glyphName="uni09BC" x="1209" y="397" flags="0x4"/>
      <component glyphName="uni09CD" x="1533" y="0" flags="0x4"/>
    </TTGlyph>
    <TTGlyph name="glyph00167" xMin="31" yMin="-555" xMax="1696" yMax="1409">
      <component glyphName="uni0997" x="0" y="0" flags="0x204"/>
      <component glyphName="uni09BC" x="1176" y="327" flags="0x4"/>
      <component glyphName="uni09CD" x="1433" y="0" flags="0x4"/>
    </TTGlyph>
    <TTGlyph name="glyph00168" xMin="-21" yMin="-555" xMax="1618" yMax="1274">
      <component glyphName="uni0998" x="0" y="0" flags="0x204"/>
      <component glyphName="uni09BC" x="1009" y="367" flags="0x4"/>
      <component glyphName="uni09CD" x="1355" y="0" flags="0x4"/>
    </TTGlyph>
    <TTGlyph name="glyph00169" xMin="32" yMin="-555" xMax="1802" yMax="1287">
      <component glyphName="uni0999" x="0" y="0" flags="0x204"/>
      <component glyphName="uni09BC" x="1429" y="0" flags="0x4"/>
      <component glyphName="uni09CD" x="1539" y="0" flags="0x4"/>
    </TTGlyph>
    <TTGlyph name="glyph00170" xMin="-21" yMin="-555" xMax="1477" yMax="1274">
      <component glyphName="uni099A" x="0" y="0" flags="0x204"/>
      <component glyphName="uni09BC" x="1119" y="0" flags="0x4"/>
      <component glyphName="uni09CD" x="1214" y="0" flags="0x4"/>
    </TTGlyph>
    <TTGlyph name="glyph00171" xMin="-21" yMin="-555" xMax="1522" yMax="1274">
      <component glyphName="uni099B" x="0" y="0" flags="0x204"/>
      <component glyphName="uni09BC" x="1163" y="60" flags="0x4"/>
      <component glyphName="uni09CD" x="1213" y="0" flags="0x4"/>
    </TTGlyph>
    <TTGlyph name="glyph00172" xMin="-21" yMin="-555" xMax="2072" yMax="1274">
      <component glyphName="uni099C" x="0" y="0" flags="0x204"/>
      <component glyphName="uni09BC" x="1501" y="77" flags="0x4"/>
      <component glyphName="uni09CD" x="1571" y="0" flags="0x4"/>
    </TTGlyph>
    <TTGlyph name="glyph00173" xMin="-21" yMin="-555" xMax="1769" yMax="1409">
      <component glyphName="uni099D" x="0" y="0" flags="0x204"/>
      <component glyphName="uni09BC" x="1009" y="397" flags="0x4"/>
      <component glyphName="uni09CD" x="1288" y="0" flags="0x4"/>
    </TTGlyph>
    <TTGlyph name="glyph00174" xMin="64" yMin="-555" xMax="2102" yMax="1286">
      <component glyphName="uni099E" x="0" y="0" flags="0x204"/>
      <component glyphName="uni09BC" x="1509" y="80" flags="0x4"/>
      <component glyphName="uni09CD" x="1625" y="0" flags="0x4"/>
    </TTGlyph>
    <TTGlyph name="glyph00175" xMin="-21" yMin="-555" xMax="1477" yMax="1868">
      <component glyphName="uni099F" x="0" y="0" flags="0x204"/>
      <component glyphName="uni09BC" x="1119" y="0" flags="0x4"/>
      <component glyphName="uni09CD" x="1214" y="0" flags="0x4"/>
    </TTGlyph>
    <TTGlyph name="glyph00176" xMin="-21" yMin="-555" xMax="1485" yMax="1878">
      <component glyphName="uni09A0" x="0" y="0" flags="0x204"/>
      <component glyphName="uni09BC" x="1155" y="0" flags="0x4"/>
      <component glyphName="uni09CD" x="1222" y="0" flags="0x4"/>
    </TTGlyph>
    <TTGlyph name="glyph00177" xMin="-21" yMin="-141" xMax="1376" yMax="1274">
      <component glyphName="glyph00142" x="0" y="0" flags="0x204"/>
      <component glyphName="uni09BC" x="1350" y="280" flags="0x4"/>
    </TTGlyph>
    <TTGlyph name="glyph00178" xMin="-21" yMin="-153" xMax="1093" yMax="1274">
      <component glyphName="glyph00143" x="0" y="0" flags="0x204"/>
      <component glyphName="uni09BC" x="1188" y="268" flags="0x4"/>
    </TTGlyph>
    <TTGlyph name="glyph00179" xMin="75" yMin="-555" xMax="1577" yMax="1409">
      <component glyphName="uni09A3" x="0" y="0" flags="0x204"/>
      <component glyphName="uni09BC" x="1146" y="397" flags="0x4"/>
      <component glyphName="uni09CD" x="1314" y="0" flags="0x4"/>
    </TTGlyph>
    <TTGlyph name="glyph00180" xMin="-21" yMin="-555" xMax="1713" yMax="1274">
      <component glyphName="uni09A4" x="0" y="0" flags="0x204"/>
      <component glyphName="uni09BC" x="1416" y="50" flags="0x4"/>
      <component glyphName="uni09CD" x="1450" y="0" flags="0x4"/>
    </TTGlyph>
    <TTGlyph name="glyph00181" xMin="75" yMin="-555" xMax="1734" yMax="1409">
      <component glyphName="uni09A5" x="0" y="0" flags="0x204"/>
      <component glyphName="uni09BC" x="1137" y="397" flags="0x4"/>
      <component glyphName="uni09CD" x="1471" y="0" flags="0x4"/>
    </TTGlyph>
    <TTGlyph name="glyph00182" xMin="-21" yMin="-555" xMax="1582" yMax="1274">
      <component glyphName="uni09A6" x="0" y="0" flags="0x204"/>
      <component glyphName="uni09BC" x="1252" y="145" flags="0x4"/>
      <component glyphName="uni09CD" x="1319" y="0" flags="0x4"/>
    </TTGlyph>
    <TTGlyph name="glyph00183" xMin="33" yMin="-555" xMax="1551" yMax="1288">
      <component glyphName="uni09A7" x="0" y="0" flags="0x204"/>
      <component glyphName="uni09BC" x="1009" y="397" flags="0x4"/>
      <component glyphName="uni09CD" x="1288" y="0" flags="0x4"/>
    </TTGlyph>
    <TTGlyph name="glyph00184" xMin="-21" yMin="-555" xMax="1561" yMax="1274">
      <component glyphName="uni09A8" x="0" y="0" flags="0x204"/>
      <component glyphName="uni09BC" x="1139" y="172" flags="0x4"/>
      <component glyphName="uni09CD" x="1298" y="0" flags="0x4"/>
    </TTGlyph>
    <TTGlyph name="glyph00185" xMin="27" yMin="-555" xMax="1830" yMax="1409">
      <component glyphName="uni09AA" x="0" y="0" flags="0x204"/>
      <component glyphName="uni09BC" x="1176" y="357" flags="0x4"/>
      <component glyphName="uni09CD" x="1567" y="0" flags="0x4"/>
    </TTGlyph>
    <TTGlyph name="glyph00186" xMin="-21" yMin="-555" xMax="1834" yMax="1274">
      <component glyphName="uni09AB" x="0" y="0" flags="0x204"/>
      <component glyphName="uni09BC" x="1014" y="367" flags="0x4"/>
      <component glyphName="uni09CD" x="1346" y="0" flags="0x4"/>
    </TTGlyph>
    <TTGlyph name="glyph00187" xMin="-21" yMin="-555" xMax="1551" yMax="1274">
      <component glyphName="uni09AC" x="0" y="0" flags="0x200"/>
      <component glyphName="uni09CD" x="1288" y="0" flags="0x4"/>
      <component glyphName="uni09BC" x="1009" y="397" flags="0x4"/>
    </TTGlyph>
    <TTGlyph name="glyph00188" xMin="-21" yMin="-555" xMax="1702" yMax="1274">
      <component glyphName="uni09AD" x="0" y="0" flags="0x204"/>
      <component glyphName="uni09BC" x="1419" y="50" flags="0x4"/>
      <component glyphName="uni09CD" x="1439" y="0" flags="0x4"/>
    </TTGlyph>
    <TTGlyph name="glyph00189" xMin="-21" yMin="-555" xMax="1584" yMax="1274">
      <component glyphName="uni09AE" x="0" y="0" flags="0x204"/>
      <component glyphName="uni09BC" x="1156" y="142" flags="0x4"/>
      <component glyphName="uni09CD" x="1321" y="0" flags="0x4"/>
    </TTGlyph>
    <TTGlyph name="glyph00190" xMin="-21" yMin="-555" xMax="1624" yMax="1274">
      <component glyphName="uni09AF" x="0" y="0" flags="0x200"/>
      <component glyphName="uni09BC" x="1014" y="357" flags="0x4"/>
      <component glyphName="uni09CD" x="1361" y="0" flags="0x4"/>
    </TTGlyph>
    <TTGlyph name="glyph00191" xMin="-21" yMin="-555" xMax="1853" yMax="1274">
      <component glyphName="uni09B2" x="0" y="0" flags="0x204"/>
      <component glyphName="uni09BC" x="1401" y="321" flags="0x4"/>
      <component glyphName="uni09CD" x="1590" y="0" flags="0x4"/>
    </TTGlyph>
    <TTGlyph name="glyph00192" xMin="-24" yMin="-555" xMax="1726" yMax="1409">
      <component glyphName="uni09B6" x="0" y="0" flags="0x204"/>
      <component glyphName="uni09BC" x="1186" y="397" flags="0x4"/>
      <component glyphName="uni09CD" x="1463" y="0" flags="0x4"/>
    </TTGlyph>
    <TTGlyph name="glyph00193" xMin="-21" yMin="-555" xMax="1639" yMax="1274">
      <component glyphName="uni09B7" x="0" y="0" flags="0x204"/>
      <component glyphName="uni09BC" x="1014" y="367" flags="0x4"/>
      <component glyphName="uni09CD" x="1376" y="0" flags="0x4"/>
    </TTGlyph>
    <TTGlyph name="glyph00194" xMin="-21" yMin="-555" xMax="1712" yMax="1274">
      <component glyphName="uni09B8" x="0" y="0" flags="0x204"/>
      <component glyphName="uni09BC" x="1130" y="241" flags="0x4"/>
      <component glyphName="uni09CD" x="1449" y="0" flags="0x4"/>
    </TTGlyph>
    <TTGlyph name="glyph00195" xMin="-21" yMin="-555" xMax="1255" yMax="1274">
      <component glyphName="uni09B9" x="0" y="0" flags="0x204"/>
      <component glyphName="uni09BC" x="994" y="202" flags="0x4"/>
      <component glyphName="uni09CD" x="992" y="0" flags="0x4"/>
    </TTGlyph>
    <TTGlyph name="glyph00196" xMin="-21" yMin="-555" xMax="1565" yMax="1274">
      <component glyphName="uni09F0" x="0" y="0" flags="0x204"/>
      <component glyphName="uni09BC" x="1009" y="397" flags="0x4"/>
      <component glyphName="uni09CD" x="1302" y="0" flags="0x4"/>
    </TTGlyph>
    <TTGlyph name="glyph00197" xMin="-21" yMin="-555" xMax="1551" yMax="1274">
      <component glyphName="uni09F1" x="0" y="0" flags="0x204"/>
      <component glyphName="uni09BC" x="948" y="139" flags="0x4"/>
      <component glyphName="uni09CD" x="1288" y="0" flags="0x4"/>
    </TTGlyph>
    <TTGlyph name="glyph00198" xMin="-56" yMin="-107" xMax="605" yMax="1274">
      <contour>
        <pt x="-21" y="1274" on="1"/>
        <pt x="605" y="1274" on="1"/>
        <pt x="605" y="1048" on="1"/>
        <pt x="519" y="1048" on="1"/>
        <pt x="463" y="991" on="0"/>
        <pt x="410" y="878" on="0"/>
        <pt x="410" y="800" on="1"/>
        <pt x="410" y="724" on="0"/>
        <pt x="444" y="587" on="1"/>
        <pt x="478" y="449" on="0"/>
        <pt x="478" y="364" on="1"/>
        <pt x="478" y="215" on="0"/>
        <pt x="369" y="39" on="0"/>
        <pt x="153" y="-73" on="0"/>
        <pt x="4" y="-107" on="1"/>
        <pt x="-56" y="115" on="1"/>
        <pt x="19" y="132" on="0"/>
        <pt x="140" y="191" on="0"/>
        <pt x="204" y="283" on="0"/>
        <pt x="204" y="367" on="1"/>
        <pt x="204" y="453" on="0"/>
        <pt x="170" y="587" on="1"/>
        <pt x="136" y="721" on="0"/>
        <pt x="136" y="801" on="1"/>
        <pt x="136" y="872" on="0"/>
        <pt x="179" y="984" on="0"/>
        <pt x="231" y="1048" on="1"/>
        <pt x="-21" y="1048" on="1"/>
      </contour>
    </TTGlyph>
    <TTGlyph name="glyph00199" xMin="-21" yMin="0" xMax="2017" yMax="1274">
      <contour>
        <pt x="-21" y="1274" on="1"/>
        <pt x="2017" y="1274" on="1"/>
        <pt x="2017" y="1048" on="1"/>
        <pt x="-21" y="1048" on="1"/>
      </contour>
      <contour>
        <pt x="1509" y="420" on="1"/>
        <pt x="1588" y="438" on="0"/>
        <pt x="1672" y="510" on="0"/>
        <pt x="1672" y="557" on="1"/>
        <pt x="1672" y="599" on="0"/>
        <pt x="1624" y="645" on="0"/>
        <pt x="1582" y="645" on="1"/>
        <pt x="1514" y="645" on="0"/>
        <pt x="1409" y="558" on="0"/>
        <pt x="1364" y="482" on="1"/>
        <pt x="1364" y="0" on="1"/>
        <pt x="1094" y="0" on="1"/>
        <pt x="1070" y="57" on="0"/>
        <pt x="971" y="119" on="0"/>
        <pt x="871" y="119" on="1"/>
        <pt x="812" y="119" on="0"/>
        <pt x="694" y="102" on="1"/>
        <pt x="576" y="84" on="0"/>
        <pt x="500" y="84" on="1"/>
        <pt x="265" y="84" on="0"/>
        <pt x="64" y="296" on="0"/>
        <pt x="64" y="502" on="1"/>
        <pt x="64" y="588" on="0"/>
        <pt x="85" y="690" on="1"/>
        <pt x="349" y="655" on="1"/>
        <pt x="332" y="591" on="0"/>
        <pt x="332" y="522" on="1"/>
        <pt x="332" y="414" on="0"/>
        <pt x="440" y="311" on="0"/>
        <pt x="561" y="311" on="1"/>
        <pt x="620" y="311" on="0"/>
        <pt x="715" y="329" on="1"/>
        <pt x="810" y="346" on="0"/>
        <pt x="865" y="346" on="1"/>
        <pt x="1018" y="346" on="0"/>
        <pt x="1094" y="235" on="1"/>
        <pt x="1094" y="709" on="1"/>
        <pt x="1094" y="753" on="0"/>
        <pt x="1076" y="791" on="0"/>
        <pt x="1036" y="810" on="0"/>
        <pt x="994" y="810" on="1"/>
        <pt x="929" y="810" on="0"/>
        <pt x="780" y="723" on="0"/>
        <pt x="780" y="675" on="1"/>
        <pt x="780" y="634" on="0"/>
        <pt x="840" y="634" on="1"/>
        <pt x="874" y="634" on="0"/>
        <pt x="907" y="641" on="1"/>
        <pt x="935" y="446" on="1"/>
        <pt x="878" y="427" on="0"/>
        <pt x="766" y="427" on="1"/>
        <pt x="650" y="427" on="0"/>
        <pt x="520" y="533" on="0"/>
        <pt x="520" y="633" on="1"/>
        <pt x="520" y="732" on="0"/>
        <pt x="669" y="916" on="0"/>
        <pt x="897" y="1025" on="0"/>
        <pt x="1026" y="1025" on="1"/>
        <pt x="1157" y="1025" on="0"/>
        <pt x="1302" y="950" on="0"/>
        <pt x="1359" y="842" on="0"/>
        <pt x="1363" y="758" on="1"/>
        <pt x="1473" y="862" on="0"/>
        <pt x="1624" y="862" on="1"/>
        <pt x="1769" y="862" on="0"/>
        <pt x="1930" y="706" on="0"/>
        <pt x="1930" y="573" on="1"/>
        <pt x="1930" y="447" on="0"/>
        <pt x="1749" y="250" on="0"/>
        <pt x="1576" y="204" on="1"/>
      </contour>
      <contour>
        <pt x="1094" y="1274" on="1"/>
      </contour>
    </TTGlyph>
    <TTGlyph name="glyph00200" xMin="59" yMin="-240" xMax="1554" yMax="1409">
      <contour>
        <pt x="833" y="1280" on="1"/>
        <pt x="972" y="1129" on="0"/>
        <pt x="972" y="946" on="1"/>
        <pt x="972" y="803" on="0"/>
        <pt x="810" y="595" on="0"/>
        <pt x="655" y="545" on="1"/>
        <pt x="744" y="520" on="0"/>
        <pt x="888" y="452" on="0"/>
        <pt x="997" y="378" on="0"/>
        <pt x="1090" y="299" on="1"/>
        <pt x="1086" y="353" on="0"/>
        <pt x="1086" y="496" on="1"/>
        <pt x="1086" y="1409" on="1"/>
        <pt x="1307" y="1409" on="1"/>
        <pt x="1354" y="1274" on="1"/>
        <pt x="1554" y="1274" on="1"/>
        <pt x="1554" y="1048" on="1"/>
        <pt x="1356" y="1048" on="1"/>
        <pt x="1356" y="-240" on="1"/>
        <pt x="1090" y="-240" on="1"/>
        <pt x="1063" y="-179" on="0"/>
        <pt x="945" y="-122" on="0"/>
        <pt x="847" y="-122" on="1"/>
        <pt x="819" y="-122" on="0"/>
        <pt x="763" y="-127" on="0"/>
        <pt x="674" y="-139" on="1"/>
        <pt x="547" y="-157" on="0"/>
        <pt x="469" y="-157" on="1"/>
        <pt x="266" y="-157" on="0"/>
        <pt x="59" y="26" on="0"/>
        <pt x="59" y="206" on="1"/>
        <pt x="59" y="279" on="0"/>
        <pt x="76" y="349" on="1"/>
        <pt x="334" y="321" on="1"/>
        <pt x="322" y="282" on="0"/>
        <pt x="322" y="224" on="1"/>
        <pt x="322" y="147" on="0"/>
        <pt x="415" y="70" on="0"/>
        <pt x="514" y="70" on="1"/>
        <pt x="572" y="70" on="0"/>
        <pt x="672" y="88" on="1"/>
        <pt x="772" y="105" on="0"/>
        <pt x="824" y="105" on="1"/>
        <pt x="893" y="105" on="0"/>
        <pt x="1009" y="56" on="0"/>
        <pt x="1086" y="-11" on="1"/>
        <pt x="1086" y="13" on="1"/>
        <pt x="930" y="188" on="0"/>
        <pt x="579" y="370" on="0"/>
        <pt x="339" y="408" on="1"/>
        <pt x="273" y="646" on="1"/>
        <pt x="497" y="687" on="0"/>
        <pt x="708" y="816" on="0"/>
        <pt x="708" y="919" on="1"/>
        <pt x="708" y="947" on="0"/>
        <pt x="696" y="979" on="1"/>
        <pt x="631" y="919" on="0"/>
        <pt x="484" y="863" on="0"/>
        <pt x="392" y="863" on="1"/>
        <pt x="251" y="863" on="0"/>
        <pt x="90" y="997" on="0"/>
        <pt x="90" y="1112" on="1"/>
        <pt x="90" y="1202" on="0"/>
        <pt x="134" y="1287" on="1"/>
        <pt x="375" y="1228" on="1"/>
        <pt x="356" y="1194" on="0"/>
        <pt x="356" y="1160" on="1"/>
        <pt x="356" y="1089" on="0"/>
        <pt x="437" y="1089" on="1"/>
        <pt x="502" y="1089" on="0"/>
        <pt x="592" y="1161" on="0"/>
        <pt x="643" y="1236" on="1"/>
      </contour>
      <contour>
        <pt x="1014" y="1274" on="1"/>
      </contour>
    </TTGlyph>
    <TTGlyph name="glyph00201" xMin="64" yMin="-89" xMax="1579" yMax="1409">
      <contour>
        <pt x="436" y="546" on="1"/>
        <pt x="646" y="642" on="0"/>
        <pt x="646" y="742" on="1"/>
        <pt x="646" y="817" on="0"/>
        <pt x="552" y="817" on="1"/>
        <pt x="475" y="817" on="0"/>
        <pt x="363" y="757" on="1"/>
        <pt x="156" y="924" on="1"/>
        <pt x="279" y="1111" on="0"/>
        <pt x="534" y="1288" on="0"/>
        <pt x="677" y="1288" on="1"/>
        <pt x="786" y="1288" on="0"/>
        <pt x="986" y="1196" on="0"/>
        <pt x="1114" y="1080" on="1"/>
        <pt x="1111" y="1128" on="0"/>
        <pt x="1111" y="1199" on="1"/>
        <pt x="1111" y="1409" on="1"/>
        <pt x="1333" y="1409" on="1"/>
        <pt x="1379" y="1274" on="1"/>
        <pt x="1579" y="1274" on="1"/>
        <pt x="1579" y="1048" on="1"/>
        <pt x="1381" y="1048" on="1"/>
        <pt x="1381" y="-89" on="1"/>
        <pt x="1115" y="-89" on="1"/>
        <pt x="1072" y="29" on="0"/>
        <pt x="903" y="29" on="1"/>
        <pt x="854" y="29" on="0"/>
        <pt x="719" y="12" on="1"/>
        <pt x="583" y="-6" on="0"/>
        <pt x="500" y="-6" on="1"/>
        <pt x="286" y="-6" on="0"/>
        <pt x="64" y="203" on="0"/>
        <pt x="64" y="409" on="1"/>
        <pt x="64" y="502" on="0"/>
        <pt x="87" y="592" on="1"/>
        <pt x="345" y="557" on="1"/>
        <pt x="338" y="529" on="0"/>
        <pt x="327" y="452" on="0"/>
        <pt x="327" y="428" on="1"/>
        <pt x="327" y="325" on="0"/>
        <pt x="420" y="221" on="0"/>
        <pt x="543" y="221" on="1"/>
        <pt x="610" y="221" on="0"/>
        <pt x="722" y="239" on="1"/>
        <pt x="835" y="256" on="0"/>
        <pt x="894" y="256" on="1"/>
        <pt x="962" y="256" on="0"/>
        <pt x="1074" y="199" on="0"/>
        <pt x="1111" y="145" on="1"/>
        <pt x="1111" y="801" on="1"/>
        <pt x="991" y="943" on="0"/>
        <pt x="790" y="1062" on="0"/>
        <pt x="689" y="1062" on="1"/>
        <pt x="626" y="1062" on="0"/>
        <pt x="522" y="1018" on="0"/>
        <pt x="460" y="958" on="1"/>
        <pt x="530" y="988" on="0"/>
        <pt x="618" y="988" on="1"/>
        <pt x="748" y="988" on="0"/>
        <pt x="901" y="847" on="0"/>
        <pt x="901" y="734" on="1"/>
        <pt x="901" y="626" on="0"/>
        <pt x="742" y="433" on="0"/>
        <pt x="582" y="338" on="1"/>
      </contour>
      <contour>
        <pt x="1039" y="1274" on="1"/>
      </contour>
    </TTGlyph>
    <TTGlyph name="glyph00202" xMin="-21" yMin="-240" xMax="1476" yMax="1274">
      <contour>
        <pt x="1008" y="-11" on="1"/>
        <pt x="1008" y="18" on="1"/>
        <pt x="867" y="160" on="0"/>
        <pt x="541" y="310" on="0"/>
        <pt x="308" y="342" on="1"/>
        <pt x="222" y="531" on="1"/>
        <pt x="287" y="577" on="0"/>
        <pt x="400" y="646" on="1"/>
        <pt x="293" y="668" on="0"/>
        <pt x="180" y="793" on="0"/>
        <pt x="180" y="879" on="1"/>
        <pt x="180" y="978" on="0"/>
        <pt x="244" y="1048" on="1"/>
        <pt x="-21" y="1048" on="1"/>
        <pt x="-21" y="1274" on="1"/>
        <pt x="1476" y="1274" on="1"/>
        <pt x="1476" y="1048" on="1"/>
        <pt x="1278" y="1048" on="1"/>
        <pt x="1278" y="-240" on="1"/>
        <pt x="1012" y="-240" on="1"/>
        <pt x="986" y="-179" on="0"/>
        <pt x="877" y="-122" on="0"/>
        <pt x="785" y="-122" on="1"/>
        <pt x="759" y="-122" on="0"/>
        <pt x="709" y="-127" on="0"/>
        <pt x="623" y="-139" on="1"/>
        <pt x="504" y="-157" on="0"/>
        <pt x="432" y="-157" on="1"/>
        <pt x="240" y="-157" on="0"/>
        <pt x="49" y="10" on="0"/>
        <pt x="49" y="178" on="1"/>
        <pt x="49" y="236" on="0"/>
        <pt x="62" y="289" on="1"/>
        <pt x="320" y="261" on="1"/>
        <pt x="312" y="232" on="0"/>
        <pt x="312" y="205" on="1"/>
        <pt x="312" y="137" on="0"/>
        <pt x="393" y="70" on="0"/>
        <pt x="487" y="70" on="1"/>
        <pt x="540" y="70" on="0"/>
        <pt x="631" y="88" on="1"/>
        <pt x="722" y="105" on="0"/>
        <pt x="770" y="105" on="1"/>
        <pt x="832" y="105" on="0"/>
        <pt x="938" y="56" on="0"/>
      </contour>
      <contour>
        <pt x="886" y="682" on="1"/>
        <pt x="660" y="565" on="0"/>
        <pt x="573" y="506" on="1"/>
        <pt x="837" y="437" on="0"/>
        <pt x="1012" y="276" on="1"/>
        <pt x="1008" y="386" on="0"/>
        <pt x="1008" y="414" on="1"/>
        <pt x="1008" y="1048" on="1"/>
        <pt x="555" y="1048" on="1"/>
        <pt x="459" y="984" on="0"/>
        <pt x="459" y="900" on="1"/>
        <pt x="459" y="849" on="0"/>
        <pt x="521" y="794" on="0"/>
        <pt x="576" y="794" on="1"/>
        <pt x="623" y="794" on="0"/>
        <pt x="713" y="823" on="0"/>
        <pt x="772" y="858" on="1"/>
      </contour>
    </TTGlyph>
    <TTGlyph name="glyph00203" xMin="32" yMin="-440" xMax="1464" yMax="1287">
      <contour>
        <pt x="431" y="1276" on="1"/>
        <pt x="524" y="1150" on="0"/>
        <pt x="607" y="1083" on="1"/>
        <pt x="655" y="1182" on="0"/>
        <pt x="841" y="1287" on="0"/>
        <pt x="965" y="1287" on="1"/>
        <pt x="1104" y="1287" on="0"/>
        <pt x="1257" y="1159" on="0"/>
        <pt x="1257" y="1043" on="1"/>
        <pt x="1257" y="927" on="0"/>
        <pt x="1059" y="795" on="0"/>
        <pt x="893" y="795" on="1"/>
        <pt x="858" y="795" on="0"/>
        <pt x="825" y="797" on="1"/>
        <pt x="825" y="756" on="1"/>
        <pt x="825" y="712" on="0"/>
        <pt x="850" y="678" on="0"/>
        <pt x="878" y="678" on="1"/>
        <pt x="935" y="678" on="0"/>
        <pt x="1032" y="730" on="0"/>
        <pt x="1107" y="799" on="1"/>
        <pt x="1349" y="821" on="1"/>
        <pt x="1401" y="748" on="0"/>
        <pt x="1464" y="548" on="0"/>
        <pt x="1464" y="458" on="1"/>
        <pt x="1464" y="359" on="0"/>
        <pt x="1397" y="200" on="0"/>
        <pt x="1330" y="141" on="1"/>
        <pt x="1330" y="-440" on="1"/>
        <pt x="1064" y="-440" on="1"/>
        <pt x="1039" y="-379" on="0"/>
        <pt x="925" y="-322" on="0"/>
        <pt x="832" y="-322" on="1"/>
        <pt x="809" y="-322" on="0"/>
        <pt x="766" y="-326" on="0"/>
        <pt x="675" y="-339" on="1"/>
        <pt x="553" y="-357" on="0"/>
        <pt x="470" y="-357" on="1"/>
        <pt x="274" y="-357" on="0"/>
        <pt x="78" y="-164" on="0"/>
        <pt x="78" y="28" on="1"/>
        <pt x="78" y="116" on="0"/>
        <pt x="95" y="191" on="1"/>
        <pt x="353" y="163" on="1"/>
        <pt x="341" y="117" on="0"/>
        <pt x="341" y="40" on="1"/>
        <pt x="341" y="-46" on="0"/>
        <pt x="425" y="-130" on="0"/>
        <pt x="521" y="-130" on="1"/>
        <pt x="572" y="-130" on="0"/>
        <pt x="663" y="-112" on="1"/>
        <pt x="754" y="-95" on="0"/>
        <pt x="815" y="-95" on="1"/>
        <pt x="972" y="-95" on="0"/>
        <pt x="1060" y="-206" on="1"/>
        <pt x="1060" y="-20" on="1"/>
        <pt x="1060" y="1" on="0"/>
        <pt x="1061" y="22" on="1"/>
        <pt x="981" y="9" on="0"/>
        <pt x="900" y="9" on="1"/>
        <pt x="560" y="9" on="0"/>
        <pt x="143" y="431" on="0"/>
        <pt x="32" y="848" on="1"/>
        <pt x="289" y="919" on="1"/>
        <pt x="378" y="584" on="0"/>
        <pt x="663" y="245" on="0"/>
        <pt x="875" y="245" on="1"/>
        <pt x="1026" y="245" on="0"/>
        <pt x="1195" y="370" on="0"/>
        <pt x="1195" y="482" on="1"/>
        <pt x="1195" y="538" on="0"/>
        <pt x="1170" y="587" on="1"/>
        <pt x="1016" y="447" on="0"/>
        <pt x="837" y="447" on="1"/>
        <pt x="694" y="447" on="0"/>
        <pt x="562" y="603" on="0"/>
        <pt x="562" y="763" on="1"/>
        <pt x="562" y="862" on="1"/>
        <pt x="394" y="937" on="0"/>
        <pt x="241" y="1140" on="1"/>
      </contour>
      <contour>
        <pt x="828" y="976" on="1"/>
        <pt x="852" y="971" on="0"/>
        <pt x="890" y="971" on="1"/>
        <pt x="954" y="971" on="0"/>
        <pt x="1024" y="1016" on="0"/>
        <pt x="1024" y="1051" on="1"/>
        <pt x="1024" y="1081" on="0"/>
        <pt x="985" y="1112" on="0"/>
        <pt x="953" y="1112" on="1"/>
        <pt x="904" y="1112" on="0"/>
        <pt x="837" y="1039" on="0"/>
      </contour>
      <contour>
        <pt x="753" y="1274" on="1"/>
      </contour>
      <contour>
        <pt x="1060" y="0" on="1"/>
      </contour>
    </TTGlyph>
    <TTGlyph name="glyph00204" xMin="-21" yMin="-89" xMax="1529" yMax="1274">
      <contour>
        <pt x="1238" y="1048" on="1"/>
        <pt x="1240" y="1033" on="0"/>
        <pt x="1240" y="1019" on="1"/>
        <pt x="1240" y="912" on="0"/>
        <pt x="1074" y="811" on="0"/>
        <pt x="901" y="811" on="1"/>
        <pt x="848" y="811" on="0"/>
        <pt x="789" y="822" on="1"/>
        <pt x="791" y="776" on="0"/>
        <pt x="841" y="730" on="0"/>
        <pt x="898" y="730" on="1"/>
        <pt x="978" y="730" on="0"/>
        <pt x="1119" y="792" on="0"/>
        <pt x="1198" y="854" on="1"/>
        <pt x="1384" y="841" on="1"/>
        <pt x="1411" y="793" on="0"/>
        <pt x="1440" y="673" on="0"/>
        <pt x="1440" y="623" on="1"/>
        <pt x="1440" y="545" on="0"/>
        <pt x="1380" y="418" on="0"/>
        <pt x="1320" y="369" on="1"/>
        <pt x="1320" y="-89" on="1"/>
        <pt x="1054" y="-89" on="1"/>
        <pt x="1019" y="-26" on="0"/>
        <pt x="908" y="29" on="0"/>
        <pt x="822" y="29" on="1"/>
        <pt x="799" y="29" on="0"/>
        <pt x="756" y="25" on="0"/>
        <pt x="665" y="12" on="1"/>
        <pt x="543" y="-6" on="0"/>
        <pt x="460" y="-6" on="1"/>
        <pt x="262" y="-6" on="0"/>
        <pt x="64" y="158" on="0"/>
        <pt x="64" y="323" on="1"/>
        <pt x="64" y="407" on="0"/>
        <pt x="77" y="462" on="1"/>
        <pt x="335" y="434" on="1"/>
        <pt x="327" y="398" on="0"/>
        <pt x="327" y="350" on="1"/>
        <pt x="327" y="284" on="0"/>
        <pt x="416" y="221" on="0"/>
        <pt x="511" y="221" on="1"/>
        <pt x="554" y="221" on="0"/>
        <pt x="644" y="229" on="1"/>
        <pt x="733" y="237" on="0"/>
        <pt x="776" y="237" on="1"/>
        <pt x="855" y="237" on="0"/>
        <pt x="980" y="200" on="0"/>
        <pt x="1060" y="145" on="1"/>
        <pt x="1060" y="185" on="1"/>
        <pt x="1060" y="237" on="0"/>
        <pt x="1062" y="266" on="1"/>
        <pt x="998" y="255" on="0"/>
        <pt x="911" y="255" on="1"/>
        <pt x="615" y="255" on="0"/>
        <pt x="231" y="558" on="0"/>
        <pt x="132" y="858" on="1"/>
        <pt x="385" y="931" on="1"/>
        <pt x="454" y="686" on="0"/>
        <pt x="686" y="461" on="0"/>
        <pt x="886" y="461" on="1"/>
        <pt x="1027" y="461" on="0"/>
        <pt x="1186" y="555" on="0"/>
        <pt x="1189" y="642" on="1"/>
        <pt x="1054" y="548" on="0"/>
        <pt x="888" y="548" on="1"/>
        <pt x="738" y="548" on="0"/>
        <pt x="573" y="695" on="0"/>
        <pt x="573" y="820" on="1"/>
        <pt x="573" y="946" on="0"/>
        <pt x="644" y="1050" on="1"/>
        <pt x="616" y="1048" on="0"/>
        <pt x="547" y="1048" on="1"/>
        <pt x="-21" y="1048" on="1"/>
        <pt x="-21" y="1274" on="1"/>
        <pt x="1529" y="1274" on="1"/>
        <pt x="1529" y="1048" on="1"/>
      </contour>
      <contour>
        <pt x="822" y="976" on="1"/>
        <pt x="863" y="965" on="0"/>
        <pt x="909" y="965" on="1"/>
        <pt x="973" y="965" on="0"/>
        <pt x="1034" y="999" on="0"/>
        <pt x="1034" y="1037" on="1"/>
        <pt x="1034" y="1087" on="0"/>
        <pt x="966" y="1087" on="1"/>
        <pt x="925" y="1087" on="0"/>
        <pt x="849" y="1028" on="0"/>
      </contour>
      <contour>
        <pt x="778" y="1274" on="1"/>
      </contour>
      <contour>
        <pt x="1060" y="0" on="1"/>
      </contour>
    </TTGlyph>
    <TTGlyph name="glyph00205" xMin="-20" yMin="-390" xMax="1478" yMax="1274">
      <contour>
        <pt x="1010" y="-9" on="1"/>
        <pt x="1010" y="72" on="0"/>
        <pt x="1014" y="125" on="1"/>
        <pt x="905" y="80" on="0"/>
        <pt x="789" y="80" on="1"/>
        <pt x="645" y="80" on="0"/>
        <pt x="487" y="167" on="0"/>
        <pt x="408" y="333" on="0"/>
        <pt x="408" y="490" on="1"/>
        <pt x="408" y="1048" on="1"/>
        <pt x="-20" y="1048" on="1"/>
        <pt x="-20" y="1274" on="1"/>
        <pt x="1478" y="1274" on="1"/>
        <pt x="1478" y="1048" on="1"/>
        <pt x="678" y="1048" on="1"/>
        <pt x="678" y="1035" on="1"/>
        <pt x="723" y="978" on="0"/>
        <pt x="896" y="899" on="0"/>
        <pt x="1023" y="899" on="1"/>
        <pt x="1054" y="899" on="1"/>
        <pt x="1196" y="899" on="0"/>
        <pt x="1328" y="822" on="0"/>
        <pt x="1377" y="708" on="0"/>
        <pt x="1377" y="646" on="1"/>
        <pt x="1377" y="559" on="0"/>
        <pt x="1328" y="405" on="0"/>
        <pt x="1280" y="337" on="1"/>
        <pt x="1280" y="-390" on="1"/>
        <pt x="1014" y="-390" on="1"/>
        <pt x="968" y="-272" on="0"/>
        <pt x="787" y="-272" on="1"/>
        <pt x="764" y="-272" on="0"/>
        <pt x="723" y="-276" on="0"/>
        <pt x="633" y="-289" on="1"/>
        <pt x="515" y="-307" on="0"/>
        <pt x="433" y="-307" on="1"/>
        <pt x="237" y="-307" on="0"/>
        <pt x="49" y="-85" on="0"/>
        <pt x="49" y="132" on="1"/>
        <pt x="49" y="237" on="0"/>
        <pt x="66" y="318" on="1"/>
        <pt x="324" y="290" on="1"/>
        <pt x="312" y="234" on="0"/>
        <pt x="312" y="135" on="1"/>
        <pt x="312" y="26" on="0"/>
        <pt x="393" y="-80" on="0"/>
        <pt x="487" y="-80" on="1"/>
        <pt x="524" y="-80" on="0"/>
        <pt x="584" y="-71" on="0"/>
        <pt x="625" y="-62" on="1"/>
        <pt x="714" y="-45" on="0"/>
        <pt x="772" y="-45" on="1"/>
        <pt x="843" y="-45" on="0"/>
        <pt x="968" y="-100" on="0"/>
        <pt x="1010" y="-156" on="1"/>
      </contour>
      <contour>
        <pt x="678" y="772" on="1"/>
        <pt x="678" y="490" on="1"/>
        <pt x="678" y="416" on="0"/>
        <pt x="698" y="344" on="0"/>
        <pt x="754" y="306" on="0"/>
        <pt x="807" y="306" on="1"/>
        <pt x="917" y="306" on="0"/>
        <pt x="1105" y="494" on="0"/>
        <pt x="1105" y="590" on="1"/>
        <pt x="1105" y="668" on="0"/>
        <pt x="1010" y="668" on="1"/>
        <pt x="991" y="668" on="1"/>
        <pt x="922" y="668" on="0"/>
        <pt x="824" y="691" on="0"/>
        <pt x="716" y="740" on="0"/>
      </contour>
      <contour>
        <pt x="750" y="1274" on="1"/>
      </contour>
    </TTGlyph>
    <TTGlyph name="glyph00206" xMin="-21" yMin="-359" xMax="1702" yMax="1274">
      <contour>
        <pt x="588" y="1048" on="1"/>
        <pt x="588" y="1042" on="1"/>
        <pt x="676" y="965" on="0"/>
        <pt x="820" y="965" on="1"/>
        <pt x="962" y="965" on="1"/>
        <pt x="1006" y="968" on="1"/>
        <pt x="1055" y="971" on="0"/>
        <pt x="1090" y="971" on="1"/>
        <pt x="1246" y="971" on="0"/>
        <pt x="1464" y="873" on="0"/>
        <pt x="1573" y="696" on="0"/>
        <pt x="1573" y="600" on="1"/>
        <pt x="1573" y="464" on="0"/>
        <pt x="1435" y="260" on="0"/>
        <pt x="1300" y="198" on="1"/>
        <pt x="1485" y="164" on="0"/>
        <pt x="1682" y="98" on="1"/>
        <pt x="1609" y="-115" on="1"/>
        <pt x="1431" y="-53" on="0"/>
        <pt x="1291" y="-19" on="1"/>
        <pt x="1291" y="-359" on="1"/>
        <pt x="1025" y="-359" on="1"/>
        <pt x="979" y="-241" on="0"/>
        <pt x="795" y="-241" on="1"/>
        <pt x="772" y="-241" on="0"/>
        <pt x="730" y="-245" on="0"/>
        <pt x="640" y="-258" on="1"/>
        <pt x="520" y="-276" on="0"/>
        <pt x="437" y="-276" on="1"/>
        <pt x="239" y="-276" on="0"/>
        <pt x="49" y="-78" on="0"/>
        <pt x="49" y="117" on="1"/>
        <pt x="49" y="211" on="0"/>
        <pt x="66" y="284" on="1"/>
        <pt x="324" y="256" on="1"/>
        <pt x="312" y="210" on="0"/>
        <pt x="312" y="128" on="1"/>
        <pt x="312" y="37" on="0"/>
        <pt x="397" y="-49" on="0"/>
        <pt x="489" y="-49" on="1"/>
        <pt x="539" y="-49" on="0"/>
        <pt x="630" y="-31" on="1"/>
        <pt x="720" y="-14" on="0"/>
        <pt x="779" y="-14" on="1"/>
        <pt x="854" y="-14" on="0"/>
        <pt x="979" y="-70" on="0"/>
        <pt x="1021" y="-125" on="1"/>
        <pt x="1021" y="-78" on="1"/>
        <pt x="1021" y="-23" on="0"/>
        <pt x="1024" y="37" on="1"/>
        <pt x="786" y="78" on="0"/>
        <pt x="491" y="95" on="1"/>
        <pt x="518" y="322" on="1"/>
        <pt x="654" y="299" on="0"/>
        <pt x="805" y="299" on="1"/>
        <pt x="1052" y="299" on="0"/>
        <pt x="1305" y="443" on="0"/>
        <pt x="1305" y="583" on="1"/>
        <pt x="1305" y="714" on="0"/>
        <pt x="1178" y="761" on="1"/>
        <pt x="1178" y="757" on="1"/>
        <pt x="1178" y="657" on="0"/>
        <pt x="1047" y="489" on="0"/>
        <pt x="815" y="394" on="0"/>
        <pt x="673" y="394" on="1"/>
        <pt x="558" y="394" on="0"/>
        <pt x="428" y="446" on="0"/>
        <pt x="359" y="529" on="0"/>
        <pt x="328" y="635" on="0"/>
        <pt x="328" y="735" on="1"/>
        <pt x="328" y="1048" on="1"/>
        <pt x="-21" y="1048" on="1"/>
        <pt x="-21" y="1274" on="1"/>
        <pt x="1702" y="1274" on="1"/>
        <pt x="1702" y="1048" on="1"/>
      </contour>
      <contour>
        <pt x="584" y="840" on="1"/>
        <pt x="588" y="812" on="0"/>
        <pt x="588" y="779" on="1"/>
        <pt x="588" y="707" on="1"/>
        <pt x="588" y="663" on="0"/>
        <pt x="608" y="623" on="0"/>
        <pt x="651" y="601" on="0"/>
        <pt x="691" y="601" on="1"/>
        <pt x="781" y="601" on="0"/>
        <pt x="918" y="683" on="0"/>
        <pt x="918" y="726" on="1"/>
        <pt x="918" y="749" on="0"/>
        <pt x="883" y="774" on="0"/>
        <pt x="852" y="774" on="1"/>
        <pt x="792" y="774" on="1"/>
        <pt x="683" y="774" on="0"/>
      </contour>
      <contour>
        <pt x="848" y="1274" on="1"/>
      </contour>
      <contour>
        <pt x="1021" y="0" on="1"/>
      </contour>
    </TTGlyph>
    <TTGlyph name="glyph00207" xMin="-21" yMin="-300" xMax="2082" yMax="1274">
      <contour>
        <pt x="1471" y="1048" on="1"/>
        <pt x="1390" y="1048" on="0"/>
        <pt x="1341" y="1052" on="1"/>
        <pt x="1441" y="921" on="0"/>
        <pt x="1706" y="921" on="1"/>
        <pt x="1750" y="921" on="0"/>
        <pt x="1815" y="927" on="1"/>
        <pt x="1941" y="725" on="1"/>
        <pt x="1892" y="622" on="0"/>
        <pt x="1849" y="398" on="0"/>
        <pt x="1849" y="250" on="1"/>
        <pt x="1849" y="16" on="0"/>
        <pt x="1930" y="-257" on="1"/>
        <pt x="1663" y="-300" on="1"/>
        <pt x="1550" y="-240" on="0"/>
        <pt x="1363" y="-192" on="0"/>
        <pt x="1255" y="-192" on="1"/>
        <pt x="1193" y="-192" on="0"/>
        <pt x="1052" y="-213" on="0"/>
        <pt x="949" y="-234" on="1"/>
        <pt x="740" y="-276" on="0"/>
        <pt x="564" y="-276" on="1"/>
        <pt x="308" y="-276" on="0"/>
        <pt x="74" y="-91" on="0"/>
        <pt x="74" y="103" on="1"/>
        <pt x="74" y="178" on="0"/>
        <pt x="89" y="253" on="1"/>
        <pt x="347" y="229" on="1"/>
        <pt x="337" y="184" on="0"/>
        <pt x="337" y="132" on="1"/>
        <pt x="337" y="46" on="0"/>
        <pt x="437" y="-45" on="0"/>
        <pt x="583" y="-45" on="1"/>
        <pt x="699" y="-45" on="0"/>
        <pt x="911" y="-3" on="1"/>
        <pt x="1122" y="39" on="0"/>
        <pt x="1231" y="39" on="1"/>
        <pt x="1339" y="39" on="0"/>
        <pt x="1522" y="-21" on="0"/>
        <pt x="1614" y="-83" on="1"/>
        <pt x="1577" y="98" on="0"/>
        <pt x="1577" y="287" on="1"/>
        <pt x="1577" y="538" on="0"/>
        <pt x="1630" y="702" on="1"/>
        <pt x="1235" y="750" on="0"/>
        <pt x="1083" y="1003" on="1"/>
        <pt x="958" y="946" on="0"/>
        <pt x="834" y="824" on="0"/>
        <pt x="834" y="772" on="1"/>
        <pt x="834" y="734" on="0"/>
        <pt x="875" y="692" on="0"/>
        <pt x="910" y="692" on="1"/>
        <pt x="958" y="692" on="0"/>
        <pt x="1042" y="729" on="0"/>
        <pt x="1106" y="779" on="1"/>
        <pt x="1405" y="690" on="1"/>
        <pt x="1438" y="595" on="0"/>
        <pt x="1438" y="487" on="1"/>
        <pt x="1438" y="367" on="0"/>
        <pt x="1318" y="170" on="0"/>
        <pt x="1083" y="62" on="0"/>
        <pt x="917" y="62" on="1"/>
        <pt x="679" y="62" on="0"/>
        <pt x="349" y="247" on="0"/>
        <pt x="121" y="611" on="0"/>
        <pt x="47" y="877" on="1"/>
        <pt x="304" y="948" on="1"/>
        <pt x="395" y="616" on="0"/>
        <pt x="681" y="297" on="0"/>
        <pt x="901" y="297" on="1"/>
        <pt x="1034" y="297" on="0"/>
        <pt x="1172" y="393" on="0"/>
        <pt x="1172" y="484" on="1"/>
        <pt x="1172" y="521" on="0"/>
        <pt x="1165" y="559" on="1"/>
        <pt x="1033" y="466" on="0"/>
        <pt x="880" y="466" on="1"/>
        <pt x="732" y="466" on="0"/>
        <pt x="564" y="605" on="0"/>
        <pt x="564" y="729" on="1"/>
        <pt x="564" y="831" on="0"/>
        <pt x="672" y="997" on="0"/>
        <pt x="776" y="1051" on="1"/>
        <pt x="719" y="1048" on="0"/>
        <pt x="633" y="1048" on="1"/>
        <pt x="-21" y="1048" on="1"/>
        <pt x="-21" y="1274" on="1"/>
        <pt x="2082" y="1274" on="1"/>
        <pt x="2082" y="1048" on="1"/>
      </contour>
      <contour>
        <pt x="1368" y="1274" on="1"/>
      </contour>
      <contour>
        <pt x="1643" y="0" on="1"/>
      </contour>
    </TTGlyph>
    <TTGlyph name="glyph00208" xMin="-21" yMin="-240" xMax="1906" yMax="1409">
      <contour>
        <pt x="1660" y="1409" on="1"/>
        <pt x="1706" y="1274" on="1"/>
        <pt x="1906" y="1274" on="1"/>
        <pt x="1906" y="1048" on="1"/>
        <pt x="1708" y="1048" on="1"/>
        <pt x="1708" y="151" on="1"/>
        <pt x="1439" y="151" on="1"/>
        <pt x="1360" y="265" on="0"/>
        <pt x="1248" y="351" on="1"/>
        <pt x="1248" y="-240" on="1"/>
        <pt x="982" y="-240" on="1"/>
        <pt x="957" y="-179" on="0"/>
        <pt x="851" y="-122" on="0"/>
        <pt x="762" y="-122" on="1"/>
        <pt x="736" y="-122" on="0"/>
        <pt x="685" y="-127" on="0"/>
        <pt x="605" y="-139" on="1"/>
        <pt x="490" y="-157" on="0"/>
        <pt x="420" y="-157" on="1"/>
        <pt x="235" y="-157" on="0"/>
        <pt x="49" y="20" on="0"/>
        <pt x="49" y="192" on="1"/>
        <pt x="49" y="262" on="0"/>
        <pt x="66" y="329" on="1"/>
        <pt x="324" y="301" on="1"/>
        <pt x="312" y="265" on="0"/>
        <pt x="312" y="212" on="1"/>
        <pt x="312" y="140" on="0"/>
        <pt x="393" y="70" on="0"/>
        <pt x="479" y="70" on="1"/>
        <pt x="530" y="70" on="0"/>
        <pt x="617" y="88" on="1"/>
        <pt x="704" y="105" on="0"/>
        <pt x="750" y="105" on="1"/>
        <pt x="809" y="105" on="0"/>
        <pt x="913" y="55" on="0"/>
        <pt x="980" y="-11" on="1"/>
        <pt x="980" y="3" on="1"/>
        <pt x="866" y="166" on="0"/>
        <pt x="503" y="377" on="0"/>
        <pt x="272" y="416" on="1"/>
        <pt x="170" y="657" on="1"/>
        <pt x="590" y="891" on="0"/>
        <pt x="985" y="1003" on="1"/>
        <pt x="985" y="1048" on="1"/>
        <pt x="-21" y="1048" on="1"/>
        <pt x="-21" y="1274" on="1"/>
        <pt x="1248" y="1274" on="1"/>
        <pt x="1248" y="601" on="1"/>
        <pt x="1357" y="535" on="0"/>
        <pt x="1440" y="448" on="1"/>
        <pt x="1438" y="499" on="0"/>
        <pt x="1438" y="559" on="1"/>
        <pt x="1438" y="1409" on="1"/>
      </contour>
      <contour>
        <pt x="979" y="760" on="1"/>
        <pt x="780" y="697" on="0"/>
        <pt x="513" y="569" on="1"/>
        <pt x="644" y="542" on="0"/>
        <pt x="888" y="405" on="0"/>
        <pt x="981" y="309" on="1"/>
        <pt x="979" y="344" on="0"/>
        <pt x="979" y="427" on="1"/>
      </contour>
      <contour>
        <pt x="1366" y="1274" on="1"/>
      </contour>
      <contour>
        <pt x="979" y="0" on="1"/>
      </contour>
    </TTGlyph>
    <TTGlyph name="glyph00209" xMin="64" yMin="-478" xMax="2102" yMax="1286">
      <component glyphName="uni099E" x="0" y="0" flags="0x204"/>
      <component glyphName="glyph00128" x="1634" y="0" flags="0x4"/>
    </TTGlyph>
    <TTGlyph name="glyph00210" xMin="-21" yMin="-390" xMax="1478" yMax="1868">
      <contour>
        <pt x="1478" y="1274" on="1"/>
        <pt x="1478" y="1048" on="1"/>
        <pt x="678" y="1048" on="1"/>
        <pt x="678" y="489" on="1"/>
        <pt x="678" y="416" on="0"/>
        <pt x="698" y="344" on="0"/>
        <pt x="754" y="306" on="0"/>
        <pt x="807" y="306" on="1"/>
        <pt x="879" y="306" on="0"/>
        <pt x="1007" y="388" on="0"/>
        <pt x="1111" y="517" on="0"/>
        <pt x="1111" y="588" on="1"/>
        <pt x="1111" y="676" on="0"/>
        <pt x="1007" y="676" on="1"/>
        <pt x="962" y="676" on="0"/>
        <pt x="919" y="668" on="1"/>
        <pt x="883" y="890" on="1"/>
        <pt x="977" y="912" on="0"/>
        <pt x="1076" y="912" on="1"/>
        <pt x="1221" y="912" on="0"/>
        <pt x="1377" y="769" on="0"/>
        <pt x="1377" y="638" on="1"/>
        <pt x="1377" y="558" on="0"/>
        <pt x="1328" y="409" on="0"/>
        <pt x="1280" y="339" on="1"/>
        <pt x="1280" y="-390" on="1"/>
        <pt x="1014" y="-390" on="1"/>
        <pt x="968" y="-272" on="0"/>
        <pt x="787" y="-272" on="1"/>
        <pt x="764" y="-272" on="0"/>
        <pt x="723" y="-276" on="0"/>
        <pt x="633" y="-289" on="1"/>
        <pt x="515" y="-307" on="0"/>
        <pt x="433" y="-307" on="1"/>
        <pt x="237" y="-307" on="0"/>
        <pt x="49" y="-85" on="0"/>
        <pt x="49" y="132" on="1"/>
        <pt x="49" y="237" on="0"/>
        <pt x="66" y="318" on="1"/>
        <pt x="324" y="290" on="1"/>
        <pt x="312" y="234" on="0"/>
        <pt x="312" y="135" on="1"/>
        <pt x="312" y="26" on="0"/>
        <pt x="393" y="-80" on="0"/>
        <pt x="487" y="-80" on="1"/>
        <pt x="524" y="-80" on="0"/>
        <pt x="584" y="-71" on="0"/>
        <pt x="625" y="-62" on="1"/>
        <pt x="714" y="-45" on="0"/>
        <pt x="772" y="-45" on="1"/>
        <pt x="843" y="-45" on="0"/>
        <pt x="968" y="-100" on="0"/>
        <pt x="1010" y="-156" on="1"/>
        <pt x="1010" y="-9" on="1"/>
        <pt x="1010" y="72" on="0"/>
        <pt x="1014" y="125" on="1"/>
        <pt x="905" y="80" on="0"/>
        <pt x="789" y="80" on="1"/>
        <pt x="626" y="80" on="0"/>
        <pt x="466" y="190" on="0"/>
        <pt x="408" y="361" on="0"/>
        <pt x="408" y="490" on="1"/>
        <pt x="408" y="1048" on="1"/>
        <pt x="-21" y="1048" on="1"/>
        <pt x="-21" y="1274" on="1"/>
        <pt x="1021" y="1274" on="1"/>
        <pt x="1017" y="1339" on="0"/>
        <pt x="953" y="1392" on="0"/>
        <pt x="878" y="1392" on="1"/>
        <pt x="726" y="1392" on="1"/>
        <pt x="473" y="1392" on="0"/>
        <pt x="247" y="1563" on="0"/>
        <pt x="247" y="1748" on="1"/>
        <pt x="247" y="1801" on="0"/>
        <pt x="258" y="1868" on="1"/>
        <pt x="514" y="1852" on="1"/>
        <pt x="510" y="1823" on="0"/>
        <pt x="510" y="1791" on="1"/>
        <pt x="510" y="1719" on="0"/>
        <pt x="552" y="1647" on="0"/>
        <pt x="635" y="1618" on="0"/>
        <pt x="720" y="1618" on="1"/>
        <pt x="881" y="1618" on="1"/>
        <pt x="1001" y="1618" on="0"/>
        <pt x="1133" y="1584" on="0"/>
        <pt x="1226" y="1506" on="0"/>
        <pt x="1273" y="1372" on="0"/>
        <pt x="1277" y="1274" on="1"/>
      </contour>
    </TTGlyph>
    <TTGlyph name="glyph00211" xMin="-21" yMin="-390" xMax="1579" yMax="1878">
      <contour>
        <pt x="-21" y="1048" on="1"/>
        <pt x="-21" y="1274" on="1"/>
        <pt x="667" y="1274" on="1"/>
        <pt x="589" y="1368" on="0"/>
        <pt x="521" y="1515" on="0"/>
        <pt x="521" y="1590" on="1"/>
        <pt x="521" y="1669" on="0"/>
        <pt x="608" y="1809" on="0"/>
        <pt x="702" y="1878" on="1"/>
        <pt x="898" y="1689" on="1"/>
        <pt x="841" y="1644" on="0"/>
        <pt x="791" y="1566" on="0"/>
        <pt x="791" y="1517" on="1"/>
        <pt x="791" y="1468" on="0"/>
        <pt x="869" y="1356" on="0"/>
        <pt x="952" y="1274" on="1"/>
        <pt x="1579" y="1274" on="1"/>
        <pt x="1579" y="1048" on="1"/>
        <pt x="1333" y="1048" on="1"/>
        <pt x="1267" y="1048" on="0"/>
        <pt x="1208" y="1052" on="1"/>
        <pt x="1337" y="932" on="0"/>
        <pt x="1466" y="674" on="0"/>
        <pt x="1466" y="536" on="1"/>
        <pt x="1466" y="428" on="0"/>
        <pt x="1393" y="260" on="0"/>
        <pt x="1321" y="201" on="1"/>
        <pt x="1321" y="-390" on="1"/>
        <pt x="1055" y="-390" on="1"/>
        <pt x="1009" y="-272" on="0"/>
        <pt x="818" y="-272" on="1"/>
        <pt x="794" y="-272" on="0"/>
        <pt x="750" y="-276" on="0"/>
        <pt x="658" y="-289" on="1"/>
        <pt x="535" y="-307" on="0"/>
        <pt x="449" y="-307" on="1"/>
        <pt x="245" y="-307" on="0"/>
        <pt x="49" y="-107" on="0"/>
        <pt x="49" y="90" on="1"/>
        <pt x="49" y="180" on="0"/>
        <pt x="66" y="258" on="1"/>
        <pt x="324" y="230" on="1"/>
        <pt x="312" y="183" on="0"/>
        <pt x="312" y="100" on="1"/>
        <pt x="312" y="8" on="0"/>
        <pt x="400" y="-80" on="0"/>
        <pt x="497" y="-80" on="1"/>
        <pt x="550" y="-80" on="0"/>
        <pt x="643" y="-62" on="1"/>
        <pt x="737" y="-45" on="0"/>
        <pt x="799" y="-45" on="1"/>
        <pt x="878" y="-45" on="0"/>
        <pt x="1009" y="-102" on="0"/>
        <pt x="1051" y="-156" on="1"/>
        <pt x="1051" y="-9" on="1"/>
        <pt x="1051" y="38" on="0"/>
        <pt x="1053" y="92" on="1"/>
        <pt x="978" y="80" on="0"/>
        <pt x="890" y="80" on="1"/>
        <pt x="706" y="80" on="0"/>
        <pt x="391" y="230" on="0"/>
        <pt x="306" y="360" on="1"/>
        <pt x="374" y="595" on="1"/>
        <pt x="583" y="617" on="0"/>
        <pt x="801" y="769" on="0"/>
        <pt x="801" y="913" on="1"/>
        <pt x="801" y="998" on="0"/>
        <pt x="779" y="1048" on="1"/>
      </contour>
      <contour>
        <pt x="1010" y="964" on="1"/>
        <pt x="1031" y="892" on="0"/>
        <pt x="1031" y="836" on="1"/>
        <pt x="1031" y="666" on="0"/>
        <pt x="825" y="457" on="0"/>
        <pt x="619" y="401" on="1"/>
        <pt x="669" y="359" on="0"/>
        <pt x="809" y="314" on="0"/>
        <pt x="885" y="314" on="1"/>
        <pt x="1026" y="314" on="0"/>
        <pt x="1188" y="443" on="0"/>
        <pt x="1188" y="560" on="1"/>
        <pt x="1188" y="666" on="0"/>
        <pt x="1103" y="856" on="0"/>
      </contour>
      <contour>
        <pt x="1051" y="0" on="1"/>
      </contour>
    </TTGlyph>
    <TTGlyph name="glyph00212" xMin="-21" yMin="-432" xMax="1538" yMax="1274">
      <contour>
        <pt x="826" y="784" on="1"/>
        <pt x="826" y="743" on="0"/>
        <pt x="852" y="711" on="0"/>
        <pt x="878" y="711" on="1"/>
        <pt x="954" y="711" on="0"/>
        <pt x="1062" y="867" on="1"/>
        <pt x="1302" y="912" on="1"/>
        <pt x="1376" y="804" on="0"/>
        <pt x="1442" y="601" on="0"/>
        <pt x="1442" y="491" on="1"/>
        <pt x="1442" y="393" on="0"/>
        <pt x="1375" y="235" on="0"/>
        <pt x="1308" y="175" on="1"/>
        <pt x="1308" y="-432" on="1"/>
        <pt x="1042" y="-432" on="1"/>
        <pt x="996" y="-314" on="0"/>
        <pt x="815" y="-314" on="1"/>
        <pt x="792" y="-314" on="0"/>
        <pt x="751" y="-318" on="0"/>
        <pt x="661" y="-331" on="1"/>
        <pt x="543" y="-349" on="0"/>
        <pt x="461" y="-349" on="1"/>
        <pt x="269" y="-349" on="0"/>
        <pt x="77" y="-156" on="0"/>
        <pt x="77" y="36" on="1"/>
        <pt x="77" y="124" on="0"/>
        <pt x="94" y="199" on="1"/>
        <pt x="352" y="171" on="1"/>
        <pt x="340" y="125" on="0"/>
        <pt x="340" y="48" on="1"/>
        <pt x="340" y="-39" on="0"/>
        <pt x="423" y="-122" on="0"/>
        <pt x="515" y="-122" on="1"/>
        <pt x="552" y="-122" on="0"/>
        <pt x="612" y="-113" on="0"/>
        <pt x="653" y="-104" on="1"/>
        <pt x="742" y="-87" on="0"/>
        <pt x="800" y="-87" on="1"/>
        <pt x="871" y="-87" on="0"/>
        <pt x="996" y="-142" on="0"/>
        <pt x="1038" y="-198" on="1"/>
        <pt x="1038" y="-51" on="1"/>
        <pt x="1038" y="19" on="0"/>
        <pt x="1040" y="53" on="1"/>
        <pt x="975" y="40" on="0"/>
        <pt x="886" y="40" on="1"/>
        <pt x="556" y="40" on="0"/>
        <pt x="143" y="464" on="0"/>
        <pt x="32" y="877" on="1"/>
        <pt x="289" y="948" on="1"/>
        <pt x="381" y="611" on="0"/>
        <pt x="660" y="275" on="0"/>
        <pt x="864" y="275" on="1"/>
        <pt x="1011" y="275" on="0"/>
        <pt x="1173" y="407" on="0"/>
        <pt x="1173" y="526" on="1"/>
        <pt x="1173" y="591" on="0"/>
        <pt x="1152" y="647" on="1"/>
        <pt x="991" y="484" on="0"/>
        <pt x="828" y="484" on="1"/>
        <pt x="744" y="484" on="0"/>
        <pt x="624" y="536" on="0"/>
        <pt x="556" y="667" on="0"/>
        <pt x="556" y="804" on="1"/>
        <pt x="556" y="1048" on="1"/>
        <pt x="-21" y="1048" on="1"/>
        <pt x="-21" y="1274" on="1"/>
        <pt x="1538" y="1274" on="1"/>
        <pt x="1538" y="1048" on="1"/>
        <pt x="826" y="1048" on="1"/>
      </contour>
      <contour>
        <pt x="783" y="1274" on="1"/>
      </contour>
      <contour>
        <pt x="1038" y="0" on="1"/>
      </contour>
    </TTGlyph>
    <TTGlyph name="glyph00213" xMin="-21" yMin="-390" xMax="1478" yMax="1274">
      <contour>
        <pt x="919" y="668" on="1"/>
        <pt x="883" y="890" on="1"/>
        <pt x="977" y="912" on="0"/>
        <pt x="1076" y="912" on="1"/>
        <pt x="1221" y="912" on="0"/>
        <pt x="1377" y="769" on="0"/>
        <pt x="1377" y="638" on="1"/>
        <pt x="1377" y="558" on="0"/>
        <pt x="1328" y="409" on="0"/>
        <pt x="1280" y="339" on="1"/>
        <pt x="1280" y="-390" on="1"/>
        <pt x="1014" y="-390" on="1"/>
        <pt x="968" y="-272" on="0"/>
        <pt x="787" y="-272" on="1"/>
        <pt x="764" y="-272" on="0"/>
        <pt x="723" y="-276" on="0"/>
        <pt x="633" y="-289" on="1"/>
        <pt x="515" y="-307" on="0"/>
        <pt x="433" y="-307" on="1"/>
        <pt x="237" y="-307" on="0"/>
        <pt x="49" y="-85" on="0"/>
        <pt x="49" y="132" on="1"/>
        <pt x="49" y="237" on="0"/>
        <pt x="66" y="318" on="1"/>
        <pt x="324" y="290" on="1"/>
        <pt x="312" y="234" on="0"/>
        <pt x="312" y="135" on="1"/>
        <pt x="312" y="26" on="0"/>
        <pt x="393" y="-80" on="0"/>
        <pt x="487" y="-80" on="1"/>
        <pt x="524" y="-80" on="0"/>
        <pt x="584" y="-71" on="0"/>
        <pt x="625" y="-62" on="1"/>
        <pt x="714" y="-45" on="0"/>
        <pt x="772" y="-45" on="1"/>
        <pt x="843" y="-45" on="0"/>
        <pt x="968" y="-100" on="0"/>
        <pt x="1010" y="-156" on="1"/>
        <pt x="1010" y="-9" on="1"/>
        <pt x="1010" y="72" on="0"/>
        <pt x="1014" y="125" on="1"/>
        <pt x="905" y="80" on="0"/>
        <pt x="789" y="80" on="1"/>
        <pt x="626" y="80" on="0"/>
        <pt x="466" y="190" on="0"/>
        <pt x="408" y="361" on="0"/>
        <pt x="408" y="490" on="1"/>
        <pt x="408" y="1048" on="1"/>
        <pt x="-21" y="1048" on="1"/>
        <pt x="-21" y="1274" on="1"/>
        <pt x="1478" y="1274" on="1"/>
        <pt x="1478" y="1048" on="1"/>
        <pt x="678" y="1048" on="1"/>
        <pt x="678" y="489" on="1"/>
        <pt x="678" y="416" on="0"/>
        <pt x="698" y="344" on="0"/>
        <pt x="754" y="306" on="0"/>
        <pt x="807" y="306" on="1"/>
        <pt x="879" y="306" on="0"/>
        <pt x="1007" y="388" on="0"/>
        <pt x="1111" y="517" on="0"/>
        <pt x="1111" y="588" on="1"/>
        <pt x="1111" y="676" on="0"/>
        <pt x="1007" y="676" on="1"/>
        <pt x="962" y="676" on="0"/>
      </contour>
      <contour>
        <pt x="750" y="1274" on="1"/>
      </contour>
    </TTGlyph>
    <TTGlyph name="glyph00214" xMin="64" yMin="-89" xMax="1365" yMax="1409">
      <contour>
        <pt x="900" y="1080" on="1"/>
        <pt x="897" y="1157" on="0"/>
        <pt x="897" y="1228" on="1"/>
        <pt x="897" y="1409" on="1"/>
        <pt x="1119" y="1409" on="1"/>
        <pt x="1165" y="1274" on="1"/>
        <pt x="1365" y="1274" on="1"/>
        <pt x="1365" y="1048" on="1"/>
        <pt x="1167" y="1048" on="1"/>
        <pt x="1167" y="-89" on="1"/>
        <pt x="901" y="-89" on="1"/>
        <pt x="860" y="29" on="0"/>
        <pt x="704" y="29" on="1"/>
        <pt x="684" y="29" on="0"/>
        <pt x="648" y="25" on="0"/>
        <pt x="570" y="12" on="1"/>
        <pt x="467" y="-6" on="0"/>
        <pt x="397" y="-6" on="1"/>
        <pt x="64" y="-6" on="0"/>
        <pt x="64" y="342" on="1"/>
        <pt x="64" y="426" on="0"/>
        <pt x="81" y="490" on="1"/>
        <pt x="339" y="462" on="1"/>
        <pt x="327" y="425" on="0"/>
        <pt x="327" y="361" on="1"/>
        <pt x="327" y="290" on="0"/>
        <pt x="394" y="221" on="0"/>
        <pt x="470" y="221" on="1"/>
        <pt x="511" y="221" on="0"/>
        <pt x="583" y="239" on="1"/>
        <pt x="655" y="256" on="0"/>
        <pt x="702" y="256" on="1"/>
        <pt x="827" y="256" on="0"/>
        <pt x="897" y="145" on="1"/>
        <pt x="897" y="801" on="1"/>
        <pt x="789" y="928" on="0"/>
        <pt x="594" y="1056" on="0"/>
        <pt x="507" y="1056" on="1"/>
        <pt x="450" y="1056" on="0"/>
        <pt x="384" y="1004" on="0"/>
        <pt x="384" y="958" on="1"/>
        <pt x="384" y="911" on="0"/>
        <pt x="452" y="847" on="0"/>
        <pt x="522" y="822" on="1"/>
        <pt x="401" y="596" on="1"/>
        <pt x="261" y="651" on="0"/>
        <pt x="105" y="850" on="0"/>
        <pt x="105" y="967" on="1"/>
        <pt x="105" y="1114" on="0"/>
        <pt x="305" y="1288" on="0"/>
        <pt x="456" y="1288" on="1"/>
        <pt x="569" y="1288" on="0"/>
        <pt x="776" y="1192" on="0"/>
      </contour>
      <contour>
        <pt x="825" y="1274" on="1"/>
      </contour>
    </TTGlyph>
    <TTGlyph name="glyph00215" xMin="-21" yMin="0" xMax="1562" yMax="1274">
      <contour>
        <pt x="-21" y="1274" on="1"/>
        <pt x="1562" y="1274" on="1"/>
        <pt x="1562" y="1048" on="1"/>
        <pt x="-21" y="1048" on="1"/>
      </contour>
      <contour>
        <pt x="1364" y="0" on="1"/>
        <pt x="1092" y="0" on="1"/>
        <pt x="1068" y="57" on="0"/>
        <pt x="971" y="119" on="0"/>
        <pt x="871" y="119" on="1"/>
        <pt x="812" y="119" on="0"/>
        <pt x="694" y="102" on="1"/>
        <pt x="576" y="84" on="0"/>
        <pt x="500" y="84" on="1"/>
        <pt x="265" y="84" on="0"/>
        <pt x="64" y="296" on="0"/>
        <pt x="64" y="502" on="1"/>
        <pt x="64" y="588" on="0"/>
        <pt x="85" y="690" on="1"/>
        <pt x="349" y="655" on="1"/>
        <pt x="332" y="591" on="0"/>
        <pt x="332" y="522" on="1"/>
        <pt x="332" y="414" on="0"/>
        <pt x="440" y="311" on="0"/>
        <pt x="561" y="311" on="1"/>
        <pt x="620" y="311" on="0"/>
        <pt x="715" y="329" on="1"/>
        <pt x="810" y="346" on="0"/>
        <pt x="865" y="346" on="1"/>
        <pt x="1018" y="346" on="0"/>
        <pt x="1094" y="235" on="1"/>
        <pt x="1094" y="709" on="1"/>
        <pt x="1094" y="753" on="0"/>
        <pt x="1076" y="791" on="0"/>
        <pt x="1036" y="810" on="0"/>
        <pt x="994" y="810" on="1"/>
        <pt x="929" y="810" on="0"/>
        <pt x="780" y="723" on="0"/>
        <pt x="780" y="675" on="1"/>
        <pt x="780" y="634" on="0"/>
        <pt x="840" y="634" on="1"/>
        <pt x="874" y="634" on="0"/>
        <pt x="907" y="641" on="1"/>
        <pt x="935" y="446" on="1"/>
        <pt x="878" y="427" on="0"/>
        <pt x="766" y="427" on="1"/>
        <pt x="650" y="427" on="0"/>
        <pt x="520" y="533" on="0"/>
        <pt x="520" y="633" on="1"/>
        <pt x="520" y="732" on="0"/>
        <pt x="669" y="916" on="0"/>
        <pt x="897" y="1025" on="0"/>
        <pt x="1026" y="1025" on="1"/>
        <pt x="1163" y="1025" on="0"/>
        <pt x="1312" y="941" on="0"/>
        <pt x="1364" y="822" on="0"/>
        <pt x="1364" y="730" on="1"/>
      </contour>
    </TTGlyph>
    <TTGlyph name="glyph00216" xMin="59" yMin="-240" xMax="1554" yMax="1409">
      <contour>
        <pt x="654" y="545" on="1"/>
        <pt x="747" y="521" on="0"/>
        <pt x="954" y="418" on="0"/>
        <pt x="1090" y="299" on="1"/>
        <pt x="1086" y="353" on="0"/>
        <pt x="1086" y="496" on="1"/>
        <pt x="1086" y="1409" on="1"/>
        <pt x="1307" y="1409" on="1"/>
        <pt x="1354" y="1274" on="1"/>
        <pt x="1554" y="1274" on="1"/>
        <pt x="1554" y="1048" on="1"/>
        <pt x="1356" y="1048" on="1"/>
        <pt x="1356" y="-240" on="1"/>
        <pt x="1090" y="-240" on="1"/>
        <pt x="1063" y="-179" on="0"/>
        <pt x="945" y="-122" on="0"/>
        <pt x="847" y="-122" on="1"/>
        <pt x="819" y="-122" on="0"/>
        <pt x="763" y="-127" on="0"/>
        <pt x="674" y="-139" on="1"/>
        <pt x="547" y="-157" on="0"/>
        <pt x="469" y="-157" on="1"/>
        <pt x="266" y="-157" on="0"/>
        <pt x="59" y="26" on="0"/>
        <pt x="59" y="206" on="1"/>
        <pt x="59" y="279" on="0"/>
        <pt x="76" y="349" on="1"/>
        <pt x="334" y="321" on="1"/>
        <pt x="322" y="282" on="0"/>
        <pt x="322" y="224" on="1"/>
        <pt x="322" y="147" on="0"/>
        <pt x="415" y="70" on="0"/>
        <pt x="514" y="70" on="1"/>
        <pt x="572" y="70" on="0"/>
        <pt x="672" y="88" on="1"/>
        <pt x="772" y="105" on="0"/>
        <pt x="824" y="105" on="1"/>
        <pt x="893" y="105" on="0"/>
        <pt x="1009" y="56" on="0"/>
        <pt x="1086" y="-11" on="1"/>
        <pt x="1086" y="20" on="1"/>
        <pt x="915" y="197" on="0"/>
        <pt x="583" y="369" on="0"/>
        <pt x="339" y="408" on="1"/>
        <pt x="273" y="646" on="1"/>
        <pt x="492" y="685" on="0"/>
        <pt x="702" y="812" on="0"/>
        <pt x="702" y="915" on="1"/>
        <pt x="702" y="979" on="0"/>
        <pt x="608" y="1060" on="0"/>
        <pt x="529" y="1060" on="1"/>
        <pt x="472" y="1060" on="0"/>
        <pt x="407" y="1018" on="0"/>
        <pt x="407" y="985" on="1"/>
        <pt x="407" y="934" on="0"/>
        <pt x="465" y="898" on="1"/>
        <pt x="298" y="730" on="1"/>
        <pt x="215" y="782" on="0"/>
        <pt x="137" y="909" on="0"/>
        <pt x="137" y="988" on="1"/>
        <pt x="137" y="1116" on="0"/>
        <pt x="344" y="1281" on="0"/>
        <pt x="526" y="1281" on="1"/>
        <pt x="664" y="1281" on="0"/>
        <pt x="867" y="1191" on="0"/>
        <pt x="972" y="1025" on="0"/>
        <pt x="972" y="924" on="1"/>
        <pt x="972" y="792" on="0"/>
        <pt x="807" y="596" on="0"/>
      </contour>
      <contour>
        <pt x="1014" y="1274" on="1"/>
      </contour>
    </TTGlyph>
    <TTGlyph name="glyph00217" xMin="-22" yMin="-120" xMax="1608" yMax="1274">
      <contour>
        <pt x="-22" y="1048" on="1"/>
        <pt x="-22" y="1274" on="1"/>
        <pt x="1608" y="1274" on="1"/>
        <pt x="1608" y="1048" on="1"/>
        <pt x="701" y="1048" on="1"/>
        <pt x="701" y="651" on="1"/>
        <pt x="941" y="831" on="0"/>
        <pt x="1290" y="940" on="1"/>
        <pt x="1477" y="785" on="1"/>
        <pt x="1390" y="620" on="0"/>
        <pt x="1390" y="372" on="1"/>
        <pt x="1390" y="167" on="0"/>
        <pt x="1457" y="-57" on="1"/>
        <pt x="1193" y="-120" on="1"/>
        <pt x="1147" y="-2" on="0"/>
        <pt x="965" y="-2" on="1"/>
        <pt x="933" y="-2" on="0"/>
        <pt x="871" y="-7" on="0"/>
        <pt x="767" y="-19" on="1"/>
        <pt x="621" y="-37" on="0"/>
        <pt x="532" y="-37" on="1"/>
        <pt x="302" y="-37" on="0"/>
        <pt x="64" y="158" on="0"/>
        <pt x="64" y="350" on="1"/>
        <pt x="64" y="437" on="0"/>
        <pt x="87" y="521" on="1"/>
        <pt x="345" y="486" on="1"/>
        <pt x="327" y="424" on="0"/>
        <pt x="327" y="372" on="1"/>
        <pt x="327" y="279" on="0"/>
        <pt x="430" y="190" on="0"/>
        <pt x="561" y="190" on="1"/>
        <pt x="635" y="190" on="0"/>
        <pt x="757" y="208" on="1"/>
        <pt x="880" y="225" on="0"/>
        <pt x="943" y="225" on="1"/>
        <pt x="1053" y="225" on="0"/>
        <pt x="1135" y="153" on="1"/>
        <pt x="1118" y="265" on="0"/>
        <pt x="1118" y="375" on="1"/>
        <pt x="1118" y="509" on="0"/>
        <pt x="1157" y="639" on="1"/>
        <pt x="860" y="506" on="0"/>
        <pt x="654" y="334" on="1"/>
        <pt x="431" y="481" on="1"/>
        <pt x="431" y="1048" on="1"/>
      </contour>
      <contour>
        <pt x="861" y="1274" on="1"/>
      </contour>
      <contour>
        <pt x="1173" y="0" on="1"/>
      </contour>
    </TTGlyph>
    <TTGlyph name="glyph00218" xMin="49" yMin="-240" xMax="1446" yMax="1288">
      <contour>
        <pt x="1248" y="-240" on="1"/>
        <pt x="982" y="-240" on="1"/>
        <pt x="957" y="-179" on="0"/>
        <pt x="851" y="-122" on="0"/>
        <pt x="762" y="-122" on="1"/>
        <pt x="736" y="-122" on="0"/>
        <pt x="685" y="-127" on="0"/>
        <pt x="605" y="-139" on="1"/>
        <pt x="490" y="-157" on="0"/>
        <pt x="420" y="-157" on="1"/>
        <pt x="235" y="-157" on="0"/>
        <pt x="49" y="20" on="0"/>
        <pt x="49" y="192" on="1"/>
        <pt x="49" y="262" on="0"/>
        <pt x="66" y="329" on="1"/>
        <pt x="324" y="301" on="1"/>
        <pt x="312" y="265" on="0"/>
        <pt x="312" y="212" on="1"/>
        <pt x="312" y="140" on="0"/>
        <pt x="393" y="70" on="0"/>
        <pt x="479" y="70" on="1"/>
        <pt x="530" y="70" on="0"/>
        <pt x="617" y="88" on="1"/>
        <pt x="704" y="105" on="0"/>
        <pt x="750" y="105" on="1"/>
        <pt x="809" y="105" on="0"/>
        <pt x="911" y="55" on="0"/>
        <pt x="978" y="-11" on="1"/>
        <pt x="978" y="1" on="1"/>
        <pt x="864" y="164" on="0"/>
        <pt x="503" y="377" on="0"/>
        <pt x="272" y="416" on="1"/>
        <pt x="170" y="657" on="1"/>
        <pt x="302" y="731" on="0"/>
        <pt x="452" y="801" on="1"/>
        <pt x="321" y="900" on="0"/>
        <pt x="321" y="1040" on="1"/>
        <pt x="321" y="1152" on="0"/>
        <pt x="476" y="1288" on="0"/>
        <pt x="623" y="1288" on="1"/>
        <pt x="687" y="1288" on="0"/>
        <pt x="749" y="1277" on="1"/>
        <pt x="732" y="1071" on="1"/>
        <pt x="709" y="1075" on="0"/>
        <pt x="678" y="1075" on="1"/>
        <pt x="631" y="1075" on="0"/>
        <pt x="578" y="1037" on="0"/>
        <pt x="578" y="1003" on="1"/>
        <pt x="578" y="932" on="0"/>
        <pt x="668" y="895" on="1"/>
        <pt x="835" y="962" on="0"/>
        <pt x="982" y="1003" on="1"/>
        <pt x="982" y="1274" on="1"/>
        <pt x="1446" y="1274" on="1"/>
        <pt x="1446" y="1048" on="1"/>
        <pt x="1248" y="1048" on="1"/>
      </contour>
      <contour>
        <pt x="979" y="760" on="1"/>
        <pt x="780" y="697" on="0"/>
        <pt x="513" y="569" on="1"/>
        <pt x="644" y="542" on="0"/>
        <pt x="888" y="405" on="0"/>
        <pt x="981" y="309" on="1"/>
        <pt x="979" y="344" on="0"/>
        <pt x="979" y="427" on="1"/>
      </contour>
    </TTGlyph>
    <TTGlyph name="glyph00219" xMin="-21" yMin="-89" xMax="1524" yMax="1274">
      <contour>
        <pt x="1057" y="818" on="1"/>
        <pt x="1056" y="866" on="1"/>
        <pt x="1056" y="1048" on="1"/>
        <pt x="-21" y="1048" on="1"/>
        <pt x="-21" y="1274" on="1"/>
        <pt x="1524" y="1274" on="1"/>
        <pt x="1524" y="1048" on="1"/>
        <pt x="1326" y="1048" on="1"/>
        <pt x="1326" y="-89" on="1"/>
        <pt x="1060" y="-89" on="1"/>
        <pt x="1034" y="-28" on="0"/>
        <pt x="919" y="29" on="0"/>
        <pt x="824" y="29" on="1"/>
        <pt x="796" y="29" on="0"/>
        <pt x="742" y="24" on="0"/>
        <pt x="656" y="12" on="1"/>
        <pt x="533" y="-6" on="0"/>
        <pt x="457" y="-6" on="1"/>
        <pt x="260" y="-6" on="0"/>
        <pt x="59" y="177" on="0"/>
        <pt x="59" y="357" on="1"/>
        <pt x="59" y="430" on="0"/>
        <pt x="76" y="500" on="1"/>
        <pt x="334" y="472" on="1"/>
        <pt x="322" y="433" on="0"/>
        <pt x="322" y="375" on="1"/>
        <pt x="322" y="299" on="0"/>
        <pt x="411" y="221" on="0"/>
        <pt x="506" y="221" on="1"/>
        <pt x="563" y="221" on="0"/>
        <pt x="659" y="239" on="1"/>
        <pt x="754" y="256" on="0"/>
        <pt x="804" y="256" on="1"/>
        <pt x="869" y="256" on="0"/>
        <pt x="981" y="208" on="0"/>
        <pt x="1056" y="140" on="1"/>
        <pt x="1056" y="557" on="1"/>
        <pt x="884" y="724" on="0"/>
        <pt x="743" y="724" on="1"/>
        <pt x="696" y="724" on="0"/>
        <pt x="643" y="684" on="0"/>
        <pt x="643" y="646" on="1"/>
        <pt x="643" y="605" on="0"/>
        <pt x="701" y="549" on="0"/>
        <pt x="759" y="528" on="1"/>
        <pt x="640" y="304" on="1"/>
        <pt x="509" y="357" on="0"/>
        <pt x="364" y="545" on="0"/>
        <pt x="364" y="655" on="1"/>
        <pt x="364" y="793" on="0"/>
        <pt x="553" y="956" on="0"/>
        <pt x="695" y="956" on="1"/>
        <pt x="796" y="956" on="0"/>
        <pt x="958" y="895" on="0"/>
      </contour>
    </TTGlyph>
    <TTGlyph name="glyph00220" xMin="64" yMin="-89" xMax="1692" yMax="1409">
      <contour>
        <pt x="1224" y="716" on="1"/>
        <pt x="1190" y="760" on="0"/>
        <pt x="1143" y="814" on="1"/>
        <pt x="622" y="343" on="1"/>
        <pt x="438" y="512" on="1"/>
        <pt x="496" y="565" on="1"/>
        <pt x="541" y="622" on="0"/>
        <pt x="541" y="676" on="1"/>
        <pt x="541" y="720" on="0"/>
        <pt x="491" y="768" on="0"/>
        <pt x="447" y="768" on="1"/>
        <pt x="397" y="768" on="0"/>
        <pt x="333" y="731" on="1"/>
        <pt x="131" y="917" on="1"/>
        <pt x="294" y="1122" on="0"/>
        <pt x="557" y="1288" on="0"/>
        <pt x="713" y="1288" on="1"/>
        <pt x="840" y="1288" on="0"/>
        <pt x="1071" y="1168" on="0"/>
        <pt x="1232" y="1006" on="1"/>
        <pt x="1224" y="1097" on="0"/>
        <pt x="1224" y="1151" on="1"/>
        <pt x="1224" y="1409" on="1"/>
        <pt x="1446" y="1409" on="1"/>
        <pt x="1492" y="1274" on="1"/>
        <pt x="1692" y="1274" on="1"/>
        <pt x="1692" y="1048" on="1"/>
        <pt x="1494" y="1048" on="1"/>
        <pt x="1494" y="-89" on="1"/>
        <pt x="1228" y="-89" on="1"/>
        <pt x="1202" y="-28" on="0"/>
        <pt x="1088" y="29" on="0"/>
        <pt x="994" y="29" on="1"/>
        <pt x="961" y="29" on="0"/>
        <pt x="895" y="24" on="0"/>
        <pt x="789" y="12" on="1"/>
        <pt x="638" y="-6" on="0"/>
        <pt x="547" y="-6" on="1"/>
        <pt x="298" y="-6" on="0"/>
        <pt x="64" y="200" on="0"/>
        <pt x="64" y="402" on="1"/>
        <pt x="64" y="487" on="0"/>
        <pt x="87" y="592" on="1"/>
        <pt x="345" y="557" on="1"/>
        <pt x="327" y="486" on="0"/>
        <pt x="327" y="419" on="1"/>
        <pt x="327" y="319" on="0"/>
        <pt x="437" y="221" on="0"/>
        <pt x="575" y="221" on="1"/>
        <pt x="650" y="221" on="0"/>
        <pt x="779" y="239" on="1"/>
        <pt x="907" y="256" on="0"/>
        <pt x="975" y="256" on="1"/>
        <pt x="1051" y="256" on="0"/>
        <pt x="1180" y="201" on="0"/>
        <pt x="1224" y="145" on="1"/>
      </contour>
      <contour>
        <pt x="727" y="749" on="1"/>
        <pt x="778" y="797" on="0"/>
        <pt x="823" y="837" on="1"/>
        <pt x="976" y="970" on="1"/>
        <pt x="850" y="1062" on="0"/>
        <pt x="721" y="1062" on="1"/>
        <pt x="636" y="1062" on="0"/>
        <pt x="487" y="992" on="0"/>
        <pt x="416" y="917" on="1"/>
        <pt x="474" y="940" on="0"/>
        <pt x="532" y="940" on="1"/>
        <pt x="622" y="940" on="0"/>
        <pt x="727" y="837" on="0"/>
        <pt x="727" y="758" on="1"/>
      </contour>
      <contour>
        <pt x="1152" y="1274" on="1"/>
      </contour>
    </TTGlyph>
    <TTGlyph name="glyph00221" xMin="-22" yMin="-240" xMax="1928" yMax="1274">
      <contour>
        <pt x="1110" y="993" on="1"/>
        <pt x="1351" y="993" on="0"/>
        <pt x="1645" y="882" on="0"/>
        <pt x="1841" y="675" on="0"/>
        <pt x="1841" y="532" on="1"/>
        <pt x="1841" y="402" on="0"/>
        <pt x="1683" y="261" on="0"/>
        <pt x="1530" y="261" on="1"/>
        <pt x="1447" y="261" on="0"/>
        <pt x="1383" y="272" on="1"/>
        <pt x="1393" y="498" on="1"/>
        <pt x="1421" y="494" on="0"/>
        <pt x="1458" y="494" on="1"/>
        <pt x="1516" y="494" on="0"/>
        <pt x="1577" y="533" on="0"/>
        <pt x="1577" y="578" on="1"/>
        <pt x="1577" y="641" on="0"/>
        <pt x="1408" y="746" on="0"/>
        <pt x="1264" y="764" on="1"/>
        <pt x="1264" y="-240" on="1"/>
        <pt x="998" y="-240" on="1"/>
        <pt x="972" y="-178" on="0"/>
        <pt x="865" y="-122" on="0"/>
        <pt x="774" y="-122" on="1"/>
        <pt x="732" y="-122" on="0"/>
        <pt x="615" y="-139" on="1"/>
        <pt x="497" y="-157" on="0"/>
        <pt x="426" y="-157" on="1"/>
        <pt x="237" y="-157" on="0"/>
        <pt x="49" y="10" on="0"/>
        <pt x="49" y="178" on="1"/>
        <pt x="49" y="236" on="0"/>
        <pt x="62" y="289" on="1"/>
        <pt x="320" y="261" on="1"/>
        <pt x="312" y="232" on="0"/>
        <pt x="312" y="205" on="1"/>
        <pt x="312" y="137" on="0"/>
        <pt x="390" y="70" on="0"/>
        <pt x="483" y="70" on="1"/>
        <pt x="535" y="70" on="0"/>
        <pt x="624" y="88" on="1"/>
        <pt x="714" y="105" on="0"/>
        <pt x="761" y="105" on="1"/>
        <pt x="821" y="105" on="0"/>
        <pt x="926" y="57" on="0"/>
        <pt x="996" y="-11" on="1"/>
        <pt x="996" y="1" on="1"/>
        <pt x="769" y="283" on="0"/>
        <pt x="253" y="352" on="1"/>
        <pt x="157" y="583" on="1"/>
        <pt x="372" y="712" on="0"/>
        <pt x="538" y="790" on="1"/>
        <pt x="357" y="896" on="0"/>
        <pt x="142" y="934" on="1"/>
        <pt x="192" y="1048" on="1"/>
        <pt x="-22" y="1048" on="1"/>
        <pt x="-22" y="1274" on="1"/>
        <pt x="1928" y="1274" on="1"/>
        <pt x="1928" y="1048" on="1"/>
        <pt x="495" y="1048" on="1"/>
        <pt x="651" y="992" on="0"/>
        <pt x="801" y="857" on="1"/>
        <pt x="823" y="683" on="1"/>
        <pt x="610" y="591" on="0"/>
        <pt x="490" y="523" on="1"/>
        <pt x="619" y="502" on="0"/>
        <pt x="906" y="367" on="0"/>
        <pt x="998" y="275" on="1"/>
        <pt x="994" y="315" on="0"/>
        <pt x="994" y="414" on="1"/>
        <pt x="994" y="993" on="1"/>
      </contour>
      <contour>
        <pt x="994" y="1274" on="1"/>
      </contour>
      <contour>
        <pt x="994" y="0" on="1"/>
      </contour>
    </TTGlyph>
    <TTGlyph name="glyph00222" xMin="-21" yMin="-240" xMax="1456" yMax="1274">
      <contour>
        <pt x="1258" y="-240" on="1"/>
        <pt x="992" y="-240" on="1"/>
        <pt x="967" y="-179" on="0"/>
        <pt x="861" y="-122" on="0"/>
        <pt x="772" y="-122" on="1"/>
        <pt x="746" y="-122" on="0"/>
        <pt x="695" y="-127" on="0"/>
        <pt x="615" y="-139" on="1"/>
        <pt x="500" y="-157" on="0"/>
        <pt x="430" y="-157" on="1"/>
        <pt x="245" y="-157" on="0"/>
        <pt x="59" y="20" on="0"/>
        <pt x="59" y="192" on="1"/>
        <pt x="59" y="262" on="0"/>
        <pt x="76" y="329" on="1"/>
        <pt x="334" y="301" on="1"/>
        <pt x="322" y="265" on="0"/>
        <pt x="322" y="212" on="1"/>
        <pt x="322" y="140" on="0"/>
        <pt x="403" y="70" on="0"/>
        <pt x="489" y="70" on="1"/>
        <pt x="540" y="70" on="0"/>
        <pt x="627" y="88" on="1"/>
        <pt x="714" y="105" on="0"/>
        <pt x="760" y="105" on="1"/>
        <pt x="819" y="105" on="0"/>
        <pt x="921" y="55" on="0"/>
        <pt x="988" y="-11" on="1"/>
        <pt x="988" y="1" on="1"/>
        <pt x="874" y="164" on="0"/>
        <pt x="513" y="377" on="0"/>
        <pt x="282" y="416" on="1"/>
        <pt x="180" y="657" on="1"/>
        <pt x="605" y="894" on="0"/>
        <pt x="996" y="1004" on="1"/>
        <pt x="996" y="1048" on="1"/>
        <pt x="-21" y="1048" on="1"/>
        <pt x="-21" y="1274" on="1"/>
        <pt x="1456" y="1274" on="1"/>
        <pt x="1456" y="1048" on="1"/>
        <pt x="1258" y="1048" on="1"/>
      </contour>
      <contour>
        <pt x="989" y="760" on="1"/>
        <pt x="790" y="697" on="0"/>
        <pt x="523" y="569" on="1"/>
        <pt x="654" y="542" on="0"/>
        <pt x="898" y="405" on="0"/>
        <pt x="991" y="309" on="1"/>
        <pt x="989" y="344" on="0"/>
        <pt x="989" y="427" on="1"/>
      </contour>
    </TTGlyph>
    <TTGlyph name="glyph00223" xMin="-21" yMin="0" xMax="1559" yMax="1274">
      <contour>
        <pt x="-21" y="1048" on="1"/>
        <pt x="-21" y="1274" on="1"/>
        <pt x="1559" y="1274" on="1"/>
        <pt x="1559" y="1048" on="1"/>
      </contour>
      <contour>
        <pt x="1361" y="0" on="1"/>
        <pt x="1095" y="0" on="1"/>
        <pt x="1053" y="118" on="0"/>
        <pt x="887" y="118" on="1"/>
        <pt x="858" y="118" on="0"/>
        <pt x="802" y="113" on="0"/>
        <pt x="707" y="101" on="1"/>
        <pt x="573" y="83" on="0"/>
        <pt x="492" y="83" on="1"/>
        <pt x="281" y="83" on="0"/>
        <pt x="64" y="292" on="0"/>
        <pt x="64" y="498" on="1"/>
        <pt x="64" y="591" on="0"/>
        <pt x="87" y="681" on="1"/>
        <pt x="345" y="646" on="1"/>
        <pt x="338" y="618" on="0"/>
        <pt x="327" y="541" on="0"/>
        <pt x="327" y="517" on="1"/>
        <pt x="327" y="415" on="0"/>
        <pt x="418" y="310" on="0"/>
        <pt x="537" y="310" on="1"/>
        <pt x="603" y="310" on="0"/>
        <pt x="712" y="328" on="1"/>
        <pt x="822" y="345" on="0"/>
        <pt x="880" y="345" on="1"/>
        <pt x="1015" y="345" on="0"/>
        <pt x="1091" y="234" on="1"/>
        <pt x="1091" y="462" on="1"/>
        <pt x="1091" y="563" on="0"/>
        <pt x="1095" y="625" on="1"/>
        <pt x="1031" y="573" on="0"/>
        <pt x="891" y="524" on="0"/>
        <pt x="804" y="524" on="1"/>
        <pt x="663" y="524" on="0"/>
        <pt x="502" y="658" on="0"/>
        <pt x="502" y="773" on="1"/>
        <pt x="502" y="863" on="0"/>
        <pt x="546" y="948" on="1"/>
        <pt x="787" y="889" on="1"/>
        <pt x="768" y="855" on="0"/>
        <pt x="768" y="821" on="1"/>
        <pt x="768" y="750" on="0"/>
        <pt x="849" y="750" on="1"/>
        <pt x="913" y="750" on="0"/>
        <pt x="1002" y="818" on="0"/>
        <pt x="1053" y="893" on="1"/>
        <pt x="1361" y="829" on="1"/>
      </contour>
    </TTGlyph>
    <TTGlyph name="glyph00224" xMin="-21" yMin="-89" xMax="1671" yMax="1274">
      <contour>
        <pt x="1468" y="1048" on="1"/>
        <pt x="1526" y="946" on="0"/>
        <pt x="1526" y="840" on="1"/>
        <pt x="1526" y="757" on="0"/>
        <pt x="1464" y="635" on="0"/>
        <pt x="1403" y="596" on="1"/>
        <pt x="1403" y="-89" on="1"/>
        <pt x="1137" y="-89" on="1"/>
        <pt x="1113" y="-28" on="0"/>
        <pt x="1007" y="29" on="0"/>
        <pt x="920" y="29" on="1"/>
        <pt x="889" y="29" on="0"/>
        <pt x="830" y="24" on="0"/>
        <pt x="731" y="12" on="1"/>
        <pt x="591" y="-6" on="0"/>
        <pt x="506" y="-6" on="1"/>
        <pt x="274" y="-6" on="0"/>
        <pt x="59" y="191" on="0"/>
        <pt x="59" y="382" on="1"/>
        <pt x="59" y="462" on="0"/>
        <pt x="82" y="562" on="1"/>
        <pt x="340" y="527" on="1"/>
        <pt x="322" y="464" on="0"/>
        <pt x="322" y="401" on="1"/>
        <pt x="322" y="311" on="0"/>
        <pt x="421" y="221" on="0"/>
        <pt x="546" y="221" on="1"/>
        <pt x="614" y="221" on="0"/>
        <pt x="730" y="239" on="1"/>
        <pt x="847" y="256" on="0"/>
        <pt x="908" y="256" on="1"/>
        <pt x="976" y="256" on="0"/>
        <pt x="1093" y="201" on="0"/>
        <pt x="1133" y="145" on="1"/>
        <pt x="1133" y="546" on="1"/>
        <pt x="1074" y="550" on="0"/>
        <pt x="940" y="594" on="0"/>
        <pt x="817" y="665" on="1"/>
        <pt x="763" y="696" on="0"/>
        <pt x="693" y="727" on="0"/>
        <pt x="668" y="727" on="1"/>
        <pt x="607" y="727" on="0"/>
        <pt x="607" y="678" on="1"/>
        <pt x="607" y="635" on="0"/>
        <pt x="660" y="597" on="1"/>
        <pt x="498" y="430" on="1"/>
        <pt x="418" y="499" on="0"/>
        <pt x="347" y="630" on="0"/>
        <pt x="347" y="704" on="1"/>
        <pt x="347" y="803" on="0"/>
        <pt x="490" y="925" on="0"/>
        <pt x="606" y="932" on="1"/>
        <pt x="584" y="1004" on="0"/>
        <pt x="510" y="1048" on="1"/>
        <pt x="-21" y="1048" on="1"/>
        <pt x="-21" y="1274" on="1"/>
        <pt x="1671" y="1274" on="1"/>
        <pt x="1671" y="1048" on="1"/>
      </contour>
      <contour>
        <pt x="1184" y="1048" on="1"/>
        <pt x="812" y="1048" on="1"/>
        <pt x="873" y="978" on="0"/>
        <pt x="875" y="878" on="1"/>
        <pt x="974" y="823" on="1"/>
        <pt x="1009" y="803" on="0"/>
        <pt x="1066" y="780" on="0"/>
        <pt x="1114" y="770" on="0"/>
        <pt x="1141" y="770" on="1"/>
        <pt x="1252" y="770" on="0"/>
        <pt x="1252" y="891" on="1"/>
        <pt x="1252" y="968" on="0"/>
      </contour>
      <contour>
        <pt x="1133" y="1274" on="1"/>
      </contour>
      <contour>
        <pt x="1133" y="0" on="1"/>
      </contour>
    </TTGlyph>
    <TTGlyph name="glyph00225" xMin="-21" yMin="-240" xMax="1476" yMax="1274">
      <contour>
        <pt x="-21" y="1274" on="1"/>
        <pt x="1476" y="1274" on="1"/>
        <pt x="1476" y="1048" on="1"/>
        <pt x="1278" y="1048" on="1"/>
        <pt x="1278" y="-240" on="1"/>
        <pt x="1012" y="-240" on="1"/>
        <pt x="986" y="-179" on="0"/>
        <pt x="877" y="-122" on="0"/>
        <pt x="785" y="-122" on="1"/>
        <pt x="759" y="-122" on="0"/>
        <pt x="709" y="-127" on="0"/>
        <pt x="623" y="-139" on="1"/>
        <pt x="504" y="-157" on="0"/>
        <pt x="432" y="-157" on="1"/>
        <pt x="240" y="-157" on="0"/>
        <pt x="49" y="10" on="0"/>
        <pt x="49" y="178" on="1"/>
        <pt x="49" y="236" on="0"/>
        <pt x="62" y="289" on="1"/>
        <pt x="320" y="261" on="1"/>
        <pt x="312" y="232" on="0"/>
        <pt x="312" y="205" on="1"/>
        <pt x="312" y="137" on="0"/>
        <pt x="393" y="70" on="0"/>
        <pt x="487" y="70" on="1"/>
        <pt x="540" y="70" on="0"/>
        <pt x="631" y="88" on="1"/>
        <pt x="722" y="105" on="0"/>
        <pt x="770" y="105" on="1"/>
        <pt x="832" y="105" on="0"/>
        <pt x="938" y="56" on="0"/>
        <pt x="1008" y="-11" on="1"/>
        <pt x="1008" y="0" on="1"/>
        <pt x="891" y="145" on="0"/>
        <pt x="529" y="315" on="0"/>
        <pt x="253" y="352" on="1"/>
        <pt x="157" y="583" on="1"/>
        <pt x="373" y="713" on="0"/>
        <pt x="542" y="792" on="1"/>
        <pt x="359" y="899" on="0"/>
        <pt x="142" y="934" on="1"/>
        <pt x="192" y="1048" on="1"/>
        <pt x="-21" y="1048" on="1"/>
      </contour>
      <contour>
        <pt x="823" y="683" on="1"/>
        <pt x="606" y="589" on="0"/>
        <pt x="489" y="523" on="1"/>
        <pt x="640" y="498" on="0"/>
        <pt x="922" y="364" on="0"/>
        <pt x="1012" y="274" on="1"/>
        <pt x="1008" y="314" on="0"/>
        <pt x="1008" y="415" on="1"/>
        <pt x="1008" y="1048" on="1"/>
        <pt x="495" y="1048" on="1"/>
        <pt x="651" y="992" on="0"/>
        <pt x="801" y="857" on="1"/>
      </contour>
    </TTGlyph>
    <TTGlyph name="glyph00226" xMin="-21" yMin="-330" xMax="1456" yMax="1274">
      <contour>
        <pt x="1258" y="-330" on="1"/>
        <pt x="992" y="-330" on="1"/>
        <pt x="967" y="-269" on="0"/>
        <pt x="861" y="-212" on="0"/>
        <pt x="772" y="-212" on="1"/>
        <pt x="746" y="-212" on="0"/>
        <pt x="695" y="-217" on="0"/>
        <pt x="615" y="-229" on="1"/>
        <pt x="500" y="-247" on="0"/>
        <pt x="430" y="-247" on="1"/>
        <pt x="245" y="-247" on="0"/>
        <pt x="59" y="-70" on="0"/>
        <pt x="59" y="102" on="1"/>
        <pt x="59" y="172" on="0"/>
        <pt x="76" y="239" on="1"/>
        <pt x="334" y="211" on="1"/>
        <pt x="322" y="175" on="0"/>
        <pt x="322" y="122" on="1"/>
        <pt x="322" y="50" on="0"/>
        <pt x="403" y="-20" on="0"/>
        <pt x="489" y="-20" on="1"/>
        <pt x="540" y="-20" on="0"/>
        <pt x="627" y="-2" on="1"/>
        <pt x="714" y="15" on="0"/>
        <pt x="760" y="15" on="1"/>
        <pt x="905" y="15" on="0"/>
        <pt x="988" y="-95" on="1"/>
        <pt x="988" y="1" on="1"/>
        <pt x="874" y="164" on="0"/>
        <pt x="513" y="377" on="0"/>
        <pt x="282" y="416" on="1"/>
        <pt x="180" y="657" on="1"/>
        <pt x="605" y="894" on="0"/>
        <pt x="996" y="1004" on="1"/>
        <pt x="996" y="1048" on="1"/>
        <pt x="-21" y="1048" on="1"/>
        <pt x="-21" y="1274" on="1"/>
        <pt x="1456" y="1274" on="1"/>
        <pt x="1456" y="1048" on="1"/>
        <pt x="1258" y="1048" on="1"/>
      </contour>
      <contour>
        <pt x="989" y="760" on="1"/>
        <pt x="790" y="697" on="0"/>
        <pt x="523" y="569" on="1"/>
        <pt x="654" y="542" on="0"/>
        <pt x="898" y="405" on="0"/>
        <pt x="991" y="309" on="1"/>
        <pt x="989" y="344" on="0"/>
        <pt x="989" y="427" on="1"/>
      </contour>
      <contour>
        <pt x="535" y="22" on="1"/>
        <pt x="479" y="22" on="0"/>
        <pt x="399" y="97" on="0"/>
        <pt x="399" y="154" on="1"/>
        <pt x="399" y="211" on="0"/>
        <pt x="478" y="287" on="0"/>
        <pt x="535" y="287" on="1"/>
        <pt x="590" y="287" on="0"/>
        <pt x="667" y="210" on="0"/>
        <pt x="667" y="154" on="1"/>
        <pt x="667" y="97" on="0"/>
        <pt x="591" y="22" on="0"/>
      </contour>
    </TTGlyph>
    <TTGlyph name="glyph00227" xMin="-21" yMin="-240" xMax="1625" yMax="1274">
      <contour>
        <pt x="520" y="273" on="1"/>
        <pt x="343" y="328" on="0"/>
        <pt x="164" y="523" on="0"/>
        <pt x="164" y="658" on="1"/>
        <pt x="164" y="793" on="0"/>
        <pt x="354" y="964" on="0"/>
        <pt x="503" y="964" on="1"/>
        <pt x="599" y="964" on="0"/>
        <pt x="748" y="901" on="0"/>
        <pt x="823" y="825" on="1"/>
        <pt x="845" y="886" on="0"/>
        <pt x="945" y="953" on="0"/>
        <pt x="1008" y="953" on="1"/>
        <pt x="1084" y="953" on="0"/>
        <pt x="1161" y="901" on="1"/>
        <pt x="1157" y="943" on="0"/>
        <pt x="1157" y="987" on="1"/>
        <pt x="1157" y="1048" on="1"/>
        <pt x="-21" y="1048" on="1"/>
        <pt x="-21" y="1274" on="1"/>
        <pt x="1625" y="1274" on="1"/>
        <pt x="1625" y="1048" on="1"/>
        <pt x="1427" y="1048" on="1"/>
        <pt x="1427" y="-240" on="1"/>
        <pt x="1155" y="-240" on="1"/>
        <pt x="1131" y="-178" on="0"/>
        <pt x="1023" y="-122" on="0"/>
        <pt x="934" y="-122" on="1"/>
        <pt x="903" y="-122" on="0"/>
        <pt x="842" y="-127" on="0"/>
        <pt x="742" y="-139" on="1"/>
        <pt x="601" y="-157" on="0"/>
        <pt x="514" y="-157" on="1"/>
        <pt x="289" y="-157" on="0"/>
        <pt x="59" y="25" on="0"/>
        <pt x="59" y="204" on="1"/>
        <pt x="59" y="272" on="0"/>
        <pt x="74" y="350" on="1"/>
        <pt x="332" y="315" on="1"/>
        <pt x="322" y="272" on="0"/>
        <pt x="322" y="232" on="1"/>
        <pt x="322" y="151" on="0"/>
        <pt x="420" y="70" on="0"/>
        <pt x="552" y="70" on="1"/>
        <pt x="622" y="70" on="0"/>
        <pt x="743" y="88" on="1"/>
        <pt x="863" y="105" on="0"/>
        <pt x="926" y="105" on="1"/>
        <pt x="995" y="105" on="0"/>
        <pt x="1116" y="50" on="0"/>
        <pt x="1157" y="-6" on="1"/>
        <pt x="1157" y="660" on="1"/>
        <pt x="1102" y="724" on="0"/>
        <pt x="1053" y="724" on="1"/>
        <pt x="1015" y="724" on="0"/>
        <pt x="967" y="672" on="0"/>
        <pt x="967" y="625" on="1"/>
        <pt x="967" y="599" on="0"/>
        <pt x="972" y="576" on="1"/>
        <pt x="742" y="561" on="1"/>
        <pt x="717" y="641" on="0"/>
        <pt x="608" y="732" on="0"/>
        <pt x="540" y="732" on="1"/>
        <pt x="494" y="732" on="0"/>
        <pt x="443" y="684" on="0"/>
        <pt x="443" y="644" on="1"/>
        <pt x="443" y="596" on="0"/>
        <pt x="518" y="528" on="0"/>
        <pt x="602" y="503" on="1"/>
      </contour>
    </TTGlyph>
    <TTGlyph name="glyph00228" xMin="-24" yMin="-89" xMax="1484" yMax="1409">
      <contour>
        <pt x="-24" y="1269" on="1"/>
        <pt x="77" y="1288" on="0"/>
        <pt x="168" y="1288" on="1"/>
        <pt x="265" y="1288" on="0"/>
        <pt x="417" y="1215" on="0"/>
        <pt x="463" y="1145" on="1"/>
        <pt x="500" y="1214" on="0"/>
        <pt x="628" y="1288" on="0"/>
        <pt x="709" y="1288" on="1"/>
        <pt x="896" y="1288" on="0"/>
        <pt x="1019" y="1125" on="1"/>
        <pt x="1016" y="1182" on="0"/>
        <pt x="1016" y="1238" on="1"/>
        <pt x="1016" y="1409" on="1"/>
        <pt x="1238" y="1409" on="1"/>
        <pt x="1285" y="1274" on="1"/>
        <pt x="1484" y="1274" on="1"/>
        <pt x="1484" y="1048" on="1"/>
        <pt x="1286" y="1048" on="1"/>
        <pt x="1286" y="-89" on="1"/>
        <pt x="1020" y="-89" on="1"/>
        <pt x="996" y="-28" on="0"/>
        <pt x="891" y="29" on="0"/>
        <pt x="805" y="29" on="1"/>
        <pt x="780" y="29" on="0"/>
        <pt x="731" y="24" on="0"/>
        <pt x="652" y="12" on="1"/>
        <pt x="539" y="-6" on="0"/>
        <pt x="471" y="-6" on="1"/>
        <pt x="291" y="-6" on="0"/>
        <pt x="108" y="174" on="0"/>
        <pt x="108" y="350" on="1"/>
        <pt x="108" y="421" on="0"/>
        <pt x="125" y="490" on="1"/>
        <pt x="383" y="462" on="1"/>
        <pt x="371" y="424" on="0"/>
        <pt x="371" y="369" on="1"/>
        <pt x="371" y="296" on="0"/>
        <pt x="449" y="221" on="0"/>
        <pt x="533" y="221" on="1"/>
        <pt x="583" y="221" on="0"/>
        <pt x="667" y="239" on="1"/>
        <pt x="751" y="256" on="0"/>
        <pt x="795" y="256" on="1"/>
        <pt x="861" y="256" on="0"/>
        <pt x="977" y="201" on="0"/>
        <pt x="1016" y="145" on="1"/>
        <pt x="1016" y="869" on="1"/>
        <pt x="893" y="1063" on="0"/>
        <pt x="750" y="1063" on="1"/>
        <pt x="685" y="1063" on="0"/>
        <pt x="608" y="1001" on="0"/>
        <pt x="608" y="945" on="1"/>
        <pt x="608" y="880" on="0"/>
        <pt x="728" y="816" on="0"/>
        <pt x="849" y="812" on="1"/>
        <pt x="821" y="574" on="1"/>
        <pt x="564" y="588" on="0"/>
        <pt x="471" y="740" on="1"/>
        <pt x="370" y="574" on="0"/>
        <pt x="113" y="574" on="1"/>
        <pt x="87" y="811" on="1"/>
        <pt x="204" y="816" on="0"/>
        <pt x="326" y="879" on="0"/>
        <pt x="326" y="944" on="1"/>
        <pt x="326" y="1001" on="0"/>
        <pt x="239" y="1063" on="0"/>
        <pt x="158" y="1063" on="1"/>
        <pt x="73" y="1063" on="0"/>
        <pt x="0" y="1042" on="1"/>
      </contour>
      <contour>
        <pt x="945" y="1274" on="1"/>
      </contour>
    </TTGlyph>
    <TTGlyph name="glyph00229" xMin="-21" yMin="-240" xMax="1492" yMax="1274">
      <contour>
        <pt x="192" y="1048" on="1"/>
        <pt x="-21" y="1048" on="1"/>
        <pt x="-21" y="1274" on="1"/>
        <pt x="1492" y="1274" on="1"/>
        <pt x="1492" y="1048" on="1"/>
        <pt x="1294" y="1048" on="1"/>
        <pt x="1294" y="-240" on="1"/>
        <pt x="1028" y="-240" on="1"/>
        <pt x="1001" y="-178" on="0"/>
        <pt x="889" y="-122" on="0"/>
        <pt x="797" y="-122" on="1"/>
        <pt x="771" y="-122" on="0"/>
        <pt x="719" y="-127" on="0"/>
        <pt x="633" y="-139" on="1"/>
        <pt x="512" y="-157" on="0"/>
        <pt x="438" y="-157" on="1"/>
        <pt x="243" y="-157" on="0"/>
        <pt x="49" y="10" on="0"/>
        <pt x="49" y="178" on="1"/>
        <pt x="49" y="236" on="0"/>
        <pt x="62" y="289" on="1"/>
        <pt x="320" y="261" on="1"/>
        <pt x="312" y="232" on="0"/>
        <pt x="312" y="205" on="1"/>
        <pt x="312" y="138" on="0"/>
        <pt x="394" y="70" on="0"/>
        <pt x="491" y="70" on="1"/>
        <pt x="545" y="70" on="0"/>
        <pt x="638" y="88" on="1"/>
        <pt x="731" y="105" on="0"/>
        <pt x="781" y="105" on="1"/>
        <pt x="843" y="105" on="0"/>
        <pt x="951" y="57" on="0"/>
        <pt x="1024" y="-11" on="1"/>
        <pt x="1024" y="0" on="1"/>
        <pt x="893" y="146" on="0"/>
        <pt x="521" y="316" on="0"/>
        <pt x="253" y="352" on="1"/>
        <pt x="157" y="583" on="1"/>
        <pt x="381" y="716" on="0"/>
        <pt x="562" y="793" on="1"/>
        <pt x="330" y="894" on="0"/>
        <pt x="142" y="934" on="1"/>
      </contour>
      <contour>
        <pt x="494" y="1048" on="1"/>
        <pt x="788" y="946" on="0"/>
        <pt x="1028" y="769" on="1"/>
        <pt x="1024" y="824" on="0"/>
        <pt x="1024" y="930" on="1"/>
        <pt x="1024" y="1048" on="1"/>
      </contour>
      <contour>
        <pt x="1028" y="274" on="1"/>
        <pt x="1024" y="314" on="0"/>
        <pt x="1024" y="415" on="1"/>
        <pt x="1024" y="514" on="1"/>
        <pt x="932" y="596" on="0"/>
        <pt x="792" y="677" on="1"/>
        <pt x="602" y="595" on="0"/>
        <pt x="480" y="525" on="1"/>
        <pt x="622" y="504" on="0"/>
        <pt x="922" y="367" on="0"/>
      </contour>
    </TTGlyph>
    <TTGlyph name="glyph00230" xMin="-21" yMin="-89" xMax="1565" yMax="1274">
      <contour>
        <pt x="1353" y="1048" on="1"/>
        <pt x="1411" y="948" on="0"/>
        <pt x="1411" y="840" on="1"/>
        <pt x="1411" y="777" on="0"/>
        <pt x="1371" y="678" on="0"/>
        <pt x="1332" y="642" on="1"/>
        <pt x="1332" y="-89" on="1"/>
        <pt x="1066" y="-89" on="1"/>
        <pt x="1041" y="-28" on="0"/>
        <pt x="934" y="29" on="0"/>
        <pt x="845" y="29" on="1"/>
        <pt x="803" y="29" on="0"/>
        <pt x="688" y="12" on="1"/>
        <pt x="573" y="-6" on="0"/>
        <pt x="502" y="-6" on="1"/>
        <pt x="318" y="-6" on="0"/>
        <pt x="129" y="169" on="0"/>
        <pt x="129" y="342" on="1"/>
        <pt x="129" y="413" on="0"/>
        <pt x="144" y="470" on="1"/>
        <pt x="402" y="442" on="1"/>
        <pt x="392" y="403" on="0"/>
        <pt x="392" y="361" on="1"/>
        <pt x="392" y="291" on="0"/>
        <pt x="471" y="221" on="0"/>
        <pt x="560" y="221" on="1"/>
        <pt x="612" y="221" on="0"/>
        <pt x="699" y="239" on="1"/>
        <pt x="787" y="256" on="0"/>
        <pt x="832" y="256" on="1"/>
        <pt x="901" y="256" on="0"/>
        <pt x="1022" y="201" on="0"/>
        <pt x="1062" y="145" on="1"/>
        <pt x="1062" y="558" on="1"/>
        <pt x="1061" y="558" on="1"/>
        <pt x="926" y="558" on="0"/>
        <pt x="722" y="664" on="0"/>
        <pt x="665" y="760" on="1"/>
        <pt x="627" y="656" on="0"/>
        <pt x="478" y="544" on="0"/>
        <pt x="379" y="544" on="1"/>
        <pt x="307" y="544" on="0"/>
        <pt x="196" y="585" on="0"/>
        <pt x="86" y="692" on="0"/>
        <pt x="31" y="786" on="1"/>
        <pt x="219" y="904" on="1"/>
        <pt x="261" y="831" on="0"/>
        <pt x="325" y="783" on="0"/>
        <pt x="362" y="783" on="1"/>
        <pt x="440" y="783" on="0"/>
        <pt x="504" y="922" on="0"/>
        <pt x="507" y="1048" on="1"/>
        <pt x="-21" y="1048" on="1"/>
        <pt x="-21" y="1274" on="1"/>
        <pt x="1565" y="1274" on="1"/>
        <pt x="1565" y="1048" on="1"/>
      </contour>
      <contour>
        <pt x="1069" y="1048" on="1"/>
        <pt x="775" y="1048" on="1"/>
        <pt x="837" y="770" on="0"/>
        <pt x="1023" y="770" on="1"/>
        <pt x="1079" y="770" on="0"/>
        <pt x="1137" y="833" on="0"/>
        <pt x="1137" y="891" on="1"/>
        <pt x="1137" y="968" on="0"/>
      </contour>
      <contour>
        <pt x="1062" y="1274" on="1"/>
      </contour>
      <contour>
        <pt x="1062" y="0" on="1"/>
      </contour>
    </TTGlyph>
    <TTGlyph name="glyph00231" xMin="-21" yMin="-331" xMax="1487" yMax="1274">
      <contour>
        <pt x="1474" y="1048" on="1"/>
        <pt x="774" y="1048" on="1"/>
        <pt x="801" y="1023" on="0"/>
        <pt x="819" y="994" on="1"/>
        <pt x="830" y="994" on="1"/>
        <pt x="1075" y="994" on="0"/>
        <pt x="1340" y="785" on="0"/>
        <pt x="1340" y="619" on="1"/>
        <pt x="1340" y="488" on="0"/>
        <pt x="1204" y="313" on="0"/>
        <pt x="1069" y="268" on="1"/>
        <pt x="1291" y="185" on="0"/>
        <pt x="1487" y="47" on="1"/>
        <pt x="1343" y="-143" on="1"/>
        <pt x="1293" y="-106" on="0"/>
        <pt x="1215" y="-58" on="1"/>
        <pt x="1223" y="-112" on="0"/>
        <pt x="1223" y="-183" on="1"/>
        <pt x="1223" y="-331" on="1"/>
        <pt x="957" y="-331" on="1"/>
        <pt x="914" y="-213" on="0"/>
        <pt x="743" y="-213" on="1"/>
        <pt x="719" y="-213" on="0"/>
        <pt x="672" y="-218" on="0"/>
        <pt x="592" y="-230" on="1"/>
        <pt x="480" y="-248" on="0"/>
        <pt x="410" y="-248" on="1"/>
        <pt x="225" y="-248" on="0"/>
        <pt x="49" y="-56" on="0"/>
        <pt x="49" y="129" on="1"/>
        <pt x="49" y="209" on="0"/>
        <pt x="66" y="280" on="1"/>
        <pt x="324" y="252" on="1"/>
        <pt x="312" y="206" on="0"/>
        <pt x="312" y="144" on="1"/>
        <pt x="312" y="59" on="0"/>
        <pt x="388" y="-21" on="0"/>
        <pt x="473" y="-21" on="1"/>
        <pt x="517" y="-21" on="0"/>
        <pt x="603" y="-3" on="1"/>
        <pt x="688" y="14" on="0"/>
        <pt x="734" y="14" on="1"/>
        <pt x="800" y="14" on="0"/>
        <pt x="915" y="-41" on="0"/>
        <pt x="953" y="-97" on="1"/>
        <pt x="953" y="77" on="1"/>
        <pt x="686" y="190" on="0"/>
        <pt x="385" y="238" on="1"/>
        <pt x="430" y="452" on="1"/>
        <pt x="584" y="414" on="0"/>
        <pt x="709" y="414" on="1"/>
        <pt x="888" y="414" on="0"/>
        <pt x="1068" y="515" on="0"/>
        <pt x="1068" y="616" on="1"/>
        <pt x="1068" y="691" on="0"/>
        <pt x="952" y="780" on="0"/>
        <pt x="852" y="780" on="1"/>
        <pt x="767" y="780" on="0"/>
        <pt x="691" y="736" on="0"/>
        <pt x="691" y="687" on="1"/>
        <pt x="691" y="664" on="0"/>
        <pt x="703" y="636" on="1"/>
        <pt x="449" y="601" on="1"/>
        <pt x="421" y="671" on="0"/>
        <pt x="421" y="746" on="1"/>
        <pt x="421" y="810" on="0"/>
        <pt x="493" y="909" on="0"/>
        <pt x="565" y="944" on="1"/>
        <pt x="523" y="1015" on="0"/>
        <pt x="434" y="1048" on="1"/>
        <pt x="-21" y="1048" on="1"/>
        <pt x="-21" y="1274" on="1"/>
        <pt x="1474" y="1274" on="1"/>
      </contour>
      <contour>
        <pt x="747" y="1274" on="1"/>
      </contour>
      <contour>
        <pt x="953" y="0" on="1"/>
      </contour>
    </TTGlyph>
    <TTGlyph name="glyph00232" xMin="-21" yMin="-240" xMax="1470" yMax="1274">
      <contour>
        <pt x="1272" y="-240" on="1"/>
        <pt x="1006" y="-240" on="1"/>
        <pt x="981" y="-179" on="0"/>
        <pt x="872" y="-122" on="0"/>
        <pt x="783" y="-122" on="1"/>
        <pt x="756" y="-122" on="0"/>
        <pt x="705" y="-127" on="0"/>
        <pt x="624" y="-139" on="1"/>
        <pt x="507" y="-157" on="0"/>
        <pt x="436" y="-157" on="1"/>
        <pt x="248" y="-157" on="0"/>
        <pt x="59" y="19" on="0"/>
        <pt x="59" y="192" on="1"/>
        <pt x="59" y="262" on="0"/>
        <pt x="76" y="329" on="1"/>
        <pt x="334" y="301" on="1"/>
        <pt x="322" y="265" on="0"/>
        <pt x="322" y="212" on="1"/>
        <pt x="322" y="140" on="0"/>
        <pt x="406" y="70" on="0"/>
        <pt x="493" y="70" on="1"/>
        <pt x="545" y="70" on="0"/>
        <pt x="634" y="88" on="1"/>
        <pt x="722" y="105" on="0"/>
        <pt x="769" y="105" on="1"/>
        <pt x="830" y="105" on="0"/>
        <pt x="934" y="55" on="0"/>
        <pt x="1002" y="-11" on="1"/>
        <pt x="1002" y="1" on="1"/>
        <pt x="890" y="161" on="0"/>
        <pt x="518" y="376" on="0"/>
        <pt x="282" y="416" on="1"/>
        <pt x="180" y="657" on="1"/>
        <pt x="618" y="900" on="0"/>
        <pt x="1010" y="1007" on="1"/>
        <pt x="1010" y="1048" on="1"/>
        <pt x="-21" y="1048" on="1"/>
        <pt x="-21" y="1274" on="1"/>
        <pt x="1470" y="1274" on="1"/>
        <pt x="1470" y="1048" on="1"/>
        <pt x="1272" y="1048" on="1"/>
      </contour>
      <contour>
        <pt x="1003" y="769" on="1"/>
        <pt x="906" y="738" on="0"/>
        <pt x="809" y="700" on="1"/>
        <pt x="918" y="657" on="0"/>
        <pt x="1003" y="595" on="1"/>
      </contour>
      <contour>
        <pt x="1003" y="433" on="1"/>
        <pt x="858" y="558" on="0"/>
        <pt x="649" y="632" on="1"/>
        <pt x="511" y="568" on="1"/>
        <pt x="644" y="541" on="0"/>
        <pt x="909" y="398" on="0"/>
        <pt x="1005" y="301" on="1"/>
        <pt x="1003" y="338" on="0"/>
        <pt x="1003" y="427" on="1"/>
      </contour>
    </TTGlyph>
    <TTGlyph name="glyph00233" xMin="-21" yMin="-373" xMax="1546" yMax="1274">
      <contour>
        <pt x="377" y="334" on="1"/>
        <pt x="551" y="301" on="0"/>
        <pt x="829" y="161" on="0"/>
        <pt x="950" y="32" on="1"/>
        <pt x="880" y="-32" on="1"/>
        <pt x="991" y="-45" on="0"/>
        <pt x="1078" y="-137" on="1"/>
        <pt x="1078" y="14" on="1"/>
        <pt x="965" y="172" on="0"/>
        <pt x="601" y="385" on="0"/>
        <pt x="368" y="425" on="1"/>
        <pt x="270" y="657" on="1"/>
        <pt x="695" y="894" on="0"/>
        <pt x="1086" y="1004" on="1"/>
        <pt x="1086" y="1048" on="1"/>
        <pt x="-21" y="1048" on="1"/>
        <pt x="-21" y="1274" on="1"/>
        <pt x="1546" y="1274" on="1"/>
        <pt x="1546" y="1048" on="1"/>
        <pt x="1348" y="1048" on="1"/>
        <pt x="1348" y="-373" on="1"/>
        <pt x="1082" y="-373" on="1"/>
        <pt x="1053" y="-311" on="0"/>
        <pt x="935" y="-255" on="0"/>
        <pt x="837" y="-255" on="1"/>
        <pt x="779" y="-255" on="0"/>
        <pt x="651" y="-272" on="1"/>
        <pt x="523" y="-290" on="0"/>
        <pt x="457" y="-290" on="1"/>
        <pt x="251" y="-290" on="0"/>
        <pt x="45" y="-112" on="0"/>
        <pt x="45" y="66" on="1"/>
        <pt x="45" y="137" on="0"/>
        <pt x="62" y="206" on="1"/>
        <pt x="320" y="178" on="1"/>
        <pt x="308" y="140" on="0"/>
        <pt x="308" y="85" on="1"/>
        <pt x="308" y="7" on="0"/>
        <pt x="395" y="-63" on="0"/>
        <pt x="501" y="-63" on="1"/>
        <pt x="537" y="-63" on="0"/>
        <pt x="615" y="-53" on="0"/>
        <pt x="697" y="-39" on="1"/>
        <pt x="729" y="-33" on="0"/>
        <pt x="760" y="-30" on="1"/>
        <pt x="687" y="24" on="0"/>
        <pt x="499" y="106" on="0"/>
        <pt x="337" y="144" on="1"/>
      </contour>
      <contour>
        <pt x="1079" y="760" on="1"/>
        <pt x="880" y="697" on="0"/>
        <pt x="613" y="569" on="1"/>
        <pt x="744" y="542" on="0"/>
        <pt x="988" y="405" on="0"/>
        <pt x="1081" y="309" on="1"/>
        <pt x="1079" y="344" on="0"/>
        <pt x="1079" y="427" on="1"/>
      </contour>
    </TTGlyph>
    <TTGlyph name="glyph00234" xMin="-21" yMin="-555" xMax="1538" yMax="1274">
      <contour>
        <pt x="826" y="784" on="1"/>
        <pt x="826" y="743" on="0"/>
        <pt x="852" y="711" on="0"/>
        <pt x="878" y="711" on="1"/>
        <pt x="954" y="711" on="0"/>
        <pt x="1062" y="867" on="1"/>
        <pt x="1302" y="912" on="1"/>
        <pt x="1376" y="805" on="0"/>
        <pt x="1442" y="605" on="0"/>
        <pt x="1442" y="496" on="1"/>
        <pt x="1442" y="399" on="0"/>
        <pt x="1375" y="243" on="0"/>
        <pt x="1308" y="184" on="1"/>
        <pt x="1308" y="-555" on="1"/>
        <pt x="1042" y="-555" on="1"/>
        <pt x="995" y="-437" on="0"/>
        <pt x="811" y="-437" on="1"/>
        <pt x="788" y="-437" on="0"/>
        <pt x="744" y="-441" on="0"/>
        <pt x="654" y="-454" on="1"/>
        <pt x="533" y="-472" on="0"/>
        <pt x="450" y="-472" on="1"/>
        <pt x="254" y="-472" on="0"/>
        <pt x="59" y="-279" on="0"/>
        <pt x="59" y="-87" on="1"/>
        <pt x="59" y="1" on="0"/>
        <pt x="76" y="76" on="1"/>
        <pt x="334" y="48" on="1"/>
        <pt x="322" y="2" on="0"/>
        <pt x="322" y="-75" on="1"/>
        <pt x="322" y="-161" on="0"/>
        <pt x="406" y="-245" on="0"/>
        <pt x="502" y="-245" on="1"/>
        <pt x="552" y="-245" on="0"/>
        <pt x="643" y="-227" on="1"/>
        <pt x="734" y="-210" on="0"/>
        <pt x="794" y="-210" on="1"/>
        <pt x="869" y="-210" on="0"/>
        <pt x="996" y="-266" on="0"/>
        <pt x="1038" y="-321" on="1"/>
        <pt x="1038" y="-44" on="1"/>
        <pt x="1038" y="29" on="0"/>
        <pt x="1040" y="63" on="1"/>
        <pt x="975" y="50" on="0"/>
        <pt x="886" y="50" on="1"/>
        <pt x="554" y="50" on="0"/>
        <pt x="142" y="472" on="0"/>
        <pt x="32" y="877" on="1"/>
        <pt x="289" y="948" on="1"/>
        <pt x="380" y="618" on="0"/>
        <pt x="658" y="285" on="0"/>
        <pt x="864" y="285" on="1"/>
        <pt x="1012" y="285" on="0"/>
        <pt x="1173" y="414" on="0"/>
        <pt x="1173" y="531" on="1"/>
        <pt x="1173" y="598" on="0"/>
        <pt x="1153" y="648" on="1"/>
        <pt x="990" y="484" on="0"/>
        <pt x="828" y="484" on="1"/>
        <pt x="744" y="484" on="0"/>
        <pt x="624" y="536" on="0"/>
        <pt x="556" y="667" on="0"/>
        <pt x="556" y="804" on="1"/>
        <pt x="556" y="1048" on="1"/>
        <pt x="-21" y="1048" on="1"/>
        <pt x="-21" y="1274" on="1"/>
        <pt x="1538" y="1274" on="1"/>
        <pt x="1538" y="1048" on="1"/>
        <pt x="826" y="1048" on="1"/>
      </contour>
      <contour>
        <pt x="576" y="-206" on="1"/>
        <pt x="520" y="-206" on="0"/>
        <pt x="440" y="-131" on="0"/>
        <pt x="440" y="-74" on="1"/>
        <pt x="440" y="-17" on="0"/>
        <pt x="519" y="59" on="0"/>
        <pt x="576" y="59" on="1"/>
        <pt x="631" y="59" on="0"/>
        <pt x="708" y="-18" on="0"/>
        <pt x="708" y="-74" on="1"/>
        <pt x="708" y="-131" on="0"/>
        <pt x="632" y="-206" on="0"/>
      </contour>
      <contour>
        <pt x="783" y="1274" on="1"/>
      </contour>
      <contour>
        <pt x="1038" y="0" on="1"/>
      </contour>
    </TTGlyph>
    <TTGlyph name="glyph00235" xMin="-21" yMin="-361" xMax="1526" yMax="1274">
      <component glyphName="glyph00527" x="0" y="0" flags="0x204"/>
      <component glyphName="uni09BC" x="1020" y="60" flags="0x4"/>
    </TTGlyph>
    <TTGlyph name="glyph00236" xMin="-21" yMin="-555" xMax="1474" yMax="1274">
      <contour>
        <pt x="915" y="668" on="1"/>
        <pt x="879" y="890" on="1"/>
        <pt x="973" y="912" on="0"/>
        <pt x="1072" y="912" on="1"/>
        <pt x="1217" y="912" on="0"/>
        <pt x="1373" y="769" on="0"/>
        <pt x="1373" y="638" on="1"/>
        <pt x="1373" y="558" on="0"/>
        <pt x="1324" y="409" on="0"/>
        <pt x="1276" y="339" on="1"/>
        <pt x="1276" y="-555" on="1"/>
        <pt x="1010" y="-555" on="1"/>
        <pt x="964" y="-437" on="0"/>
        <pt x="783" y="-437" on="1"/>
        <pt x="760" y="-437" on="0"/>
        <pt x="719" y="-441" on="0"/>
        <pt x="629" y="-454" on="1"/>
        <pt x="511" y="-472" on="0"/>
        <pt x="429" y="-472" on="1"/>
        <pt x="233" y="-472" on="0"/>
        <pt x="45" y="-250" on="0"/>
        <pt x="45" y="-33" on="1"/>
        <pt x="45" y="72" on="0"/>
        <pt x="62" y="153" on="1"/>
        <pt x="320" y="125" on="1"/>
        <pt x="308" y="59" on="0"/>
        <pt x="308" y="-30" on="1"/>
        <pt x="308" y="-139" on="0"/>
        <pt x="389" y="-245" on="0"/>
        <pt x="483" y="-245" on="1"/>
        <pt x="520" y="-245" on="0"/>
        <pt x="580" y="-236" on="0"/>
        <pt x="621" y="-227" on="1"/>
        <pt x="710" y="-210" on="0"/>
        <pt x="768" y="-210" on="1"/>
        <pt x="839" y="-210" on="0"/>
        <pt x="964" y="-265" on="0"/>
        <pt x="1006" y="-321" on="1"/>
        <pt x="1006" y="27" on="1"/>
        <pt x="1006" y="93" on="0"/>
        <pt x="1008" y="124" on="1"/>
        <pt x="898" y="80" on="0"/>
        <pt x="785" y="80" on="1"/>
        <pt x="622" y="80" on="0"/>
        <pt x="462" y="190" on="0"/>
        <pt x="404" y="361" on="0"/>
        <pt x="404" y="490" on="1"/>
        <pt x="404" y="1048" on="1"/>
        <pt x="-21" y="1048" on="1"/>
        <pt x="-21" y="1274" on="1"/>
        <pt x="1474" y="1274" on="1"/>
        <pt x="1474" y="1048" on="1"/>
        <pt x="674" y="1048" on="1"/>
        <pt x="674" y="489" on="1"/>
        <pt x="674" y="416" on="0"/>
        <pt x="694" y="344" on="0"/>
        <pt x="750" y="306" on="0"/>
        <pt x="803" y="306" on="1"/>
        <pt x="875" y="306" on="0"/>
        <pt x="1003" y="388" on="0"/>
        <pt x="1107" y="517" on="0"/>
        <pt x="1107" y="588" on="1"/>
        <pt x="1107" y="676" on="0"/>
        <pt x="1003" y="676" on="1"/>
        <pt x="958" y="676" on="0"/>
      </contour>
      <contour>
        <pt x="542" y="-194" on="1"/>
        <pt x="486" y="-194" on="0"/>
        <pt x="406" y="-119" on="0"/>
        <pt x="406" y="-62" on="1"/>
        <pt x="406" y="-5" on="0"/>
        <pt x="485" y="71" on="0"/>
        <pt x="542" y="71" on="1"/>
        <pt x="597" y="71" on="0"/>
        <pt x="674" y="-6" on="0"/>
        <pt x="674" y="-62" on="1"/>
        <pt x="674" y="-119" on="0"/>
        <pt x="598" y="-194" on="0"/>
      </contour>
      <contour>
        <pt x="747" y="1274" on="1"/>
      </contour>
    </TTGlyph>
    <TTGlyph name="glyph00237" xMin="-21" yMin="-357" xMax="1433" yMax="1274">
      <component glyphName="glyph00528" x="0" y="0" flags="0x204"/>
      <component glyphName="uni09BC" x="947" y="64" flags="0x4"/>
    </TTGlyph>
    <TTGlyph name="glyph00238" xMin="-21" yMin="-329" xMax="1546" yMax="1274">
      <contour>
        <pt x="-21" y="1274" on="1"/>
        <pt x="1546" y="1274" on="1"/>
        <pt x="1546" y="1048" on="1"/>
        <pt x="1348" y="1048" on="1"/>
        <pt x="1348" y="-329" on="1"/>
        <pt x="1082" y="-329" on="1"/>
        <pt x="1054" y="-267" on="0"/>
        <pt x="945" y="-211" on="0"/>
        <pt x="841" y="-211" on="1"/>
        <pt x="814" y="-211" on="0"/>
        <pt x="761" y="-216" on="0"/>
        <pt x="668" y="-228" on="1"/>
        <pt x="539" y="-246" on="0"/>
        <pt x="457" y="-246" on="1"/>
        <pt x="251" y="-246" on="0"/>
        <pt x="59" y="-74" on="0"/>
        <pt x="59" y="96" on="1"/>
        <pt x="59" y="180" on="0"/>
        <pt x="76" y="239" on="1"/>
        <pt x="334" y="211" on="1"/>
        <pt x="322" y="175" on="0"/>
        <pt x="322" y="121" on="1"/>
        <pt x="322" y="50" on="0"/>
        <pt x="410" y="-19" on="0"/>
        <pt x="512" y="-19" on="1"/>
        <pt x="569" y="-19" on="0"/>
        <pt x="668" y="-1" on="1"/>
        <pt x="767" y="16" on="0"/>
        <pt x="819" y="16" on="1"/>
        <pt x="906" y="16" on="0"/>
        <pt x="1028" y="-36" on="0"/>
        <pt x="1078" y="-100" on="1"/>
        <pt x="1078" y="30" on="1"/>
        <pt x="934" y="181" on="0"/>
        <pt x="576" y="333" on="0"/>
        <pt x="323" y="352" on="1"/>
        <pt x="227" y="583" on="1"/>
        <pt x="443" y="713" on="0"/>
        <pt x="612" y="792" on="1"/>
        <pt x="429" y="899" on="0"/>
        <pt x="212" y="934" on="1"/>
        <pt x="262" y="1048" on="1"/>
        <pt x="-21" y="1048" on="1"/>
      </contour>
      <contour>
        <pt x="893" y="683" on="1"/>
        <pt x="681" y="592" on="0"/>
        <pt x="568" y="528" on="1"/>
        <pt x="861" y="481" on="0"/>
        <pt x="1082" y="297" on="1"/>
        <pt x="1078" y="337" on="0"/>
        <pt x="1078" y="438" on="1"/>
        <pt x="1078" y="1048" on="1"/>
        <pt x="565" y="1048" on="1"/>
        <pt x="721" y="992" on="0"/>
        <pt x="871" y="857" on="1"/>
      </contour>
      <contour>
        <pt x="535" y="22" on="1"/>
        <pt x="479" y="22" on="0"/>
        <pt x="399" y="97" on="0"/>
        <pt x="399" y="154" on="1"/>
        <pt x="399" y="211" on="0"/>
        <pt x="478" y="287" on="0"/>
        <pt x="535" y="287" on="1"/>
        <pt x="590" y="287" on="0"/>
        <pt x="667" y="210" on="0"/>
        <pt x="667" y="154" on="1"/>
        <pt x="667" y="97" on="0"/>
        <pt x="591" y="22" on="0"/>
      </contour>
    </TTGlyph>
    <TTGlyph name="glyph00239" xMin="-21" yMin="-329" xMax="2074" yMax="1274">
      <contour>
        <pt x="1434" y="-329" on="1"/>
        <pt x="1162" y="-329" on="1"/>
        <pt x="1118" y="-211" on="0"/>
        <pt x="946" y="-211" on="1"/>
        <pt x="916" y="-211" on="0"/>
        <pt x="856" y="-216" on="0"/>
        <pt x="758" y="-228" on="1"/>
        <pt x="619" y="-246" on="0"/>
        <pt x="534" y="-246" on="1"/>
        <pt x="314" y="-246" on="0"/>
        <pt x="89" y="-52" on="0"/>
        <pt x="89" y="139" on="1"/>
        <pt x="89" y="209" on="0"/>
        <pt x="107" y="294" on="1"/>
        <pt x="365" y="259" on="1"/>
        <pt x="352" y="208" on="0"/>
        <pt x="352" y="165" on="1"/>
        <pt x="352" y="73" on="0"/>
        <pt x="448" y="-19" on="0"/>
        <pt x="576" y="-19" on="1"/>
        <pt x="645" y="-19" on="0"/>
        <pt x="761" y="-1" on="1"/>
        <pt x="878" y="16" on="0"/>
        <pt x="939" y="16" on="1"/>
        <pt x="1006" y="16" on="0"/>
        <pt x="1124" y="-39" on="0"/>
        <pt x="1164" y="-95" on="1"/>
        <pt x="1164" y="132" on="1"/>
        <pt x="1070" y="255" on="0"/>
        <pt x="914" y="364" on="0"/>
        <pt x="839" y="364" on="1"/>
        <pt x="782" y="364" on="0"/>
        <pt x="727" y="318" on="0"/>
        <pt x="727" y="279" on="1"/>
        <pt x="727" y="237" on="0"/>
        <pt x="758" y="188" on="1"/>
        <pt x="515" y="100" on="1"/>
        <pt x="451" y="210" on="0"/>
        <pt x="451" y="333" on="1"/>
        <pt x="451" y="416" on="0"/>
        <pt x="559" y="540" on="0"/>
        <pt x="657" y="570" on="1"/>
        <pt x="622" y="642" on="0"/>
        <pt x="507" y="720" on="0"/>
        <pt x="439" y="720" on="1"/>
        <pt x="386" y="720" on="0"/>
        <pt x="331" y="674" on="0"/>
        <pt x="331" y="635" on="1"/>
        <pt x="331" y="590" on="0"/>
        <pt x="362" y="544" on="1"/>
        <pt x="119" y="456" on="1"/>
        <pt x="55" y="566" on="0"/>
        <pt x="55" y="689" on="1"/>
        <pt x="55" y="783" on="0"/>
        <pt x="181" y="908" on="0"/>
        <pt x="297" y="932" on="1"/>
        <pt x="272" y="997" on="0"/>
        <pt x="219" y="1048" on="1"/>
        <pt x="-21" y="1048" on="1"/>
        <pt x="-21" y="1274" on="1"/>
        <pt x="2074" y="1274" on="1"/>
        <pt x="2074" y="1048" on="1"/>
        <pt x="1434" y="1048" on="1"/>
        <pt x="1434" y="862" on="1"/>
        <pt x="1732" y="859" on="0"/>
        <pt x="1992" y="661" on="0"/>
        <pt x="1992" y="495" on="1"/>
        <pt x="1992" y="373" on="0"/>
        <pt x="1829" y="214" on="0"/>
        <pt x="1681" y="214" on="1"/>
        <pt x="1618" y="214" on="0"/>
        <pt x="1555" y="225" on="1"/>
        <pt x="1565" y="451" on="1"/>
        <pt x="1589" y="447" on="0"/>
        <pt x="1623" y="447" on="1"/>
        <pt x="1671" y="447" on="0"/>
        <pt x="1722" y="480" on="0"/>
        <pt x="1722" y="519" on="1"/>
        <pt x="1722" y="579" on="0"/>
        <pt x="1578" y="640" on="0"/>
        <pt x="1434" y="640" on="1"/>
      </contour>
      <contour>
        <pt x="1168" y="404" on="1"/>
        <pt x="1164" y="436" on="0"/>
        <pt x="1164" y="545" on="1"/>
        <pt x="1164" y="645" on="1"/>
        <pt x="969" y="663" on="0"/>
        <pt x="784" y="859" on="0"/>
        <pt x="784" y="1026" on="1"/>
        <pt x="784" y="1048" on="1"/>
        <pt x="504" y="1048" on="1"/>
        <pt x="546" y="984" on="0"/>
        <pt x="555" y="923" on="1"/>
        <pt x="688" y="883" on="0"/>
        <pt x="879" y="691" on="0"/>
        <pt x="900" y="574" on="1"/>
        <pt x="1047" y="540" on="0"/>
      </contour>
      <contour>
        <pt x="1031" y="1048" on="1"/>
        <pt x="1031" y="1034" on="1"/>
        <pt x="1031" y="958" on="0"/>
        <pt x="1097" y="876" on="0"/>
        <pt x="1169" y="867" on="1"/>
        <pt x="1169" y="1048" on="1"/>
      </contour>
      <contour>
        <pt x="1164" y="1274" on="1"/>
      </contour>
      <contour>
        <pt x="1164" y="0" on="1"/>
      </contour>
    </TTGlyph>
    <TTGlyph name="glyph00240" xMin="-21" yMin="-547" xMax="2173" yMax="1274">
      <component glyphName="glyph00126" x="0" y="0" flags="0x204"/>
      <component glyphName="glyph00128" x="1976" y="-69" flags="0x4"/>
    </TTGlyph>
    <TTGlyph name="glyph00241" xMin="-21" yMin="-89" xMax="1600" yMax="1274">
      <contour>
        <pt x="1012" y="1048" on="1"/>
        <pt x="1012" y="1025" on="1"/>
        <pt x="1256" y="987" on="0"/>
        <pt x="1515" y="776" on="0"/>
        <pt x="1515" y="619" on="1"/>
        <pt x="1515" y="509" on="0"/>
        <pt x="1365" y="379" on="0"/>
        <pt x="1229" y="379" on="1"/>
        <pt x="1154" y="379" on="0"/>
        <pt x="1103" y="390" on="1"/>
        <pt x="1113" y="596" on="1"/>
        <pt x="1141" y="592" on="0"/>
        <pt x="1164" y="592" on="1"/>
        <pt x="1255" y="592" on="0"/>
        <pt x="1255" y="656" on="1"/>
        <pt x="1255" y="710" on="0"/>
        <pt x="1130" y="797" on="0"/>
        <pt x="1015" y="817" on="1"/>
        <pt x="1015" y="-89" on="1"/>
        <pt x="745" y="-89" on="1"/>
        <pt x="633" y="6" on="0"/>
        <pt x="447" y="96" on="0"/>
        <pt x="285" y="128" on="1"/>
        <pt x="185" y="353" on="1"/>
        <pt x="316" y="421" on="0"/>
        <pt x="389" y="455" on="1"/>
        <pt x="251" y="503" on="0"/>
        <pt x="130" y="506" on="1"/>
        <pt x="33" y="737" on="1"/>
        <pt x="446" y="944" on="0"/>
        <pt x="749" y="1026" on="1"/>
        <pt x="749" y="1048" on="1"/>
        <pt x="-21" y="1048" on="1"/>
        <pt x="-21" y="1274" on="1"/>
        <pt x="1600" y="1274" on="1"/>
        <pt x="1600" y="1048" on="1"/>
      </contour>
      <contour>
        <pt x="745" y="811" on="1"/>
        <pt x="535" y="747" on="0"/>
        <pt x="341" y="656" on="1"/>
        <pt x="486" y="624" on="0"/>
        <pt x="611" y="553" on="1"/>
        <pt x="655" y="571" on="0"/>
        <pt x="745" y="603" on="1"/>
      </contour>
      <contour>
        <pt x="745" y="386" on="1"/>
        <pt x="612" y="347" on="0"/>
        <pt x="452" y="271" on="1"/>
        <pt x="645" y="223" on="0"/>
        <pt x="752" y="129" on="1"/>
        <pt x="745" y="213" on="0"/>
        <pt x="745" y="281" on="1"/>
      </contour>
      <contour>
        <pt x="745" y="1274" on="1"/>
      </contour>
      <contour>
        <pt x="745" y="0" on="1"/>
      </contour>
    </TTGlyph>
    <TTGlyph name="glyph00242" xMin="90" yMin="-548" xMax="1554" yMax="1409">
      <component glyphName="uni0996" x="0" y="0" flags="0x204"/>
      <component glyphName="glyph00129" x="1533" y="0" flags="0x4"/>
    </TTGlyph>
    <TTGlyph name="glyph00243" xMin="31" yMin="-89" xMax="1496" yMax="1409">
      <contour>
        <pt x="1028" y="801" on="1"/>
        <pt x="911" y="939" on="0"/>
        <pt x="702" y="1062" on="0"/>
        <pt x="596" y="1062" on="1"/>
        <pt x="519" y="1062" on="0"/>
        <pt x="393" y="1021" on="0"/>
        <pt x="329" y="967" on="1"/>
        <pt x="407" y="995" on="0"/>
        <pt x="510" y="995" on="1"/>
        <pt x="626" y="995" on="0"/>
        <pt x="776" y="869" on="0"/>
        <pt x="776" y="776" on="1"/>
        <pt x="776" y="665" on="0"/>
        <pt x="611" y="487" on="0"/>
        <pt x="433" y="403" on="1"/>
        <pt x="293" y="605" on="1"/>
        <pt x="393" y="641" on="0"/>
        <pt x="521" y="720" on="0"/>
        <pt x="521" y="770" on="1"/>
        <pt x="521" y="799" on="0"/>
        <pt x="477" y="831" on="0"/>
        <pt x="438" y="831" on="1"/>
        <pt x="346" y="831" on="0"/>
        <pt x="234" y="775" on="1"/>
        <pt x="31" y="938" on="1"/>
        <pt x="171" y="1124" on="0"/>
        <pt x="431" y="1288" on="0"/>
        <pt x="584" y="1288" on="1"/>
        <pt x="696" y="1288" on="0"/>
        <pt x="901" y="1196" on="0"/>
        <pt x="1032" y="1080" on="1"/>
        <pt x="1028" y="1143" on="0"/>
        <pt x="1028" y="1199" on="1"/>
        <pt x="1028" y="1409" on="1"/>
        <pt x="1250" y="1409" on="1"/>
        <pt x="1296" y="1274" on="1"/>
        <pt x="1496" y="1274" on="1"/>
        <pt x="1496" y="1048" on="1"/>
        <pt x="1298" y="1048" on="1"/>
        <pt x="1298" y="-89" on="1"/>
        <pt x="1028" y="-89" on="1"/>
        <pt x="907" y="13" on="0"/>
        <pt x="704" y="104" on="0"/>
        <pt x="551" y="132" on="1"/>
        <pt x="455" y="351" on="1"/>
        <pt x="727" y="503" on="0"/>
        <pt x="1028" y="607" on="1"/>
      </contour>
      <contour>
        <pt x="1028" y="386" on="1"/>
        <pt x="895" y="347" on="0"/>
        <pt x="735" y="271" on="1"/>
        <pt x="928" y="223" on="0"/>
        <pt x="1035" y="129" on="1"/>
        <pt x="1028" y="213" on="0"/>
        <pt x="1028" y="281" on="1"/>
      </contour>
      <contour>
        <pt x="956" y="1274" on="1"/>
      </contour>
    </TTGlyph>
    <TTGlyph name="glyph00244" xMin="-21" yMin="-548" xMax="1376" yMax="1274">
      <component glyphName="uni0998" x="0" y="0" flags="0x204"/>
      <component glyphName="glyph00129" x="1355" y="0" flags="0x4"/>
    </TTGlyph>
    <TTGlyph name="glyph00245" xMin="32" yMin="-468" xMax="1464" yMax="1287">
      <component glyphName="uni0999" x="0" y="0" flags="0x204"/>
      <component glyphName="glyph00129" x="1411" y="80" flags="0x4"/>
    </TTGlyph>
    <TTGlyph name="glyph00246" xMin="-21" yMin="-417" xMax="1235" yMax="1274">
      <component glyphName="uni099A" x="0" y="0" flags="0x204"/>
      <component glyphName="glyph00129" x="1156" y="131" flags="0x4"/>
    </TTGlyph>
    <TTGlyph name="glyph00247" xMin="-21" yMin="-548" xMax="1522" yMax="1274">
      <component glyphName="uni099B" x="0" y="0" flags="0x204"/>
      <component glyphName="glyph00129" x="1353" y="0" flags="0x4"/>
    </TTGlyph>
    <TTGlyph name="glyph00248" xMin="-21" yMin="-240" xMax="2173" yMax="1274">
      <contour>
        <pt x="1456" y="1048" on="1"/>
        <pt x="1375" y="1048" on="0"/>
        <pt x="1326" y="1052" on="1"/>
        <pt x="1381" y="982" on="0"/>
        <pt x="1561" y="921" on="0"/>
        <pt x="1708" y="921" on="1"/>
        <pt x="1781" y="921" on="0"/>
        <pt x="1849" y="927" on="1"/>
        <pt x="1975" y="725" on="1"/>
        <pt x="1975" y="-240" on="1"/>
        <pt x="1705" y="-240" on="1"/>
        <pt x="1593" y="-145" on="0"/>
        <pt x="1407" y="-55" on="0"/>
        <pt x="1245" y="-23" on="1"/>
        <pt x="1181" y="120" on="1"/>
        <pt x="1120" y="91" on="0"/>
        <pt x="981" y="62" on="0"/>
        <pt x="902" y="62" on="1"/>
        <pt x="666" y="62" on="0"/>
        <pt x="336" y="244" on="0"/>
        <pt x="106" y="608" on="0"/>
        <pt x="32" y="877" on="1"/>
        <pt x="289" y="948" on="1"/>
        <pt x="380" y="616" on="0"/>
        <pt x="666" y="297" on="0"/>
        <pt x="886" y="297" on="1"/>
        <pt x="1021" y="297" on="0"/>
        <pt x="1157" y="395" on="0"/>
        <pt x="1157" y="489" on="1"/>
        <pt x="1157" y="524" on="0"/>
        <pt x="1150" y="562" on="1"/>
        <pt x="1074" y="509" on="0"/>
        <pt x="934" y="466" on="0"/>
        <pt x="857" y="466" on="1"/>
        <pt x="715" y="466" on="0"/>
        <pt x="549" y="605" on="0"/>
        <pt x="549" y="729" on="1"/>
        <pt x="549" y="831" on="0"/>
        <pt x="657" y="997" on="0"/>
        <pt x="761" y="1051" on="1"/>
        <pt x="704" y="1048" on="0"/>
        <pt x="618" y="1048" on="1"/>
        <pt x="-21" y="1048" on="1"/>
        <pt x="-21" y="1274" on="1"/>
        <pt x="2173" y="1274" on="1"/>
        <pt x="2173" y="1048" on="1"/>
      </contour>
      <contour>
        <pt x="1388" y="327" on="1"/>
        <pt x="1469" y="364" on="0"/>
        <pt x="1627" y="429" on="0"/>
        <pt x="1705" y="456" on="1"/>
        <pt x="1705" y="695" on="1"/>
        <pt x="1478" y="698" on="0"/>
        <pt x="1147" y="858" on="0"/>
        <pt x="1067" y="1002" on="1"/>
        <pt x="947" y="948" on="0"/>
        <pt x="819" y="825" on="0"/>
        <pt x="819" y="772" on="1"/>
        <pt x="819" y="734" on="0"/>
        <pt x="860" y="692" on="0"/>
        <pt x="895" y="692" on="1"/>
        <pt x="943" y="692" on="0"/>
        <pt x="1027" y="729" on="0"/>
        <pt x="1091" y="779" on="1"/>
        <pt x="1390" y="690" on="1"/>
        <pt x="1423" y="595" on="0"/>
        <pt x="1423" y="487" on="1"/>
        <pt x="1423" y="446" on="0"/>
        <pt x="1405" y="366" on="0"/>
      </contour>
      <contour>
        <pt x="1705" y="235" on="1"/>
        <pt x="1572" y="196" on="0"/>
        <pt x="1412" y="120" on="1"/>
        <pt x="1605" y="72" on="0"/>
        <pt x="1712" y="-22" on="1"/>
        <pt x="1705" y="62" on="0"/>
        <pt x="1705" y="130" on="1"/>
      </contour>
      <contour>
        <pt x="1358" y="1274" on="1"/>
      </contour>
    </TTGlyph>
    <TTGlyph name="glyph00249" xMin="-21" yMin="-548" xMax="1769" yMax="1409">
      <component glyphName="uni099D" x="0" y="0" flags="0x204"/>
      <component glyphName="glyph00129" x="1288" y="0" flags="0x4"/>
    </TTGlyph>
    <TTGlyph name="glyph00250" xMin="64" yMin="-548" xMax="2102" yMax="1286">
      <component glyphName="uni099E" x="0" y="0" flags="0x204"/>
      <component glyphName="glyph00129" x="1634" y="0" flags="0x4"/>
    </TTGlyph>
    <TTGlyph name="glyph00251" xMin="-21" yMin="-417" xMax="1235" yMax="1868">
      <component glyphName="uni099F" x="0" y="0" flags="0x204"/>
      <component glyphName="glyph00129" x="1156" y="131" flags="0x4"/>
    </TTGlyph>
    <TTGlyph name="glyph00252" xMin="-21" yMin="-477" xMax="1319" yMax="1878">
      <component glyphName="uni09A0" x="0" y="0" flags="0x204"/>
      <component glyphName="glyph00129" x="1179" y="71" flags="0x4"/>
    </TTGlyph>
    <TTGlyph name="glyph00253" xMin="-21" yMin="-441" xMax="1538" yMax="1274">
      <component glyphName="uni09A1" x="0" y="0" flags="0x204"/>
      <component glyphName="glyph00129" x="1370" y="107" flags="0x4"/>
    </TTGlyph>
    <TTGlyph name="glyph00254" xMin="-21" yMin="-417" xMax="1235" yMax="1274">
      <component glyphName="uni09A2" x="0" y="0" flags="0x204"/>
      <component glyphName="glyph00129" x="1156" y="131" flags="0x4"/>
    </TTGlyph>
    <TTGlyph name="glyph00255" xMin="75" yMin="0" xMax="1335" yMax="1409">
      <contour>
        <pt x="867" y="801" on="1"/>
        <pt x="651" y="1056" on="0"/>
        <pt x="477" y="1056" on="1"/>
        <pt x="420" y="1056" on="0"/>
        <pt x="354" y="1004" on="0"/>
        <pt x="354" y="958" on="1"/>
        <pt x="354" y="911" on="0"/>
        <pt x="422" y="847" on="0"/>
        <pt x="492" y="822" on="1"/>
        <pt x="371" y="596" on="1"/>
        <pt x="231" y="651" on="0"/>
        <pt x="75" y="850" on="0"/>
        <pt x="75" y="967" on="1"/>
        <pt x="75" y="1114" on="0"/>
        <pt x="275" y="1288" on="0"/>
        <pt x="426" y="1288" on="1"/>
        <pt x="539" y="1288" on="0"/>
        <pt x="746" y="1192" on="0"/>
        <pt x="870" y="1080" on="1"/>
        <pt x="867" y="1157" on="0"/>
        <pt x="867" y="1228" on="1"/>
        <pt x="867" y="1409" on="1"/>
        <pt x="1089" y="1409" on="1"/>
        <pt x="1135" y="1274" on="1"/>
        <pt x="1335" y="1274" on="1"/>
        <pt x="1335" y="1048" on="1"/>
        <pt x="1137" y="1048" on="1"/>
        <pt x="1137" y="0" on="1"/>
        <pt x="867" y="0" on="1"/>
        <pt x="746" y="102" on="0"/>
        <pt x="543" y="193" on="0"/>
        <pt x="390" y="221" on="1"/>
        <pt x="294" y="440" on="1"/>
        <pt x="566" y="592" on="0"/>
        <pt x="867" y="696" on="1"/>
      </contour>
      <contour>
        <pt x="867" y="475" on="1"/>
        <pt x="734" y="436" on="0"/>
        <pt x="574" y="360" on="1"/>
        <pt x="767" y="312" on="0"/>
        <pt x="874" y="218" on="1"/>
        <pt x="867" y="302" on="0"/>
        <pt x="867" y="370" on="1"/>
      </contour>
      <contour>
        <pt x="795" y="1274" on="1"/>
      </contour>
    </TTGlyph>
    <TTGlyph name="glyph00256" xMin="-21" yMin="-89" xMax="1380" yMax="1274">
      <contour>
        <pt x="-21" y="1048" on="1"/>
        <pt x="-21" y="1274" on="1"/>
        <pt x="1380" y="1274" on="1"/>
        <pt x="1380" y="1048" on="1"/>
      </contour>
      <contour>
        <pt x="1125" y="427" on="1"/>
        <pt x="1125" y="-89" on="1"/>
        <pt x="855" y="-89" on="1"/>
        <pt x="740" y="7" on="0"/>
        <pt x="534" y="98" on="0"/>
        <pt x="378" y="127" on="1"/>
        <pt x="282" y="346" on="1"/>
        <pt x="386" y="388" on="0"/>
        <pt x="486" y="422" on="1"/>
        <pt x="328" y="477" on="0"/>
        <pt x="101" y="718" on="0"/>
        <pt x="32" y="903" on="1"/>
        <pt x="288" y="976" on="1"/>
        <pt x="379" y="754" on="0"/>
        <pt x="612" y="577" on="0"/>
        <pt x="794" y="577" on="1"/>
        <pt x="914" y="577" on="0"/>
        <pt x="1024" y="636" on="0"/>
        <pt x="1024" y="695" on="1"/>
        <pt x="1024" y="739" on="0"/>
        <pt x="948" y="801" on="0"/>
        <pt x="887" y="801" on="1"/>
        <pt x="799" y="801" on="0"/>
        <pt x="799" y="735" on="1"/>
        <pt x="799" y="715" on="0"/>
        <pt x="812" y="691" on="1"/>
        <pt x="565" y="657" on="1"/>
        <pt x="535" y="728" on="0"/>
        <pt x="535" y="796" on="1"/>
        <pt x="535" y="896" on="0"/>
        <pt x="712" y="1005" on="0"/>
        <pt x="860" y="1005" on="1"/>
        <pt x="1061" y="1005" on="0"/>
        <pt x="1288" y="826" on="0"/>
        <pt x="1288" y="692" on="1"/>
        <pt x="1288" y="595" on="0"/>
        <pt x="1206" y="462" on="0"/>
      </contour>
      <contour>
        <pt x="855" y="367" on="1"/>
        <pt x="685" y="321" on="0"/>
        <pt x="563" y="265" on="1"/>
        <pt x="741" y="221" on="0"/>
        <pt x="862" y="119" on="1"/>
        <pt x="855" y="203" on="0"/>
        <pt x="855" y="271" on="1"/>
      </contour>
      <contour>
        <pt x="731" y="1274" on="1"/>
      </contour>
      <contour>
        <pt x="855" y="0" on="1"/>
      </contour>
    </TTGlyph>
    <TTGlyph name="glyph00257" xMin="75" yMin="-241" xMax="1492" yMax="1409">
      <contour>
        <pt x="687" y="610" on="1"/>
        <pt x="889" y="555" on="0"/>
        <pt x="1028" y="440" on="1"/>
        <pt x="1024" y="494" on="0"/>
        <pt x="1024" y="637" on="1"/>
        <pt x="1024" y="1409" on="1"/>
        <pt x="1245" y="1409" on="1"/>
        <pt x="1292" y="1274" on="1"/>
        <pt x="1492" y="1274" on="1"/>
        <pt x="1492" y="1048" on="1"/>
        <pt x="1294" y="1048" on="1"/>
        <pt x="1294" y="-241" on="1"/>
        <pt x="1024" y="-241" on="1"/>
        <pt x="903" y="-139" on="0"/>
        <pt x="700" y="-48" on="0"/>
        <pt x="547" y="-20" on="1"/>
        <pt x="451" y="199" on="1"/>
        <pt x="583" y="274" on="0"/>
        <pt x="778" y="357" on="1"/>
        <pt x="636" y="426" on="0"/>
        <pt x="359" y="466" on="1"/>
        <pt x="294" y="705" on="1"/>
        <pt x="472" y="727" on="0"/>
        <pt x="640" y="824" on="0"/>
        <pt x="640" y="918" on="1"/>
        <pt x="640" y="984" on="0"/>
        <pt x="552" y="1060" on="0"/>
        <pt x="470" y="1060" on="1"/>
        <pt x="410" y="1060" on="0"/>
        <pt x="345" y="1023" on="0"/>
        <pt x="345" y="992" on="1"/>
        <pt x="345" y="946" on="0"/>
        <pt x="398" y="913" on="1"/>
        <pt x="229" y="753" on="1"/>
        <pt x="147" y="809" on="0"/>
        <pt x="75" y="930" on="0"/>
        <pt x="75" y="1004" on="1"/>
        <pt x="75" y="1125" on="0"/>
        <pt x="282" y="1281" on="0"/>
        <pt x="464" y="1281" on="1"/>
        <pt x="673" y="1281" on="0"/>
        <pt x="910" y="1078" on="0"/>
        <pt x="910" y="924" on="1"/>
        <pt x="910" y="810" on="0"/>
        <pt x="798" y="653" on="0"/>
      </contour>
      <contour>
        <pt x="1024" y="234" on="1"/>
        <pt x="891" y="195" on="0"/>
        <pt x="731" y="119" on="1"/>
        <pt x="924" y="71" on="0"/>
        <pt x="1031" y="-23" on="1"/>
        <pt x="1024" y="61" on="0"/>
        <pt x="1024" y="129" on="1"/>
      </contour>
      <contour>
        <pt x="952" y="1274" on="1"/>
      </contour>
    </TTGlyph>
    <TTGlyph name="glyph00258" xMin="-21" yMin="-240" xMax="1358" yMax="1274">
      <contour>
        <pt x="890" y="644" on="1"/>
        <pt x="588" y="511" on="0"/>
        <pt x="376" y="334" on="1"/>
        <pt x="153" y="481" on="1"/>
        <pt x="153" y="1048" on="1"/>
        <pt x="-21" y="1048" on="1"/>
        <pt x="-21" y="1274" on="1"/>
        <pt x="1358" y="1274" on="1"/>
        <pt x="1358" y="1048" on="1"/>
        <pt x="423" y="1048" on="1"/>
        <pt x="423" y="651" on="1"/>
        <pt x="663" y="831" on="0"/>
        <pt x="1012" y="940" on="1"/>
        <pt x="1160" y="785" on="1"/>
        <pt x="1160" y="-240" on="1"/>
        <pt x="890" y="-240" on="1"/>
        <pt x="769" y="-138" on="0"/>
        <pt x="566" y="-47" on="0"/>
        <pt x="413" y="-19" on="1"/>
        <pt x="317" y="200" on="1"/>
        <pt x="589" y="352" on="0"/>
        <pt x="890" y="456" on="1"/>
      </contour>
      <contour>
        <pt x="890" y="235" on="1"/>
        <pt x="757" y="196" on="0"/>
        <pt x="597" y="120" on="1"/>
        <pt x="790" y="72" on="0"/>
        <pt x="897" y="-22" on="1"/>
        <pt x="890" y="62" on="0"/>
        <pt x="890" y="130" on="1"/>
      </contour>
      <contour>
        <pt x="583" y="1274" on="1"/>
      </contour>
    </TTGlyph>
    <TTGlyph name="glyph00259" xMin="-21" yMin="-89" xMax="1408" yMax="1274">
      <contour>
        <pt x="-21" y="1048" on="1"/>
        <pt x="-21" y="1274" on="1"/>
        <pt x="1408" y="1274" on="1"/>
        <pt x="1408" y="1048" on="1"/>
        <pt x="423" y="1048" on="1"/>
        <pt x="423" y="737" on="1"/>
        <pt x="688" y="901" on="0"/>
        <pt x="1053" y="985" on="1"/>
        <pt x="1210" y="820" on="1"/>
        <pt x="1210" y="-89" on="1"/>
        <pt x="940" y="-89" on="1"/>
        <pt x="823" y="10" on="0"/>
        <pt x="630" y="99" on="0"/>
        <pt x="483" y="125" on="1"/>
        <pt x="388" y="340" on="1"/>
        <pt x="679" y="500" on="0"/>
        <pt x="940" y="590" on="1"/>
        <pt x="940" y="712" on="1"/>
        <pt x="796" y="666" on="0"/>
        <pt x="490" y="520" on="0"/>
        <pt x="376" y="441" on="1"/>
        <pt x="153" y="588" on="1"/>
        <pt x="153" y="1048" on="1"/>
      </contour>
      <contour>
        <pt x="947" y="129" on="1"/>
        <pt x="940" y="213" on="0"/>
        <pt x="940" y="281" on="1"/>
        <pt x="940" y="372" on="1"/>
        <pt x="789" y="322" on="0"/>
        <pt x="667" y="264" on="1"/>
        <pt x="845" y="220" on="0"/>
      </contour>
      <contour>
        <pt x="583" y="1274" on="1"/>
      </contour>
    </TTGlyph>
</ttFont>
